solid OpenSCAD_Model
  facet normal -1 0 0
    outer loop
      vertex 0 60 0
      vertex 0 37 2
      vertex 0 60 2
    endloop
  endfacet
  facet normal -1 0 0
    outer loop
      vertex 0 37 2
      vertex 0 36.0416 25
      vertex 0 37 25
    endloop
  endfacet
  facet normal -1 0 0
    outer loop
      vertex 0 20.5 10.5
      vertex 0 36.0416 25
      vertex 0 37 2
    endloop
  endfacet
  facet normal -1 0 0
    outer loop
      vertex 0 11.8891 24.8891
      vertex 0 36.0416 25
      vertex 0 20.5 10.5
    endloop
  endfacet
  facet normal -1 0 0
    outer loop
      vertex 0 37 2
      vertex 0 12 2
      vertex 0 20.5 10.5
    endloop
  endfacet
  facet normal -1 0 0
    outer loop
      vertex 0 0 0
      vertex 0 37 2
      vertex 0 60 0
    endloop
  endfacet
  facet normal -1 -0 0
    outer loop
      vertex 0 37 2
      vertex 0 0 0
      vertex 0 12 2
    endloop
  endfacet
  facet normal -1 -0 0
    outer loop
      vertex 0 12 2
      vertex 0 0 0
      vertex 0 0 2
    endloop
  endfacet
  facet normal -1 -0 0
    outer loop
      vertex 0 45.0624 34.0208
      vertex 0 36.0416 25
      vertex 0 33.0416 46.0416
    endloop
  endfacet
  facet normal -1 -0 0
    outer loop
      vertex 0 36.0416 25
      vertex 0 11.8891 24.8891
      vertex 0 33.0416 46.0416
    endloop
  endfacet
  facet normal -1 0 0
    outer loop
      vertex 0 9.06066 22.0607
      vertex 0 11.8891 24.8891
      vertex 0 20.5 10.5
    endloop
  endfacet
  facet normal -1 -0 0
    outer loop
      vertex 0 11.8891 24.8891
      vertex 0 9.06066 22.0607
      vertex 0 11.8683 24.9099
    endloop
  endfacet
  facet normal -1 0 -0
    outer loop
      vertex 0 9.06066 22.0607
      vertex 0 20.5 10.5
      vertex 0 9 22
    endloop
  endfacet
  facet normal -1 0 0
    outer loop
      vertex 0 11.8683 24.9099
      vertex 0 9.06066 22.0607
      vertex 0 9.03985 22.0815
    endloop
  endfacet
  facet normal 0 0 1
    outer loop
      vertex 9 12 2
      vertex 0 12 2
      vertex 9 10 2
    endloop
  endfacet
  facet normal 0 0 1
    outer loop
      vertex 78.85 10 2
      vertex 87.85 12 2
      vertex 78.85 12 2
    endloop
  endfacet
  facet normal 0 0 1
    outer loop
      vertex 87.85 12 2
      vertex 78.85 10 2
      vertex 87.85 0 2
    endloop
  endfacet
  facet normal -0 0 1
    outer loop
      vertex 9 10 2
      vertex 87.85 0 2
      vertex 78.85 10 2
    endloop
  endfacet
  facet normal 0 0 1
    outer loop
      vertex 9 10 2
      vertex 0 0 2
      vertex 87.85 0 2
    endloop
  endfacet
  facet normal 0 0 1
    outer loop
      vertex 0 0 2
      vertex 9 10 2
      vertex 0 12 2
    endloop
  endfacet
  facet normal 0 0 1
    outer loop
      vertex 87.85 60 2
      vertex 78.85 50 2
      vertex 87.85 37 2
    endloop
  endfacet
  facet normal 0 0 1
    outer loop
      vertex 87.85 60 2
      vertex 9 50 2
      vertex 78.85 50 2
    endloop
  endfacet
  facet normal -0 0 1
    outer loop
      vertex 0 60 2
      vertex 9 50 2
      vertex 87.85 60 2
    endloop
  endfacet
  facet normal 0 0 1
    outer loop
      vertex 0 37 2
      vertex 9 50 2
      vertex 0 60 2
    endloop
  endfacet
  facet normal 0 0 1
    outer loop
      vertex 9 50 2
      vertex 0 37 2
      vertex 9 37 2
    endloop
  endfacet
  facet normal 0 0 1
    outer loop
      vertex 87.85 37 2
      vertex 78.85 50 2
      vertex 78.85 37 2
    endloop
  endfacet
  facet normal 1 0 0
    outer loop
      vertex 87.85 37 25
      vertex 87.85 36.0416 25
      vertex 87.85 37 2
    endloop
  endfacet
  facet normal 1 -0 0
    outer loop
      vertex 87.85 37 2
      vertex 87.85 60 0
      vertex 87.85 60 2
    endloop
  endfacet
  facet normal 1 -0 0
    outer loop
      vertex 87.85 21.0208 9.97919
      vertex 87.85 37 2
      vertex 87.85 36.0416 25
    endloop
  endfacet
  facet normal 1 0 0
    outer loop
      vertex 87.85 12 2
      vertex 87.85 21.0208 9.97919
      vertex 87.85 20.5 10.5
    endloop
  endfacet
  facet normal 1 0 0
    outer loop
      vertex 87.85 12 2
      vertex 87.85 37 2
      vertex 87.85 21.0208 9.97919
    endloop
  endfacet
  facet normal 1 0 0
    outer loop
      vertex 87.85 0 0
      vertex 87.85 37 2
      vertex 87.85 12 2
    endloop
  endfacet
  facet normal 1 0 0
    outer loop
      vertex 87.85 0 0
      vertex 87.85 12 2
      vertex 87.85 0 2
    endloop
  endfacet
  facet normal 1 0 0
    outer loop
      vertex 87.85 37 2
      vertex 87.85 0 0
      vertex 87.85 60 0
    endloop
  endfacet
  facet normal 0 1 -0
    outer loop
      vertex 87.85 60 0
      vertex 0 60 2
      vertex 87.85 60 2
    endloop
  endfacet
  facet normal 0 1 0
    outer loop
      vertex 0 60 2
      vertex 87.85 60 0
      vertex 0 60 0
    endloop
  endfacet
  facet normal 0 0 -1
    outer loop
      vertex 78.85 12 0
      vertex 87.85 0 0
      vertex 78.85 10 0
    endloop
  endfacet
  facet normal 0 0 -1
    outer loop
      vertex 87.85 0 0
      vertex 9 10 0
      vertex 78.85 10 0
    endloop
  endfacet
  facet normal 0 0 -1
    outer loop
      vertex 0 0 0
      vertex 9 12 0
      vertex 9 10 0
    endloop
  endfacet
  facet normal -0 0 -1
    outer loop
      vertex 9 12 0
      vertex 0 0 0
      vertex 9 37 0
    endloop
  endfacet
  facet normal 0 0 -1
    outer loop
      vertex 0 60 0
      vertex 9 37 0
      vertex 0 0 0
    endloop
  endfacet
  facet normal 0 0 -1
    outer loop
      vertex 0 0 0
      vertex 9 10 0
      vertex 87.85 0 0
    endloop
  endfacet
  facet normal 0 0 -1
    outer loop
      vertex 78.85 37 0
      vertex 87.85 0 0
      vertex 78.85 12 0
    endloop
  endfacet
  facet normal 0 0 -1
    outer loop
      vertex 87.85 0 0
      vertex 78.85 37 0
      vertex 87.85 60 0
    endloop
  endfacet
  facet normal 0 0 -1
    outer loop
      vertex 78.85 50 0
      vertex 87.85 60 0
      vertex 78.85 37 0
    endloop
  endfacet
  facet normal 0 0 -1
    outer loop
      vertex 9 50 0
      vertex 87.85 60 0
      vertex 78.85 50 0
    endloop
  endfacet
  facet normal 0 0 -1
    outer loop
      vertex 9 50 0
      vertex 0 60 0
      vertex 87.85 60 0
    endloop
  endfacet
  facet normal 0 0 -1
    outer loop
      vertex 9 37 0
      vertex 0 60 0
      vertex 9 50 0
    endloop
  endfacet
  facet normal 0 -1 0
    outer loop
      vertex 0 0 0
      vertex 87.85 0 2
      vertex 0 0 2
    endloop
  endfacet
  facet normal 0 -1 -0
    outer loop
      vertex 87.85 0 2
      vertex 0 0 0
      vertex 87.85 0 0
    endloop
  endfacet
  facet normal 1 -0 0
    outer loop
      vertex 9 10 2
      vertex 9 12 0
      vertex 9 12 2
    endloop
  endfacet
  facet normal 1 0 0
    outer loop
      vertex 9 12 0
      vertex 9 10 2
      vertex 9 10 0
    endloop
  endfacet
  facet normal 1 0 0
    outer loop
      vertex 9 9.06066 22.0607
      vertex 9 20.5 10.5
      vertex 9 21.0607 10.0607
    endloop
  endfacet
  facet normal 1 0 0
    outer loop
      vertex 9 20.5 10.5
      vertex 9 9.06066 22.0607
      vertex 9 9 22
    endloop
  endfacet
  facet normal 1 0 0
    outer loop
      vertex 9 43.6482 35.435
      vertex 9 36.0416 25
      vertex 9 45.0624 34.0208
    endloop
  endfacet
  facet normal 1 0 0
    outer loop
      vertex 9 22.4957 14.2825
      vertex 9 36.0416 25
      vertex 9 43.6482 35.435
    endloop
  endfacet
  facet normal 1 0 0
    outer loop
      vertex 9 36.0416 25
      vertex 9 22.4957 14.2825
      vertex 9 23.8891 12.8891
    endloop
  endfacet
  facet normal 1 -0 0
    outer loop
      vertex 9 36.0416 25
      vertex 9 37 2
      vertex 9 37 25
    endloop
  endfacet
  facet normal 1 -0 0
    outer loop
      vertex 9 23.8891 12.8891
      vertex 9 37 2
      vertex 9 36.0416 25
    endloop
  endfacet
  facet normal 1 -0 0
    outer loop
      vertex 9 21.0607 10.0607
      vertex 9 37 2
      vertex 9 23.8891 12.8891
    endloop
  endfacet
  facet normal 1 0 0
    outer loop
      vertex 9 37 2
      vertex 9 21.0607 10.0607
      vertex 9 37 0
    endloop
  endfacet
  facet normal 1 0 0
    outer loop
      vertex 9 12 2
      vertex 9 21.0607 10.0607
      vertex 9 20.5 10.5
    endloop
  endfacet
  facet normal 1 0 0
    outer loop
      vertex 9 12 0
      vertex 9 21.0607 10.0607
      vertex 9 12 2
    endloop
  endfacet
  facet normal 1 0 0
    outer loop
      vertex 9 21.0607 10.0607
      vertex 9 12 0
      vertex 9 37 0
    endloop
  endfacet
  facet normal 1 -0 0
    outer loop
      vertex 9 37 2
      vertex 9 50 0
      vertex 9 50 2
    endloop
  endfacet
  facet normal 1 0 0
    outer loop
      vertex 9 50 0
      vertex 9 37 2
      vertex 9 37 0
    endloop
  endfacet
  facet normal -1 0 0
    outer loop
      vertex 78.85 10 0
      vertex 78.85 12 2
      vertex 78.85 12 0
    endloop
  endfacet
  facet normal -1 -0 0
    outer loop
      vertex 78.85 12 2
      vertex 78.85 10 0
      vertex 78.85 10 2
    endloop
  endfacet
  facet normal -1 0 0
    outer loop
      vertex 78.85 21.0607 10.0607
      vertex 78.85 37 2
      vertex 78.85 37 0
    endloop
  endfacet
  facet normal -1 0 -0
    outer loop
      vertex 78.85 35 25
      vertex 78.85 37 2
      vertex 78.85 23.8891 12.8891
    endloop
  endfacet
  facet normal -1 0 0
    outer loop
      vertex 78.85 37 2
      vertex 78.85 35 25
      vertex 78.85 37 25
    endloop
  endfacet
  facet normal -1 0 0
    outer loop
      vertex 78.85 37 2
      vertex 78.85 21.0607 10.0607
      vertex 78.85 23.8891 12.8891
    endloop
  endfacet
  facet normal -1 0 0
    outer loop
      vertex 78.85 12 0
      vertex 78.85 21.0607 10.0607
      vertex 78.85 37 0
    endloop
  endfacet
  facet normal -1 0 0
    outer loop
      vertex 78.85 12 2
      vertex 78.85 21.0607 10.0607
      vertex 78.85 12 0
    endloop
  endfacet
  facet normal -1 -0 0
    outer loop
      vertex 78.85 21.0607 10.0607
      vertex 78.85 12 2
      vertex 78.85 20.5607 10.5607
    endloop
  endfacet
  facet normal -1 0 0
    outer loop
      vertex 78.85 35 25
      vertex 78.85 23.8891 12.8891
      vertex 78.85 23.3891 13.3891
    endloop
  endfacet
  facet normal -1 0 0
    outer loop
      vertex 78.85 37 0
      vertex 78.85 50 2
      vertex 78.85 50 0
    endloop
  endfacet
  facet normal -1 -0 0
    outer loop
      vertex 78.85 50 2
      vertex 78.85 37 0
      vertex 78.85 37 2
    endloop
  endfacet
  facet normal 0 -1 0
    outer loop
      vertex 9 50 0
      vertex 78.85 50 2
      vertex 9 50 2
    endloop
  endfacet
  facet normal 0 -1 -0
    outer loop
      vertex 78.85 50 2
      vertex 9 50 0
      vertex 78.85 50 0
    endloop
  endfacet
  facet normal 0 1 -0
    outer loop
      vertex 78.85 10 0
      vertex 9 10 2
      vertex 78.85 10 2
    endloop
  endfacet
  facet normal 0 1 0
    outer loop
      vertex 9 10 2
      vertex 78.85 10 0
      vertex 9 10 0
    endloop
  endfacet
  facet normal 0 1 -0
    outer loop
      vertex 9 37 2
      vertex 0 37 25
      vertex 9 37 25
    endloop
  endfacet
  facet normal 0 1 0
    outer loop
      vertex 0 37 25
      vertex 9 37 2
      vertex 0 37 2
    endloop
  endfacet
  facet normal 0 -0.707107 0.707107
    outer loop
      vertex 0 12 2
      vertex 9 20.5 10.5
      vertex 0 20.5 10.5
    endloop
  endfacet
  facet normal 0 -0.707107 0.707107
    outer loop
      vertex 9 20.5 10.5
      vertex 0 12 2
      vertex 9 12 2
    endloop
  endfacet
  facet normal -0 0 1
    outer loop
      vertex 0 37 25
      vertex 9 36.0416 25
      vertex 9 37 25
    endloop
  endfacet
  facet normal 0 0 1
    outer loop
      vertex 9 36.0416 25
      vertex 0 37 25
      vertex 0 36.0416 25
    endloop
  endfacet
  facet normal 0 1 -0
    outer loop
      vertex 87.85 37 2
      vertex 78.85 37 25
      vertex 87.85 37 25
    endloop
  endfacet
  facet normal 0 1 0
    outer loop
      vertex 78.85 37 25
      vertex 87.85 37 2
      vertex 78.85 37 2
    endloop
  endfacet
  facet normal 0 -0.707107 0.707107
    outer loop
      vertex 78.85 12 2
      vertex 87.85 20.5 10.5
      vertex 78.85 20.5 10.5
    endloop
  endfacet
  facet normal 0 -0.707107 0.707107
    outer loop
      vertex 87.85 20.5 10.5
      vertex 78.85 12 2
      vertex 87.85 12 2
    endloop
  endfacet
  facet normal 0 0 0
    outer loop
      vertex 78.85 20.5 10.5
      vertex 78.85 20.5607 10.5607
      vertex 78.85 12 2
    endloop
  endfacet
  facet normal -0 0 1
    outer loop
      vertex 78.85 37 25
      vertex 87.85 36.0416 25
      vertex 87.85 37 25
    endloop
  endfacet
  facet normal 0 0 1
    outer loop
      vertex 87.85 36.0416 25
      vertex 78.85 37 25
      vertex 78.85 36.0416 25
    endloop
  endfacet
  facet normal 0 0 0
    outer loop
      vertex 78.85 36.0416 25
      vertex 78.85 37 25
      vertex 78.85 35 25
    endloop
  endfacet
  facet normal 0 0.707106 0.707108
    outer loop
      vertex 9 45.0624 34.0208
      vertex 2 43.6482 35.435
      vertex 9 43.6482 35.435
    endloop
  endfacet
  facet normal 1.55619e-06 0.707107 0.707107
    outer loop
      vertex 2 43.6482 35.435
      vertex 0 45.0624 34.0208
      vertex 2 34.4558 44.6274
    endloop
  endfacet
  facet normal -0 0.707106 0.707108
    outer loop
      vertex 0 45.0624 34.0208
      vertex 2 43.6482 35.435
      vertex 9 45.0624 34.0208
    endloop
  endfacet
  facet normal -0 0.707106 0.707108
    outer loop
      vertex 2 34.4558 44.6274
      vertex 9 33.0416 46.0416
      vertex 9 34.4558 44.6274
    endloop
  endfacet
  facet normal 0 0.707106 0.707108
    outer loop
      vertex 2 34.4558 44.6274
      vertex 0 33.0416 46.0416
      vertex 9 33.0416 46.0416
    endloop
  endfacet
  facet normal -1.19003e-06 0.707107 0.707107
    outer loop
      vertex 0 33.0416 46.0416
      vertex 2 34.4558 44.6274
      vertex 0 45.0624 34.0208
    endloop
  endfacet
  facet normal 1 0 0
    outer loop
      vertex 9 33.0416 46.0416
      vertex 9 13.3033 23.4749
      vertex 9 34.4558 44.6274
    endloop
  endfacet
  facet normal 1 0 -0
    outer loop
      vertex 9 13.3033 23.4749
      vertex 9 33.0416 46.0416
      vertex 9 11.8891 24.8891
    endloop
  endfacet
  facet normal 0 0.707107 -0.707107
    outer loop
      vertex 9 36.0416 25
      vertex 0 45.0624 34.0208
      vertex 9 45.0624 34.0208
    endloop
  endfacet
  facet normal 0 0.707107 -0.707107
    outer loop
      vertex 0 45.0624 34.0208
      vertex 9 36.0416 25
      vertex 0 36.0416 25
    endloop
  endfacet
  facet normal 0 -0.707107 -0.707107
    outer loop
      vertex 0 20.5 10.5
      vertex 9 9 22
      vertex 0 9 22
    endloop
  endfacet
  facet normal 0 -0.707107 -0.707107
    outer loop
      vertex 9 9 22
      vertex 0 20.5 10.5
      vertex 9 20.5 10.5
    endloop
  endfacet
  facet normal 0 -0.707107 0.707107
    outer loop
      vertex 0 11.8891 24.8891
      vertex 9 33.0416 46.0416
      vertex 0 33.0416 46.0416
    endloop
  endfacet
  facet normal 0 -0.707107 0.707107
    outer loop
      vertex 9 33.0416 46.0416
      vertex 0 11.8891 24.8891
      vertex 9 11.8891 24.8891
    endloop
  endfacet
  facet normal 0 -0.707101 0.707112
    outer loop
      vertex 0 9.06066 22.0607
      vertex 9 9 22
      vertex 9 9.06066 22.0607
    endloop
  endfacet
  facet normal 0 -0.707101 0.707112
    outer loop
      vertex 9 9 22
      vertex 0 9.06066 22.0607
      vertex 0 9 22
    endloop
  endfacet
  facet normal 1 0 0
    outer loop
      vertex 2 34.4558 44.6274
      vertex 2 22.4957 14.2825
      vertex 2 43.6482 35.435
    endloop
  endfacet
  facet normal 1 0 -0
    outer loop
      vertex 2 22.4957 14.2825
      vertex 2 34.4558 44.6274
      vertex 2 13.3033 23.4749
    endloop
  endfacet
  facet normal 0 -0.707107 0.707107
    outer loop
      vertex 2 22.4957 14.2825
      vertex 9 43.6482 35.435
      vertex 2 43.6482 35.435
    endloop
  endfacet
  facet normal 0 -0.707107 0.707107
    outer loop
      vertex 9 43.6482 35.435
      vertex 2 22.4957 14.2825
      vertex 9 22.4957 14.2825
    endloop
  endfacet
  facet normal 0 0.707107 -0.707107
    outer loop
      vertex 9 13.3033 23.4749
      vertex 2 34.4558 44.6274
      vertex 9 34.4558 44.6274
    endloop
  endfacet
  facet normal 0 0.707107 -0.707107
    outer loop
      vertex 2 34.4558 44.6274
      vertex 9 13.3033 23.4749
      vertex 2 13.3033 23.4749
    endloop
  endfacet
  facet normal 1 0 0
    outer loop
      vertex 87.85 33.0416 46.0416
      vertex 87.85 21.0208 9.97919
      vertex 87.85 45.0624 34.0208
    endloop
  endfacet
  facet normal 1 0 -0
    outer loop
      vertex 87.85 21.0208 9.97919
      vertex 87.85 33.0416 46.0416
      vertex 87.85 9 22
    endloop
  endfacet
  facet normal -1.19003e-06 0.707107 0.707107
    outer loop
      vertex 87.85 45.0624 34.0208
      vertex 85.85 43.6482 35.435
      vertex 87.85 33.0416 46.0416
    endloop
  endfacet
  facet normal -0 0.707106 0.707108
    outer loop
      vertex 78.85 45.0624 34.0208
      vertex 85.85 43.6482 35.435
      vertex 87.85 45.0624 34.0208
    endloop
  endfacet
  facet normal 0 0.707106 0.707108
    outer loop
      vertex 85.85 43.6482 35.435
      vertex 78.85 45.0624 34.0208
      vertex 78.85 43.6482 35.435
    endloop
  endfacet
  facet normal 1.55619e-06 0.707107 0.707107
    outer loop
      vertex 85.85 34.4558 44.6274
      vertex 87.85 33.0416 46.0416
      vertex 85.85 43.6482 35.435
    endloop
  endfacet
  facet normal 0 0.707106 0.707108
    outer loop
      vertex 78.85 33.0416 46.0416
      vertex 85.85 34.4558 44.6274
      vertex 78.85 34.4558 44.6274
    endloop
  endfacet
  facet normal 0 0.707106 0.707108
    outer loop
      vertex 85.85 34.4558 44.6274
      vertex 78.85 33.0416 46.0416
      vertex 87.85 33.0416 46.0416
    endloop
  endfacet
  facet normal -1 0 0
    outer loop
      vertex 78.85 13.3033 23.4749
      vertex 78.85 33.0416 46.0416
      vertex 78.85 34.4558 44.6274
    endloop
  endfacet
  facet normal -1 0 0
    outer loop
      vertex 78.85 33.0416 46.0416
      vertex 78.85 13.3033 23.4749
      vertex 78.85 11.8891 24.8891
    endloop
  endfacet
  facet normal -1 0 0
    outer loop
      vertex 78.85 36.0416 25
      vertex 78.85 43.6482 35.435
      vertex 78.85 45.0624 34.0208
    endloop
  endfacet
  facet normal -1 0 0
    outer loop
      vertex 78.85 35 25
      vertex 78.85 43.6482 35.435
      vertex 78.85 36.0416 25
    endloop
  endfacet
  facet normal -1 0 0
    outer loop
      vertex 78.85 22.4957 14.2825
      vertex 78.85 35 25
      vertex 78.85 23.3891 13.3891
    endloop
  endfacet
  facet normal -1 -0 0
    outer loop
      vertex 78.85 35 25
      vertex 78.85 22.4957 14.2825
      vertex 78.85 43.6482 35.435
    endloop
  endfacet
  facet normal -1 0 0
    outer loop
      vertex 78.85 20.5 10.5
      vertex 78.85 9.06066 22.0607
      vertex 78.85 20.5607 10.5607
    endloop
  endfacet
  facet normal -1 0 -0
    outer loop
      vertex 78.85 9.06066 22.0607
      vertex 78.85 20.5 10.5
      vertex 78.85 9 22
    endloop
  endfacet
  facet normal 0 0.707107 -0.707107
    outer loop
      vertex 87.85 36.0416 25
      vertex 78.85 45.0624 34.0208
      vertex 87.85 45.0624 34.0208
    endloop
  endfacet
  facet normal 0 0.707107 -0.707107
    outer loop
      vertex 78.85 45.0624 34.0208
      vertex 87.85 36.0416 25
      vertex 78.85 36.0416 25
    endloop
  endfacet
  facet normal 0 0 0
    outer loop
      vertex 87.85 36.0416 25
      vertex 87.85 45.0624 34.0208
      vertex 87.85 21.0208 9.97919
    endloop
  endfacet
  facet normal 0 -0.707107 -0.707107
    outer loop
      vertex 78.85 20.5 10.5
      vertex 87.85 9 22
      vertex 78.85 9 22
    endloop
  endfacet
  facet normal 0 -0.707107 -0.707107
    outer loop
      vertex 87.85 9 22
      vertex 78.85 20.5 10.5
      vertex 87.85 20.5 10.5
    endloop
  endfacet
  facet normal 0 0 0
    outer loop
      vertex 87.85 9 22
      vertex 87.85 20.5 10.5
      vertex 87.85 21.0208 9.97919
    endloop
  endfacet
  facet normal 0 -0.707101 0.707112
    outer loop
      vertex 78.85 9 22
      vertex 87.85 9.06066 22.0607
      vertex 78.85 9.06066 22.0607
    endloop
  endfacet
  facet normal 0 -0.707101 0.707112
    outer loop
      vertex 87.85 9.06066 22.0607
      vertex 78.85 9 22
      vertex 87.85 9 22
    endloop
  endfacet
  facet normal 0 -0.707107 0.707107
    outer loop
      vertex 78.85 11.8891 24.8891
      vertex 87.85 33.0416 46.0416
      vertex 78.85 33.0416 46.0416
    endloop
  endfacet
  facet normal 0 -0.707107 0.707107
    outer loop
      vertex 87.85 33.0416 46.0416
      vertex 78.85 11.8891 24.8891
      vertex 87.85 11.8891 24.8891
    endloop
  endfacet
  facet normal -1 -0 0
    outer loop
      vertex 87.85 9.06066 22.0607
      vertex 87.85 9 22
      vertex 87.85 33.0416 46.0416
    endloop
  endfacet
  facet normal 1 0 0
    outer loop
      vertex 87.85 9.06066 22.0607
      vertex 87.85 33.0416 46.0416
      vertex 87.85 11.8891 24.8891
    endloop
  endfacet
  facet normal -1 0 0
    outer loop
      vertex 85.85 22.4957 14.2825
      vertex 85.85 34.4558 44.6274
      vertex 85.85 43.6482 35.435
    endloop
  endfacet
  facet normal -1 0 0
    outer loop
      vertex 85.85 34.4558 44.6274
      vertex 85.85 22.4957 14.2825
      vertex 85.85 13.3033 23.4749
    endloop
  endfacet
  facet normal 0 -0.707107 0.707107
    outer loop
      vertex 78.85 22.4957 14.2825
      vertex 85.85 43.6482 35.435
      vertex 78.85 43.6482 35.435
    endloop
  endfacet
  facet normal 0 -0.707107 0.707107
    outer loop
      vertex 85.85 43.6482 35.435
      vertex 78.85 22.4957 14.2825
      vertex 85.85 22.4957 14.2825
    endloop
  endfacet
  facet normal 0 0.707107 -0.707107
    outer loop
      vertex 85.85 13.3033 23.4749
      vertex 78.85 34.4558 44.6274
      vertex 85.85 34.4558 44.6274
    endloop
  endfacet
  facet normal 0 0.707107 -0.707107
    outer loop
      vertex 78.85 34.4558 44.6274
      vertex 85.85 13.3033 23.4749
      vertex 78.85 13.3033 23.4749
    endloop
  endfacet
  facet normal 0 -0.707107 0.707107
    outer loop
      vertex 0 9.03985 22.0815
      vertex 87.85 11.8683 24.9099
      vertex 0 11.8683 24.9099
    endloop
  endfacet
  facet normal 0 -0.707107 0.707107
    outer loop
      vertex 87.85 11.8683 24.9099
      vertex 0 9.03985 22.0815
      vertex 87.85 9.03985 22.0815
    endloop
  endfacet
  facet normal 1 0 0
    outer loop
      vertex 87.85 11.8683 24.9099
      vertex 87.85 9.06066 22.0607
      vertex 87.85 11.8891 24.8891
    endloop
  endfacet
  facet normal 1 0 -0
    outer loop
      vertex 87.85 9.06066 22.0607
      vertex 87.85 11.8683 24.9099
      vertex 87.85 9.03985 22.0815
    endloop
  endfacet
  facet normal 0 -0.707107 -0.707107
    outer loop
      vertex 9 9.06066 22.0607
      vertex 38.075 13.6064 17.5149
      vertex 78.85 9.06066 22.0607
    endloop
  endfacet
  facet normal -1.44074e-08 -0.707107 -0.707107
    outer loop
      vertex 9 21.0607 10.0607
      vertex 38.075 13.6064 17.5149
      vertex 9 9.06066 22.0607
    endloop
  endfacet
  facet normal 0 -0.707107 -0.707107
    outer loop
      vertex 78.85 21.0607 10.0607
      vertex 49.775 20.5149 10.6064
      vertex 38.075 20.5149 10.6064
    endloop
  endfacet
  facet normal 0 -0.707107 -0.707107
    outer loop
      vertex 38.075 13.6064 17.5149
      vertex 9 21.0607 10.0607
      vertex 38.075 20.5149 10.6064
    endloop
  endfacet
  facet normal -0 -0.707107 -0.707107
    outer loop
      vertex 78.85 21.0607 10.0607
      vertex 38.075 20.5149 10.6064
      vertex 9 21.0607 10.0607
    endloop
  endfacet
  facet normal 0 -0.707107 -0.707107
    outer loop
      vertex 49.775 20.5149 10.6064
      vertex 78.85 21.0607 10.0607
      vertex 78.85 20.5607 10.5607
    endloop
  endfacet
  facet normal -0 -0.707107 -0.707107
    outer loop
      vertex 9 9.06066 22.0607
      vertex 0 9.03985 22.0815
      vertex 0 9.06066 22.0607
    endloop
  endfacet
  facet normal 0 -0.707107 -0.707107
    outer loop
      vertex 0 9.03985 22.0815
      vertex 9 9.06066 22.0607
      vertex 87.85 9.03985 22.0815
    endloop
  endfacet
  facet normal -0 -0.707107 -0.707107
    outer loop
      vertex 78.85 9.06066 22.0607
      vertex 87.85 9.03985 22.0815
      vertex 9 9.06066 22.0607
    endloop
  endfacet
  facet normal 0 -0.707107 -0.707107
    outer loop
      vertex 87.85 9.03985 22.0815
      vertex 78.85 9.06066 22.0607
      vertex 87.85 9.06066 22.0607
    endloop
  endfacet
  facet normal -0 -0.707107 -0.707107
    outer loop
      vertex 49.775 13.6064 17.5149
      vertex 78.85 9.06066 22.0607
      vertex 38.075 13.6064 17.5149
    endloop
  endfacet
  facet normal 0 -0.707107 -0.707107
    outer loop
      vertex 78.85 20.5607 10.5607
      vertex 49.775 13.6064 17.5149
      vertex 49.775 20.5149 10.6064
    endloop
  endfacet
  facet normal 1.40254e-08 -0.707107 -0.707107
    outer loop
      vertex 49.775 13.6064 17.5149
      vertex 78.85 20.5607 10.5607
      vertex 78.85 9.06066 22.0607
    endloop
  endfacet
  facet normal -2.84567e-09 0.707107 0.707107
    outer loop
      vertex 38.075 23.3433 13.4349
      vertex 9 22.4957 14.2825
      vertex 38.075 16.4349 20.3433
    endloop
  endfacet
  facet normal 0 0.707107 0.707107
    outer loop
      vertex 49.775 23.3433 13.4349
      vertex 78.85 23.8891 12.8891
      vertex 38.075 23.3433 13.4349
    endloop
  endfacet
  facet normal 0 0.707107 0.707107
    outer loop
      vertex 38.075 23.3433 13.4349
      vertex 9 23.8891 12.8891
      vertex 9 22.4957 14.2825
    endloop
  endfacet
  facet normal -0 0.707107 0.707107
    outer loop
      vertex 9 23.8891 12.8891
      vertex 38.075 23.3433 13.4349
      vertex 78.85 23.8891 12.8891
    endloop
  endfacet
  facet normal 0 0.707107 0.707107
    outer loop
      vertex 78.85 22.4957 14.2825
      vertex 78.85 13.3033 23.4749
      vertex 85.85 13.3033 23.4749
    endloop
  endfacet
  facet normal 0 0.707107 0.707107
    outer loop
      vertex 78.85 13.3033 23.4749
      vertex 49.775 16.4349 20.3433
      vertex 9 13.3033 23.4749
    endloop
  endfacet
  facet normal -0 0.707107 0.707107
    outer loop
      vertex 38.075 16.4349 20.3433
      vertex 9 13.3033 23.4749
      vertex 49.775 16.4349 20.3433
    endloop
  endfacet
  facet normal -0 0.707107 0.707107
    outer loop
      vertex 78.85 22.4957 14.2825
      vertex 85.85 13.3033 23.4749
      vertex 85.85 22.4957 14.2825
    endloop
  endfacet
  facet normal 7.90131e-09 0.707107 0.707107
    outer loop
      vertex 78.85 13.3033 23.4749
      vertex 78.85 22.4957 14.2825
      vertex 49.775 16.4349 20.3433
    endloop
  endfacet
  facet normal 2.84567e-09 0.707107 0.707107
    outer loop
      vertex 78.85 22.4957 14.2825
      vertex 49.775 23.3433 13.4349
      vertex 49.775 16.4349 20.3433
    endloop
  endfacet
  facet normal 0 0.707107 0.707107
    outer loop
      vertex 78.85 23.8891 12.8891
      vertex 49.775 23.3433 13.4349
      vertex 78.85 23.3891 13.3891
    endloop
  endfacet
  facet normal 0 0.707107 0.707107
    outer loop
      vertex 78.85 23.3891 13.3891
      vertex 49.775 23.3433 13.4349
      vertex 78.85 22.4957 14.2825
    endloop
  endfacet
  facet normal 0 0.707107 0.707107
    outer loop
      vertex 78.85 13.3033 23.4749
      vertex 9 11.8891 24.8891
      vertex 78.85 11.8891 24.8891
    endloop
  endfacet
  facet normal 0 0.707107 0.707107
    outer loop
      vertex 9 11.8891 24.8891
      vertex 78.85 13.3033 23.4749
      vertex 9 13.3033 23.4749
    endloop
  endfacet
  facet normal -0 0.707107 0.707107
    outer loop
      vertex 78.85 11.8891 24.8891
      vertex 87.85 11.8683 24.9099
      vertex 87.85 11.8891 24.8891
    endloop
  endfacet
  facet normal 0 0.707107 0.707107
    outer loop
      vertex 87.85 11.8683 24.9099
      vertex 78.85 11.8891 24.8891
      vertex 0 11.8683 24.9099
    endloop
  endfacet
  facet normal -0 0.707107 0.707107
    outer loop
      vertex 9 11.8891 24.8891
      vertex 0 11.8683 24.9099
      vertex 78.85 11.8891 24.8891
    endloop
  endfacet
  facet normal 0 0.707107 0.707107
    outer loop
      vertex 0 11.8683 24.9099
      vertex 9 11.8891 24.8891
      vertex 0 11.8891 24.8891
    endloop
  endfacet
  facet normal -7.90131e-09 0.707107 0.707107
    outer loop
      vertex 9 22.4957 14.2825
      vertex 9 13.3033 23.4749
      vertex 38.075 16.4349 20.3433
    endloop
  endfacet
  facet normal 0 0.707107 0.707107
    outer loop
      vertex 9 13.3033 23.4749
      vertex 9 22.4957 14.2825
      vertex 2 13.3033 23.4749
    endloop
  endfacet
  facet normal 0 0.707107 0.707107
    outer loop
      vertex 2 13.3033 23.4749
      vertex 9 22.4957 14.2825
      vertex 2 22.4957 14.2825
    endloop
  endfacet
  facet normal 0 0.707107 -0.707107
    outer loop
      vertex 9 21.0607 10.0607
      vertex 78.85 23.8891 12.8891
      vertex 78.85 21.0607 10.0607
    endloop
  endfacet
  facet normal 0 0.707107 -0.707107
    outer loop
      vertex 78.85 23.8891 12.8891
      vertex 9 21.0607 10.0607
      vertex 9 23.8891 12.8891
    endloop
  endfacet
  facet normal 1 0 0
    outer loop
      vertex 38.075 16.4349 20.3433
      vertex 38.075 20.5149 10.6064
      vertex 38.075 23.3433 13.4349
    endloop
  endfacet
  facet normal 1 0 0
    outer loop
      vertex 38.075 20.5149 10.6064
      vertex 38.075 16.4349 20.3433
      vertex 38.075 13.6064 17.5149
    endloop
  endfacet
  facet normal 0 0.707107 -0.707107
    outer loop
      vertex 49.775 13.6064 17.5149
      vertex 38.075 16.4349 20.3433
      vertex 49.775 16.4349 20.3433
    endloop
  endfacet
  facet normal 0 0.707107 -0.707107
    outer loop
      vertex 38.075 16.4349 20.3433
      vertex 49.775 13.6064 17.5149
      vertex 38.075 13.6064 17.5149
    endloop
  endfacet
  facet normal -1 0 0
    outer loop
      vertex 49.775 20.5149 10.6064
      vertex 49.775 16.4349 20.3433
      vertex 49.775 23.3433 13.4349
    endloop
  endfacet
  facet normal -1 0 -0
    outer loop
      vertex 49.775 16.4349 20.3433
      vertex 49.775 20.5149 10.6064
      vertex 49.775 13.6064 17.5149
    endloop
  endfacet
  facet normal 0 -0.707107 0.707107
    outer loop
      vertex 38.075 23.3433 13.4349
      vertex 49.775 20.5149 10.6064
      vertex 49.775 23.3433 13.4349
    endloop
  endfacet
  facet normal 0 -0.707107 0.707107
    outer loop
      vertex 49.775 20.5149 10.6064
      vertex 38.075 23.3433 13.4349
      vertex 38.075 20.5149 10.6064
    endloop
  endfacet
endsolid OpenSCAD_Model
