solid OpenSCAD_Model
  facet normal -1 0 0
    outer loop
      vertex 0 60 0
      vertex 0 39 2
      vertex 0 60 2
    endloop
  endfacet
  facet normal -1 0 0
    outer loop
      vertex 0 39 2
      vertex 0 37.0416 25
      vertex 0 39 25
    endloop
  endfacet
  facet normal -1 0 0
    outer loop
      vertex 0 21 9
      vertex 0 37.0416 25
      vertex 0 39 2
    endloop
  endfacet
  facet normal -1 0 0
    outer loop
      vertex 0 11.8891 23.8891
      vertex 0 37.0416 25
      vertex 0 21 9
    endloop
  endfacet
  facet normal -1 0 0
    outer loop
      vertex 0 39 2
      vertex 0 14 2
      vertex 0 21 9
    endloop
  endfacet
  facet normal -1 0 0
    outer loop
      vertex 0 0 0
      vertex 0 39 2
      vertex 0 60 0
    endloop
  endfacet
  facet normal -1 -0 0
    outer loop
      vertex 0 39 2
      vertex 0 0 0
      vertex 0 14 2
    endloop
  endfacet
  facet normal -1 -0 0
    outer loop
      vertex 0 14 2
      vertex 0 0 0
      vertex 0 0 2
    endloop
  endfacet
  facet normal -1 -0 0
    outer loop
      vertex 0 45.0624 33.0208
      vertex 0 37.0416 25
      vertex 0 33.0416 45.0416
    endloop
  endfacet
  facet normal -1 -0 0
    outer loop
      vertex 0 37.0416 25
      vertex 0 11.8891 23.8891
      vertex 0 33.0416 45.0416
    endloop
  endfacet
  facet normal -1 0 0
    outer loop
      vertex 0 9.06066 21.0607
      vertex 0 11.8891 23.8891
      vertex 0 21 9
    endloop
  endfacet
  facet normal -1 -0 0
    outer loop
      vertex 0 11.8891 23.8891
      vertex 0 9.06066 21.0607
      vertex 0 11.8683 23.9099
    endloop
  endfacet
  facet normal -1 0 -0
    outer loop
      vertex 0 9.06066 21.0607
      vertex 0 21 9
      vertex 0 9 21
    endloop
  endfacet
  facet normal -1 0 0
    outer loop
      vertex 0 11.8683 23.9099
      vertex 0 9.06066 21.0607
      vertex 0 9.03985 21.0815
    endloop
  endfacet
  facet normal 0 0 1
    outer loop
      vertex 9 14 2
      vertex 0 14 2
      vertex 9 10 2
    endloop
  endfacet
  facet normal 0 0 1
    outer loop
      vertex 78.85 10 2
      vertex 39.925 6.25 2
      vertex 51.725 6.25 2
    endloop
  endfacet
  facet normal 0 0 1
    outer loop
      vertex 39.925 6.25 2
      vertex 9 10 2
      vertex 39.925 4.40507 2
    endloop
  endfacet
  facet normal -0 0 1
    outer loop
      vertex 9 10 2
      vertex 39.925 6.25 2
      vertex 78.85 10 2
    endloop
  endfacet
  facet normal 0 0 1
    outer loop
      vertex 78.85 10 2
      vertex 87.85 14 2
      vertex 78.85 14 2
    endloop
  endfacet
  facet normal 0 0 1
    outer loop
      vertex 87.85 14 2
      vertex 78.85 10 2
      vertex 87.85 0 2
    endloop
  endfacet
  facet normal 0 0 1
    outer loop
      vertex 51.725 4.40507 2
      vertex 78.85 10 2
      vertex 51.725 6.25 2
    endloop
  endfacet
  facet normal 0 0 1
    outer loop
      vertex 78.85 10 2
      vertex 51.725 4.40507 2
      vertex 87.85 0 2
    endloop
  endfacet
  facet normal -0 0 1
    outer loop
      vertex 39.925 4.40507 2
      vertex 87.85 0 2
      vertex 51.725 4.40507 2
    endloop
  endfacet
  facet normal 0 0 1
    outer loop
      vertex 39.925 4.40507 2
      vertex 0 0 2
      vertex 87.85 0 2
    endloop
  endfacet
  facet normal 0 0 1
    outer loop
      vertex 9 10 2
      vertex 0 0 2
      vertex 39.925 4.40507 2
    endloop
  endfacet
  facet normal 0 0 1
    outer loop
      vertex 0 0 2
      vertex 9 10 2
      vertex 0 14 2
    endloop
  endfacet
  facet normal 0 0 1
    outer loop
      vertex 87.85 60 2
      vertex 78.85 50 2
      vertex 87.85 39 2
    endloop
  endfacet
  facet normal 0 0 1
    outer loop
      vertex 87.85 60 2
      vertex 9 50 2
      vertex 78.85 50 2
    endloop
  endfacet
  facet normal -0 0 1
    outer loop
      vertex 0 60 2
      vertex 9 50 2
      vertex 87.85 60 2
    endloop
  endfacet
  facet normal 0 0 1
    outer loop
      vertex 0 39 2
      vertex 9 50 2
      vertex 0 60 2
    endloop
  endfacet
  facet normal 0 0 1
    outer loop
      vertex 9 50 2
      vertex 0 39 2
      vertex 9 39 2
    endloop
  endfacet
  facet normal 0 0 1
    outer loop
      vertex 87.85 39 2
      vertex 78.85 50 2
      vertex 78.85 39 2
    endloop
  endfacet
  facet normal 1 0 0
    outer loop
      vertex 87.85 39 25
      vertex 87.85 37.0416 25
      vertex 87.85 39 2
    endloop
  endfacet
  facet normal 1 -0 0
    outer loop
      vertex 87.85 39 2
      vertex 87.85 60 0
      vertex 87.85 60 2
    endloop
  endfacet
  facet normal 1 -0 0
    outer loop
      vertex 87.85 21.0208 8.97919
      vertex 87.85 39 2
      vertex 87.85 37.0416 25
    endloop
  endfacet
  facet normal 1 0 0
    outer loop
      vertex 87.85 14 2
      vertex 87.85 21.0208 8.97919
      vertex 87.85 21 9
    endloop
  endfacet
  facet normal 1 0 0
    outer loop
      vertex 87.85 14 2
      vertex 87.85 39 2
      vertex 87.85 21.0208 8.97919
    endloop
  endfacet
  facet normal 1 0 0
    outer loop
      vertex 87.85 0 0
      vertex 87.85 39 2
      vertex 87.85 14 2
    endloop
  endfacet
  facet normal 1 0 0
    outer loop
      vertex 87.85 0 0
      vertex 87.85 14 2
      vertex 87.85 0 2
    endloop
  endfacet
  facet normal 1 0 0
    outer loop
      vertex 87.85 39 2
      vertex 87.85 0 0
      vertex 87.85 60 0
    endloop
  endfacet
  facet normal 0 0 -1
    outer loop
      vertex 78.85 14 0
      vertex 87.85 0 0
      vertex 78.85 10 0
    endloop
  endfacet
  facet normal 0 0 -1
    outer loop
      vertex 87.85 0 0
      vertex 9 10 0
      vertex 78.85 10 0
    endloop
  endfacet
  facet normal 0 0 -1
    outer loop
      vertex 0 0 0
      vertex 9 14 0
      vertex 9 10 0
    endloop
  endfacet
  facet normal -0 0 -1
    outer loop
      vertex 9 14 0
      vertex 0 0 0
      vertex 9 39 0
    endloop
  endfacet
  facet normal 0 0 -1
    outer loop
      vertex 0 60 0
      vertex 9 39 0
      vertex 0 0 0
    endloop
  endfacet
  facet normal 0 0 -1
    outer loop
      vertex 0 0 0
      vertex 9 10 0
      vertex 87.85 0 0
    endloop
  endfacet
  facet normal 0 0 -1
    outer loop
      vertex 78.85 39 0
      vertex 87.85 0 0
      vertex 78.85 14 0
    endloop
  endfacet
  facet normal 0 0 -1
    outer loop
      vertex 87.85 0 0
      vertex 78.85 39 0
      vertex 87.85 60 0
    endloop
  endfacet
  facet normal 0 0 -1
    outer loop
      vertex 78.85 50 0
      vertex 87.85 60 0
      vertex 78.85 39 0
    endloop
  endfacet
  facet normal 0 0 -1
    outer loop
      vertex 9 50 0
      vertex 87.85 60 0
      vertex 78.85 50 0
    endloop
  endfacet
  facet normal 0 0 -1
    outer loop
      vertex 9 50 0
      vertex 0 60 0
      vertex 87.85 60 0
    endloop
  endfacet
  facet normal 0 0 -1
    outer loop
      vertex 9 39 0
      vertex 0 60 0
      vertex 9 50 0
    endloop
  endfacet
  facet normal 0 -1 0
    outer loop
      vertex 0 0 0
      vertex 87.85 0 2
      vertex 0 0 2
    endloop
  endfacet
  facet normal 0 -1 -0
    outer loop
      vertex 87.85 0 2
      vertex 0 0 0
      vertex 87.85 0 0
    endloop
  endfacet
  facet normal 0 1 -0
    outer loop
      vertex 87.85 60 0
      vertex 0 60 2
      vertex 87.85 60 2
    endloop
  endfacet
  facet normal 0 1 0
    outer loop
      vertex 0 60 2
      vertex 87.85 60 0
      vertex 0 60 0
    endloop
  endfacet
  facet normal 1 -0 0
    outer loop
      vertex 9 10 2
      vertex 9 14 0
      vertex 9 14 2
    endloop
  endfacet
  facet normal 1 0 0
    outer loop
      vertex 9 14 0
      vertex 9 10 2
      vertex 9 10 0
    endloop
  endfacet
  facet normal 1 0 0
    outer loop
      vertex 9 9.06066 21.0607
      vertex 9 21 9
      vertex 9 21.0607 9.06066
    endloop
  endfacet
  facet normal 1 0 0
    outer loop
      vertex 9 21 9
      vertex 9 9.06066 21.0607
      vertex 9 9 21
    endloop
  endfacet
  facet normal 1 0 0
    outer loop
      vertex 9 43.6482 34.435
      vertex 9 37.0416 25
      vertex 9 45.0624 33.0208
    endloop
  endfacet
  facet normal 1 0 0
    outer loop
      vertex 9 22.4957 13.2825
      vertex 9 37.0416 25
      vertex 9 43.6482 34.435
    endloop
  endfacet
  facet normal 1 0 0
    outer loop
      vertex 9 37.0416 25
      vertex 9 22.4957 13.2825
      vertex 9 23.8891 11.8891
    endloop
  endfacet
  facet normal 1 -0 0
    outer loop
      vertex 9 37.0416 25
      vertex 9 39 2
      vertex 9 39 25
    endloop
  endfacet
  facet normal 1 -0 0
    outer loop
      vertex 9 23.8891 11.8891
      vertex 9 39 2
      vertex 9 37.0416 25
    endloop
  endfacet
  facet normal 1 -0 0
    outer loop
      vertex 9 21.0607 9.06066
      vertex 9 39 2
      vertex 9 23.8891 11.8891
    endloop
  endfacet
  facet normal 1 -0 0
    outer loop
      vertex 9 21 9
      vertex 9 39 2
      vertex 9 21.0607 9.06066
    endloop
  endfacet
  facet normal 1 0 0
    outer loop
      vertex 9 39 2
      vertex 9 21 9
      vertex 9 39 0
    endloop
  endfacet
  facet normal 1 0 0
    outer loop
      vertex 9 14 0
      vertex 9 21 9
      vertex 9 14 2
    endloop
  endfacet
  facet normal 1 0 0
    outer loop
      vertex 9 21 9
      vertex 9 14 0
      vertex 9 39 0
    endloop
  endfacet
  facet normal 1 -0 0
    outer loop
      vertex 9 39 2
      vertex 9 50 0
      vertex 9 50 2
    endloop
  endfacet
  facet normal 1 0 0
    outer loop
      vertex 9 50 0
      vertex 9 39 2
      vertex 9 39 0
    endloop
  endfacet
  facet normal -1 0 0
    outer loop
      vertex 78.85 10 0
      vertex 78.85 14 2
      vertex 78.85 14 0
    endloop
  endfacet
  facet normal -1 -0 0
    outer loop
      vertex 78.85 14 2
      vertex 78.85 10 0
      vertex 78.85 10 2
    endloop
  endfacet
  facet normal -1 0 0
    outer loop
      vertex 78.85 21.0607 9.06066
      vertex 78.85 39 2
      vertex 78.85 39 0
    endloop
  endfacet
  facet normal -1 0 0
    outer loop
      vertex 78.85 39 2
      vertex 78.85 37 25
      vertex 78.85 39 25
    endloop
  endfacet
  facet normal -1 0 0
    outer loop
      vertex 78.85 39 2
      vertex 78.85 23.8891 11.8891
      vertex 78.85 37 25
    endloop
  endfacet
  facet normal -1 0 0
    outer loop
      vertex 78.85 39 2
      vertex 78.85 21.0607 9.06066
      vertex 78.85 23.8891 11.8891
    endloop
  endfacet
  facet normal -1 0 0
    outer loop
      vertex 78.85 14 0
      vertex 78.85 21.0607 9.06066
      vertex 78.85 39 0
    endloop
  endfacet
  facet normal -1 0 0
    outer loop
      vertex 78.85 21.0607 9.06066
      vertex 78.85 14 0
      vertex 78.85 14 2
    endloop
  endfacet
  facet normal -1 0 0
    outer loop
      vertex 78.85 39 0
      vertex 78.85 50 2
      vertex 78.85 50 0
    endloop
  endfacet
  facet normal -1 -0 0
    outer loop
      vertex 78.85 50 2
      vertex 78.85 39 0
      vertex 78.85 39 2
    endloop
  endfacet
  facet normal 0 1 -0
    outer loop
      vertex 78.85 10 0
      vertex 9 10 2
      vertex 78.85 10 2
    endloop
  endfacet
  facet normal 0 1 0
    outer loop
      vertex 9 10 2
      vertex 78.85 10 0
      vertex 9 10 0
    endloop
  endfacet
  facet normal 0 -1 0
    outer loop
      vertex 9 50 0
      vertex 78.85 50 2
      vertex 9 50 2
    endloop
  endfacet
  facet normal 0 -1 -0
    outer loop
      vertex 78.85 50 2
      vertex 9 50 0
      vertex 78.85 50 0
    endloop
  endfacet
  facet normal 0 1 -0
    outer loop
      vertex 9 39 2
      vertex 0 39 25
      vertex 9 39 25
    endloop
  endfacet
  facet normal 0 1 0
    outer loop
      vertex 0 39 25
      vertex 9 39 2
      vertex 0 39 2
    endloop
  endfacet
  facet normal 0 -0.707107 0.707107
    outer loop
      vertex 0 14 2
      vertex 9 21 9
      vertex 0 21 9
    endloop
  endfacet
  facet normal 0 -0.707107 0.707107
    outer loop
      vertex 9 21 9
      vertex 0 14 2
      vertex 9 14 2
    endloop
  endfacet
  facet normal -0 0 1
    outer loop
      vertex 0 39 25
      vertex 9 37.0416 25
      vertex 9 39 25
    endloop
  endfacet
  facet normal 0 0 1
    outer loop
      vertex 9 37.0416 25
      vertex 0 39 25
      vertex 0 37.0416 25
    endloop
  endfacet
  facet normal 0 1 -0
    outer loop
      vertex 87.85 39 2
      vertex 78.85 39 25
      vertex 87.85 39 25
    endloop
  endfacet
  facet normal 0 1 0
    outer loop
      vertex 78.85 39 25
      vertex 87.85 39 2
      vertex 78.85 39 2
    endloop
  endfacet
  facet normal 0 -0.707107 0.707107
    outer loop
      vertex 78.85 14 2
      vertex 87.85 21 9
      vertex 78.85 21 9
    endloop
  endfacet
  facet normal 0 -0.707107 0.707107
    outer loop
      vertex 87.85 21 9
      vertex 78.85 14 2
      vertex 87.85 14 2
    endloop
  endfacet
  facet normal 0 0 0
    outer loop
      vertex 78.85 21 9
      vertex 78.85 21.0607 9.06066
      vertex 78.85 14 2
    endloop
  endfacet
  facet normal 0 0.707107 -0.707107
    outer loop
      vertex 9 21.0607 9.06066
      vertex 78.85 23.8891 11.8891
      vertex 78.85 21.0607 9.06066
    endloop
  endfacet
  facet normal 0 0.707107 -0.707107
    outer loop
      vertex 78.85 23.8891 11.8891
      vertex 9 21.0607 9.06066
      vertex 9 23.8891 11.8891
    endloop
  endfacet
  facet normal -0 0 1
    outer loop
      vertex 78.85 39 25
      vertex 87.85 37.0416 25
      vertex 87.85 39 25
    endloop
  endfacet
  facet normal 0 0 1
    outer loop
      vertex 87.85 37.0416 25
      vertex 78.85 39 25
      vertex 78.85 37.0416 25
    endloop
  endfacet
  facet normal 0 0 0
    outer loop
      vertex 78.85 37.0416 25
      vertex 78.85 39 25
      vertex 78.85 37 25
    endloop
  endfacet
  facet normal 0 0.707106 0.707108
    outer loop
      vertex 9 45.0624 33.0208
      vertex 2 43.6482 34.435
      vertex 9 43.6482 34.435
    endloop
  endfacet
  facet normal 1.55619e-06 0.707107 0.707107
    outer loop
      vertex 2 43.6482 34.435
      vertex 0 45.0624 33.0208
      vertex 2 34.4558 43.6274
    endloop
  endfacet
  facet normal -0 0.707106 0.707108
    outer loop
      vertex 0 45.0624 33.0208
      vertex 2 43.6482 34.435
      vertex 9 45.0624 33.0208
    endloop
  endfacet
  facet normal -0 0.707106 0.707108
    outer loop
      vertex 2 34.4558 43.6274
      vertex 9 33.0416 45.0416
      vertex 9 34.4558 43.6274
    endloop
  endfacet
  facet normal 0 0.707106 0.707108
    outer loop
      vertex 2 34.4558 43.6274
      vertex 0 33.0416 45.0416
      vertex 9 33.0416 45.0416
    endloop
  endfacet
  facet normal -1.19003e-06 0.707107 0.707107
    outer loop
      vertex 0 33.0416 45.0416
      vertex 2 34.4558 43.6274
      vertex 0 45.0624 33.0208
    endloop
  endfacet
  facet normal 1 0 0
    outer loop
      vertex 9 33.0416 45.0416
      vertex 9 13.3033 22.4749
      vertex 9 34.4558 43.6274
    endloop
  endfacet
  facet normal 1 0 -0
    outer loop
      vertex 9 13.3033 22.4749
      vertex 9 33.0416 45.0416
      vertex 9 11.8891 23.8891
    endloop
  endfacet
  facet normal 0 -0.707107 -0.707107
    outer loop
      vertex 0 21 9
      vertex 9 9 21
      vertex 0 9 21
    endloop
  endfacet
  facet normal 0 -0.707107 -0.707107
    outer loop
      vertex 9 9 21
      vertex 0 21 9
      vertex 9 21 9
    endloop
  endfacet
  facet normal 0 -0.707107 0.707107
    outer loop
      vertex 0 11.8891 23.8891
      vertex 9 33.0416 45.0416
      vertex 0 33.0416 45.0416
    endloop
  endfacet
  facet normal 0 -0.707107 0.707107
    outer loop
      vertex 9 33.0416 45.0416
      vertex 0 11.8891 23.8891
      vertex 9 11.8891 23.8891
    endloop
  endfacet
  facet normal 0 -0.707101 0.707112
    outer loop
      vertex 0 9.06066 21.0607
      vertex 9 9 21
      vertex 9 9.06066 21.0607
    endloop
  endfacet
  facet normal 0 -0.707101 0.707112
    outer loop
      vertex 9 9 21
      vertex 0 9.06066 21.0607
      vertex 0 9 21
    endloop
  endfacet
  facet normal 0 0.707107 -0.707107
    outer loop
      vertex 9 37.0416 25
      vertex 0 45.0624 33.0208
      vertex 9 45.0624 33.0208
    endloop
  endfacet
  facet normal 0 0.707107 -0.707107
    outer loop
      vertex 0 45.0624 33.0208
      vertex 9 37.0416 25
      vertex 0 37.0416 25
    endloop
  endfacet
  facet normal 1 0 0
    outer loop
      vertex 2 34.4558 43.6274
      vertex 2 22.4957 13.2825
      vertex 2 43.6482 34.435
    endloop
  endfacet
  facet normal 1 0 -0
    outer loop
      vertex 2 22.4957 13.2825
      vertex 2 34.4558 43.6274
      vertex 2 13.3033 22.4749
    endloop
  endfacet
  facet normal 0 -0.707107 0.707107
    outer loop
      vertex 2 22.4957 13.2825
      vertex 9 43.6482 34.435
      vertex 2 43.6482 34.435
    endloop
  endfacet
  facet normal 0 -0.707107 0.707107
    outer loop
      vertex 9 43.6482 34.435
      vertex 2 22.4957 13.2825
      vertex 9 22.4957 13.2825
    endloop
  endfacet
  facet normal 0 0.707107 -0.707107
    outer loop
      vertex 9 13.3033 22.4749
      vertex 2 34.4558 43.6274
      vertex 9 34.4558 43.6274
    endloop
  endfacet
  facet normal 0 0.707107 -0.707107
    outer loop
      vertex 2 34.4558 43.6274
      vertex 9 13.3033 22.4749
      vertex 2 13.3033 22.4749
    endloop
  endfacet
  facet normal 1 0 0
    outer loop
      vertex 87.85 33.0416 45.0416
      vertex 87.85 21.0208 8.97919
      vertex 87.85 45.0624 33.0208
    endloop
  endfacet
  facet normal 1 0 -0
    outer loop
      vertex 87.85 21.0208 8.97919
      vertex 87.85 33.0416 45.0416
      vertex 87.85 9 21
    endloop
  endfacet
  facet normal -1.19003e-06 0.707107 0.707107
    outer loop
      vertex 87.85 45.0624 33.0208
      vertex 85.85 43.6482 34.435
      vertex 87.85 33.0416 45.0416
    endloop
  endfacet
  facet normal -0 0.707106 0.707108
    outer loop
      vertex 78.85 45.0624 33.0208
      vertex 85.85 43.6482 34.435
      vertex 87.85 45.0624 33.0208
    endloop
  endfacet
  facet normal 0 0.707106 0.707108
    outer loop
      vertex 85.85 43.6482 34.435
      vertex 78.85 45.0624 33.0208
      vertex 78.85 43.6482 34.435
    endloop
  endfacet
  facet normal 1.55619e-06 0.707107 0.707107
    outer loop
      vertex 85.85 34.4558 43.6274
      vertex 87.85 33.0416 45.0416
      vertex 85.85 43.6482 34.435
    endloop
  endfacet
  facet normal 0 0.707106 0.707108
    outer loop
      vertex 78.85 33.0416 45.0416
      vertex 85.85 34.4558 43.6274
      vertex 78.85 34.4558 43.6274
    endloop
  endfacet
  facet normal 0 0.707106 0.707108
    outer loop
      vertex 85.85 34.4558 43.6274
      vertex 78.85 33.0416 45.0416
      vertex 87.85 33.0416 45.0416
    endloop
  endfacet
  facet normal -1 0 0
    outer loop
      vertex 78.85 13.3033 22.4749
      vertex 78.85 33.0416 45.0416
      vertex 78.85 34.4558 43.6274
    endloop
  endfacet
  facet normal -1 0 0
    outer loop
      vertex 78.85 33.0416 45.0416
      vertex 78.85 13.3033 22.4749
      vertex 78.85 11.8891 23.8891
    endloop
  endfacet
  facet normal -1 0 0
    outer loop
      vertex 78.85 37.0416 25
      vertex 78.85 43.6482 34.435
      vertex 78.85 45.0624 33.0208
    endloop
  endfacet
  facet normal -1 0 0
    outer loop
      vertex 78.85 37 25
      vertex 78.85 43.6482 34.435
      vertex 78.85 37.0416 25
    endloop
  endfacet
  facet normal -1 0 0
    outer loop
      vertex 78.85 22.4957 13.2825
      vertex 78.85 37 25
      vertex 78.85 23.8891 11.8891
    endloop
  endfacet
  facet normal -1 -0 0
    outer loop
      vertex 78.85 37 25
      vertex 78.85 22.4957 13.2825
      vertex 78.85 43.6482 34.435
    endloop
  endfacet
  facet normal -1 0 0
    outer loop
      vertex 78.85 21 9
      vertex 78.85 9.06066 21.0607
      vertex 78.85 21.0607 9.06066
    endloop
  endfacet
  facet normal -1 0 -0
    outer loop
      vertex 78.85 9.06066 21.0607
      vertex 78.85 21 9
      vertex 78.85 9 21
    endloop
  endfacet
  facet normal 0 -0.707107 -0.707107
    outer loop
      vertex 78.85 21 9
      vertex 87.85 9 21
      vertex 78.85 9 21
    endloop
  endfacet
  facet normal 0 -0.707107 -0.707107
    outer loop
      vertex 87.85 9 21
      vertex 78.85 21 9
      vertex 87.85 21 9
    endloop
  endfacet
  facet normal 0 0 0
    outer loop
      vertex 87.85 9 21
      vertex 87.85 21 9
      vertex 87.85 21.0208 8.97919
    endloop
  endfacet
  facet normal 0 -0.707101 0.707112
    outer loop
      vertex 78.85 9 21
      vertex 87.85 9.06066 21.0607
      vertex 78.85 9.06066 21.0607
    endloop
  endfacet
  facet normal 0 -0.707101 0.707112
    outer loop
      vertex 87.85 9.06066 21.0607
      vertex 78.85 9 21
      vertex 87.85 9 21
    endloop
  endfacet
  facet normal 0 -0.707107 0.707107
    outer loop
      vertex 78.85 11.8891 23.8891
      vertex 87.85 33.0416 45.0416
      vertex 78.85 33.0416 45.0416
    endloop
  endfacet
  facet normal 0 -0.707107 0.707107
    outer loop
      vertex 87.85 33.0416 45.0416
      vertex 78.85 11.8891 23.8891
      vertex 87.85 11.8891 23.8891
    endloop
  endfacet
  facet normal -1 -0 0
    outer loop
      vertex 87.85 9.06066 21.0607
      vertex 87.85 9 21
      vertex 87.85 33.0416 45.0416
    endloop
  endfacet
  facet normal 1 0 0
    outer loop
      vertex 87.85 33.0416 45.0416
      vertex 87.85 11.8891 23.8891
      vertex 87.85 9.06066 21.0607
    endloop
  endfacet
  facet normal 0 0.707107 -0.707107
    outer loop
      vertex 87.85 37.0416 25
      vertex 78.85 45.0624 33.0208
      vertex 87.85 45.0624 33.0208
    endloop
  endfacet
  facet normal 0 0.707107 -0.707107
    outer loop
      vertex 78.85 45.0624 33.0208
      vertex 87.85 37.0416 25
      vertex 78.85 37.0416 25
    endloop
  endfacet
  facet normal 0 0 0
    outer loop
      vertex 87.85 37.0416 25
      vertex 87.85 45.0624 33.0208
      vertex 87.85 21.0208 8.97919
    endloop
  endfacet
  facet normal -1 0 0
    outer loop
      vertex 85.85 22.4957 13.2825
      vertex 85.85 34.4558 43.6274
      vertex 85.85 43.6482 34.435
    endloop
  endfacet
  facet normal -1 0 0
    outer loop
      vertex 85.85 34.4558 43.6274
      vertex 85.85 22.4957 13.2825
      vertex 85.85 13.3033 22.4749
    endloop
  endfacet
  facet normal 0 -0.707107 0.707107
    outer loop
      vertex 78.85 22.4957 13.2825
      vertex 85.85 43.6482 34.435
      vertex 78.85 43.6482 34.435
    endloop
  endfacet
  facet normal 0 -0.707107 0.707107
    outer loop
      vertex 85.85 43.6482 34.435
      vertex 78.85 22.4957 13.2825
      vertex 85.85 22.4957 13.2825
    endloop
  endfacet
  facet normal 0 0.707107 -0.707107
    outer loop
      vertex 85.85 13.3033 22.4749
      vertex 78.85 34.4558 43.6274
      vertex 85.85 34.4558 43.6274
    endloop
  endfacet
  facet normal 0 0.707107 -0.707107
    outer loop
      vertex 78.85 34.4558 43.6274
      vertex 85.85 13.3033 22.4749
      vertex 78.85 13.3033 22.4749
    endloop
  endfacet
  facet normal 0 0.707107 -0.707107
    outer loop
      vertex 51.725 6.25 2
      vertex 39.925 17.1857 12.9357
      vertex 51.725 17.1857 12.9357
    endloop
  endfacet
  facet normal 0 0.707107 -0.707107
    outer loop
      vertex 39.925 17.1857 12.9357
      vertex 51.725 6.25 2
      vertex 39.925 6.25 2
    endloop
  endfacet
  facet normal 1 0 0
    outer loop
      vertex 51.725 19.875 15.875
      vertex 51.725 14.8381 20.9119
      vertex 51.725 17.0607 13.0607
    endloop
  endfacet
  facet normal 1 0 0
    outer loop
      vertex 51.725 17.0607 13.0607
      vertex 51.725 6.25 2
      vertex 51.725 17.1857 12.9357
    endloop
  endfacet
  facet normal 1 0 0
    outer loop
      vertex 51.725 0.165655 6.23941
      vertex 51.725 17.0607 13.0607
      vertex 51.725 14.8381 20.9119
    endloop
  endfacet
  facet normal 1 0 0
    outer loop
      vertex 51.725 17.0607 13.0607
      vertex 51.725 0.165655 6.23941
      vertex 51.725 6.25 2
    endloop
  endfacet
  facet normal 1 0 0
    outer loop
      vertex 51.725 6.25 2
      vertex 51.725 0.165655 6.23941
      vertex 51.725 4.40507 2
    endloop
  endfacet
  facet normal -2.58975e-08 -0.707107 0.707107
    outer loop
      vertex 51.725 14.8381 20.9119
      vertex 50.975 14.3078 20.3815
      vertex 51.725 0.165655 6.23941
    endloop
  endfacet
  facet normal 0 -0.707107 0.707107
    outer loop
      vertex 49.725 14.8381 20.9119
      vertex 50.975 14.3078 20.3815
      vertex 51.725 14.8381 20.9119
    endloop
  endfacet
  facet normal 0 -0.707107 0.707107
    outer loop
      vertex 50.975 14.3078 20.3815
      vertex 49.725 14.8381 20.9119
      vertex 49.725 14.3078 20.3815
    endloop
  endfacet
  facet normal 1.00897e-07 -0.707107 0.707107
    outer loop
      vertex 50.975 0.695985 6.76974
      vertex 51.725 0.165655 6.23941
      vertex 50.975 14.3078 20.3815
    endloop
  endfacet
  facet normal 0 -0.707107 0.707107
    outer loop
      vertex 49.725 0.165655 6.23941
      vertex 50.975 0.695985 6.76974
      vertex 49.725 0.695985 6.76974
    endloop
  endfacet
  facet normal 0 -0.707107 0.707107
    outer loop
      vertex 50.975 0.695985 6.76974
      vertex 49.725 0.165655 6.23941
      vertex 51.725 0.165655 6.23941
    endloop
  endfacet
  facet normal 0 -0.707107 0.707107
    outer loop
      vertex 42.425 14.8381 20.9119
      vertex 40.675 14.3078 20.3815
      vertex 42.425 14.3078 20.3815
    endloop
  endfacet
  facet normal 3.06523e-08 -0.707107 0.707107
    outer loop
      vertex 40.675 14.3078 20.3815
      vertex 39.925 14.8381 20.9119
      vertex 40.675 0.695985 6.76974
    endloop
  endfacet
  facet normal 0 -0.707107 0.707107
    outer loop
      vertex 39.925 14.8381 20.9119
      vertex 40.675 14.3078 20.3815
      vertex 42.425 14.8381 20.9119
    endloop
  endfacet
  facet normal 0 -0.707107 0.707107
    outer loop
      vertex 40.675 0.695985 6.76974
      vertex 42.425 0.165655 6.23941
      vertex 42.425 0.695985 6.76974
    endloop
  endfacet
  facet normal 0 -0.707107 0.707107
    outer loop
      vertex 40.675 0.695985 6.76974
      vertex 39.925 0.165655 6.23941
      vertex 42.425 0.165655 6.23941
    endloop
  endfacet
  facet normal -9.61422e-08 -0.707107 0.707107
    outer loop
      vertex 39.925 0.165655 6.23941
      vertex 40.675 0.695985 6.76974
      vertex 39.925 14.8381 20.9119
    endloop
  endfacet
  facet normal -1 0 0
    outer loop
      vertex 39.925 6.25 2
      vertex 39.925 17.0607 13.0607
      vertex 39.925 17.1857 12.9357
    endloop
  endfacet
  facet normal -1 0 0
    outer loop
      vertex 39.925 0.165655 6.23941
      vertex 39.925 17.0607 13.0607
      vertex 39.925 6.25 2
    endloop
  endfacet
  facet normal -1 0 0
    outer loop
      vertex 39.925 0.165655 6.23941
      vertex 39.925 6.25 2
      vertex 39.925 4.40507 2
    endloop
  endfacet
  facet normal -1 -0 0
    outer loop
      vertex 39.925 17.0607 13.0607
      vertex 39.925 0.165655 6.23941
      vertex 39.925 14.8381 20.9119
    endloop
  endfacet
  facet normal -1 -0 0
    outer loop
      vertex 39.925 19.875 15.875
      vertex 39.925 17.0607 13.0607
      vertex 39.925 14.8381 20.9119
    endloop
  endfacet
  facet normal 0 0.707107 0.707107
    outer loop
      vertex 51.725 14.8381 20.9119
      vertex 49.725 18.2322 17.5178
      vertex 49.725 14.8381 20.9119
    endloop
  endfacet
  facet normal 0 0.707107 0.707107
    outer loop
      vertex 49.725 18.2322 17.5178
      vertex 51.725 19.875 15.875
      vertex 42.425 18.2322 17.5178
    endloop
  endfacet
  facet normal 0 0.707107 0.707107
    outer loop
      vertex 51.725 19.875 15.875
      vertex 49.725 18.2322 17.5178
      vertex 51.725 14.8381 20.9119
    endloop
  endfacet
  facet normal 0 0.707107 0.707107
    outer loop
      vertex 42.425 18.2322 17.5178
      vertex 39.925 14.8381 20.9119
      vertex 42.425 14.8381 20.9119
    endloop
  endfacet
  facet normal 0 0.707107 0.707107
    outer loop
      vertex 42.425 18.2322 17.5178
      vertex 39.925 19.875 15.875
      vertex 39.925 14.8381 20.9119
    endloop
  endfacet
  facet normal -0 0.707107 0.707107
    outer loop
      vertex 39.925 19.875 15.875
      vertex 42.425 18.2322 17.5178
      vertex 51.725 19.875 15.875
    endloop
  endfacet
  facet normal 0 -0.707107 -0.707107
    outer loop
      vertex 39.925 0.165655 6.23941
      vertex 42.425 3.34764 3.05743
      vertex 42.425 0.165655 6.23941
    endloop
  endfacet
  facet normal -0 -0.707107 -0.707107
    outer loop
      vertex 51.725 4.40507 2
      vertex 42.425 3.34764 3.05743
      vertex 39.925 4.40507 2
    endloop
  endfacet
  facet normal -1.36664e-08 -0.707107 -0.707107
    outer loop
      vertex 39.925 4.40507 2
      vertex 42.425 3.34764 3.05743
      vertex 39.925 0.165655 6.23941
    endloop
  endfacet
  facet normal 0 -0.707107 -0.707107
    outer loop
      vertex 49.725 3.34764 3.05743
      vertex 51.725 0.165655 6.23941
      vertex 49.725 0.165655 6.23941
    endloop
  endfacet
  facet normal 1.70831e-08 -0.707107 -0.707107
    outer loop
      vertex 49.725 3.34764 3.05743
      vertex 51.725 4.40507 2
      vertex 51.725 0.165655 6.23941
    endloop
  endfacet
  facet normal 0 -0.707107 -0.707107
    outer loop
      vertex 42.425 3.34764 3.05743
      vertex 51.725 4.40507 2
      vertex 49.725 3.34764 3.05743
    endloop
  endfacet
  facet normal 0 -0.707107 0.707107
    outer loop
      vertex 40.675 4.7972 2.66852
      vertex 50.975 18.409 16.2803
      vertex 40.675 18.409 16.2803
    endloop
  endfacet
  facet normal 0 -0.707107 0.707107
    outer loop
      vertex 50.975 18.409 16.2803
      vertex 40.675 4.7972 2.66852
      vertex 50.975 4.7972 2.66852
    endloop
  endfacet
  facet normal -1 0 0
    outer loop
      vertex 50.975 4.7972 2.66852
      vertex 50.975 14.3078 20.3815
      vertex 50.975 18.409 16.2803
    endloop
  endfacet
  facet normal -1 0 0
    outer loop
      vertex 50.975 14.3078 20.3815
      vertex 50.975 4.7972 2.66852
      vertex 50.975 0.695985 6.76974
    endloop
  endfacet
  facet normal 1 0 0
    outer loop
      vertex 40.675 14.3078 20.3815
      vertex 40.675 4.7972 2.66852
      vertex 40.675 18.409 16.2803
    endloop
  endfacet
  facet normal 1 0 -0
    outer loop
      vertex 40.675 4.7972 2.66852
      vertex 40.675 14.3078 20.3815
      vertex 40.675 0.695985 6.76974
    endloop
  endfacet
  facet normal -0 -0.707107 -0.707107
    outer loop
      vertex 42.425 14.3078 20.3815
      vertex 40.675 14.3078 20.3815
      vertex 42.425 17.7019 16.9874
    endloop
  endfacet
  facet normal 0 -0.707107 -0.707107
    outer loop
      vertex 49.725 17.7019 16.9874
      vertex 50.975 14.3078 20.3815
      vertex 49.725 14.3078 20.3815
    endloop
  endfacet
  facet normal 8.92932e-07 -0.707107 -0.707107
    outer loop
      vertex 50.975 14.3078 20.3815
      vertex 49.725 17.7019 16.9874
      vertex 50.975 18.409 16.2803
    endloop
  endfacet
  facet normal 0 -0.707106 -0.707108
    outer loop
      vertex 42.425 17.7019 16.9874
      vertex 50.975 18.409 16.2803
      vertex 49.725 17.7019 16.9874
    endloop
  endfacet
  facet normal 0 -0.707106 -0.707108
    outer loop
      vertex 42.425 17.7019 16.9874
      vertex 40.675 18.409 16.2803
      vertex 50.975 18.409 16.2803
    endloop
  endfacet
  facet normal -6.37808e-07 -0.707107 -0.707107
    outer loop
      vertex 40.675 18.409 16.2803
      vertex 42.425 17.7019 16.9874
      vertex 40.675 14.3078 20.3815
    endloop
  endfacet
  facet normal 0 0.707107 0.707107
    outer loop
      vertex 50.975 0.695985 6.76974
      vertex 49.725 3.87797 3.58776
      vertex 49.725 0.695985 6.76974
    endloop
  endfacet
  facet normal 0 0.707107 0.707107
    outer loop
      vertex 49.725 3.87797 3.58776
      vertex 50.975 4.7972 2.66852
      vertex 42.425 3.87797 3.58776
    endloop
  endfacet
  facet normal 8.95257e-08 0.707107 0.707107
    outer loop
      vertex 50.975 4.7972 2.66852
      vertex 49.725 3.87797 3.58776
      vertex 50.975 0.695985 6.76974
    endloop
  endfacet
  facet normal 0 0.707107 0.707107
    outer loop
      vertex 42.425 3.87797 3.58776
      vertex 40.675 0.695985 6.76974
      vertex 42.425 0.695985 6.76974
    endloop
  endfacet
  facet normal -6.3947e-08 0.707107 0.707107
    outer loop
      vertex 42.425 3.87797 3.58776
      vertex 40.675 4.7972 2.66852
      vertex 40.675 0.695985 6.76974
    endloop
  endfacet
  facet normal -0 0.707107 0.707107
    outer loop
      vertex 40.675 4.7972 2.66852
      vertex 42.425 3.87797 3.58776
      vertex 50.975 4.7972 2.66852
    endloop
  endfacet
  facet normal 0 -0.707107 0.707107
    outer loop
      vertex 42.425 17.7019 16.9874
      vertex 49.725 18.2322 17.5178
      vertex 42.425 18.2322 17.5178
    endloop
  endfacet
  facet normal 0 -0.707107 0.707107
    outer loop
      vertex 49.725 18.2322 17.5178
      vertex 42.425 17.7019 16.9874
      vertex 49.725 17.7019 16.9874
    endloop
  endfacet
  facet normal -1 0 0
    outer loop
      vertex 49.725 17.7019 16.9874
      vertex 49.725 14.8381 20.9119
      vertex 49.725 18.2322 17.5178
    endloop
  endfacet
  facet normal -1 0 -0
    outer loop
      vertex 49.725 14.8381 20.9119
      vertex 49.725 17.7019 16.9874
      vertex 49.725 14.3078 20.3815
    endloop
  endfacet
  facet normal 1 0 0
    outer loop
      vertex 42.425 14.8381 20.9119
      vertex 42.425 17.7019 16.9874
      vertex 42.425 18.2322 17.5178
    endloop
  endfacet
  facet normal 1 0 0
    outer loop
      vertex 42.425 17.7019 16.9874
      vertex 42.425 14.8381 20.9119
      vertex 42.425 14.3078 20.3815
    endloop
  endfacet
  facet normal 0 -0.707107 0.707107
    outer loop
      vertex 42.425 3.34764 3.05743
      vertex 49.725 3.87797 3.58776
      vertex 42.425 3.87797 3.58776
    endloop
  endfacet
  facet normal 0 -0.707107 0.707107
    outer loop
      vertex 49.725 3.87797 3.58776
      vertex 42.425 3.34764 3.05743
      vertex 49.725 3.34764 3.05743
    endloop
  endfacet
  facet normal -1 0 0
    outer loop
      vertex 49.725 3.34764 3.05743
      vertex 49.725 0.695985 6.76974
      vertex 49.725 3.87797 3.58776
    endloop
  endfacet
  facet normal -1 0 -0
    outer loop
      vertex 49.725 0.695985 6.76974
      vertex 49.725 3.34764 3.05743
      vertex 49.725 0.165655 6.23941
    endloop
  endfacet
  facet normal 1 0 0
    outer loop
      vertex 42.425 0.695985 6.76974
      vertex 42.425 3.34764 3.05743
      vertex 42.425 3.87797 3.58776
    endloop
  endfacet
  facet normal 1 0 0
    outer loop
      vertex 42.425 3.34764 3.05743
      vertex 42.425 0.695985 6.76974
      vertex 42.425 0.165655 6.23941
    endloop
  endfacet
  facet normal 0 -0.707107 0.707107
    outer loop
      vertex 0 9.03985 21.0815
      vertex 87.85 11.8683 23.9099
      vertex 0 11.8683 23.9099
    endloop
  endfacet
  facet normal 0 -0.707107 0.707107
    outer loop
      vertex 87.85 11.8683 23.9099
      vertex 0 9.03985 21.0815
      vertex 87.85 9.03985 21.0815
    endloop
  endfacet
  facet normal 1 0 0
    outer loop
      vertex 87.85 11.8683 23.9099
      vertex 87.85 9.06066 21.0607
      vertex 87.85 11.8891 23.8891
    endloop
  endfacet
  facet normal 1 0 -0
    outer loop
      vertex 87.85 9.06066 21.0607
      vertex 87.85 11.8683 23.9099
      vertex 87.85 9.03985 21.0815
    endloop
  endfacet
  facet normal 0 -0.707107 -0.707107
    outer loop
      vertex 9 9.06066 21.0607
      vertex 39.925 11.8988 18.2225
      vertex 78.85 9.06066 21.0607
    endloop
  endfacet
  facet normal 1.19894e-08 -0.707107 -0.707107
    outer loop
      vertex 9 9.06066 21.0607
      vertex 39.925 17.0607 13.0607
      vertex 39.925 11.8988 18.2225
    endloop
  endfacet
  facet normal -7.26866e-09 -0.707107 -0.707107
    outer loop
      vertex 9 21.0607 9.06066
      vertex 39.925 17.0607 13.0607
      vertex 9 9.06066 21.0607
    endloop
  endfacet
  facet normal -0 -0.707107 -0.707107
    outer loop
      vertex 78.85 21.0607 9.06066
      vertex 39.925 17.1857 12.9357
      vertex 9 21.0607 9.06066
    endloop
  endfacet
  facet normal 0 -0.707107 -0.707107
    outer loop
      vertex 39.925 17.0607 13.0607
      vertex 9 21.0607 9.06066
      vertex 39.925 17.1857 12.9357
    endloop
  endfacet
  facet normal -0 -0.707107 -0.707107
    outer loop
      vertex 9 9.06066 21.0607
      vertex 0 9.03985 21.0815
      vertex 0 9.06066 21.0607
    endloop
  endfacet
  facet normal 0 -0.707107 -0.707107
    outer loop
      vertex 0 9.03985 21.0815
      vertex 9 9.06066 21.0607
      vertex 87.85 9.03985 21.0815
    endloop
  endfacet
  facet normal -0 -0.707107 -0.707107
    outer loop
      vertex 78.85 9.06066 21.0607
      vertex 87.85 9.03985 21.0815
      vertex 9 9.06066 21.0607
    endloop
  endfacet
  facet normal 0 -0.707107 -0.707107
    outer loop
      vertex 87.85 9.03985 21.0815
      vertex 78.85 9.06066 21.0607
      vertex 87.85 9.06066 21.0607
    endloop
  endfacet
  facet normal -0 -0.707107 -0.707107
    outer loop
      vertex 51.725 11.8988 18.2225
      vertex 78.85 9.06066 21.0607
      vertex 39.925 11.8988 18.2225
    endloop
  endfacet
  facet normal -1.36691e-08 -0.707107 -0.707107
    outer loop
      vertex 51.725 17.0607 13.0607
      vertex 78.85 9.06066 21.0607
      vertex 51.725 11.8988 18.2225
    endloop
  endfacet
  facet normal 0 -0.707107 -0.707107
    outer loop
      vertex 78.85 21.0607 9.06066
      vertex 51.725 17.0607 13.0607
      vertex 51.725 17.1857 12.9357
    endloop
  endfacet
  facet normal 8.28694e-09 -0.707107 -0.707107
    outer loop
      vertex 51.725 17.0607 13.0607
      vertex 78.85 21.0607 9.06066
      vertex 78.85 9.06066 21.0607
    endloop
  endfacet
  facet normal 0 -0.707107 -0.707107
    outer loop
      vertex 39.925 17.1857 12.9357
      vertex 78.85 21.0607 9.06066
      vertex 51.725 17.1857 12.9357
    endloop
  endfacet
  facet normal -0 0.707107 0.707107
    outer loop
      vertex 9 23.8891 11.8891
      vertex 39.925 19.8891 15.8891
      vertex 78.85 23.8891 11.8891
    endloop
  endfacet
  facet normal 0 0.707107 0.707107
    outer loop
      vertex 39.925 19.8891 15.8891
      vertex 9 23.8891 11.8891
      vertex 9 22.4957 13.2825
    endloop
  endfacet
  facet normal 0 0.707107 0.707107
    outer loop
      vertex 78.85 22.4957 13.2825
      vertex 78.85 13.3033 22.4749
      vertex 85.85 13.3033 22.4749
    endloop
  endfacet
  facet normal 0 0.707107 0.707107
    outer loop
      vertex 78.85 13.3033 22.4749
      vertex 51.725 14.7272 21.051
      vertex 9 13.3033 22.4749
    endloop
  endfacet
  facet normal -0 0.707107 0.707107
    outer loop
      vertex 39.925 14.7272 21.051
      vertex 9 13.3033 22.4749
      vertex 51.725 14.7272 21.051
    endloop
  endfacet
  facet normal -7.04955e-09 0.707107 0.707107
    outer loop
      vertex 51.725 19.8891 15.8891
      vertex 78.85 13.3033 22.4749
      vertex 78.85 22.4957 13.2825
    endloop
  endfacet
  facet normal 6.85787e-09 0.707107 0.707107
    outer loop
      vertex 78.85 13.3033 22.4749
      vertex 51.725 19.8891 15.8891
      vertex 51.725 14.7272 21.051
    endloop
  endfacet
  facet normal -0 0.707107 0.707107
    outer loop
      vertex 78.85 22.4957 13.2825
      vertex 85.85 13.3033 22.4749
      vertex 85.85 22.4957 13.2825
    endloop
  endfacet
  facet normal 0 0.707107 0.707107
    outer loop
      vertex 78.85 13.3033 22.4749
      vertex 9 11.8891 23.8891
      vertex 78.85 11.8891 23.8891
    endloop
  endfacet
  facet normal 0 0.707107 0.707107
    outer loop
      vertex 9 11.8891 23.8891
      vertex 78.85 13.3033 22.4749
      vertex 9 13.3033 22.4749
    endloop
  endfacet
  facet normal -0 0.707107 0.707107
    outer loop
      vertex 78.85 11.8891 23.8891
      vertex 87.85 11.8683 23.9099
      vertex 87.85 11.8891 23.8891
    endloop
  endfacet
  facet normal 0 0.707107 0.707107
    outer loop
      vertex 87.85 11.8683 23.9099
      vertex 78.85 11.8891 23.8891
      vertex 0 11.8683 23.9099
    endloop
  endfacet
  facet normal -0 0.707107 0.707107
    outer loop
      vertex 9 11.8891 23.8891
      vertex 0 11.8683 23.9099
      vertex 78.85 11.8891 23.8891
    endloop
  endfacet
  facet normal 0 0.707107 0.707107
    outer loop
      vertex 0 11.8683 23.9099
      vertex 9 11.8891 23.8891
      vertex 0 11.8891 23.8891
    endloop
  endfacet
  facet normal -6.01519e-09 0.707107 0.707107
    outer loop
      vertex 39.925 19.8891 15.8891
      vertex 9 13.3033 22.4749
      vertex 39.925 14.7272 21.051
    endloop
  endfacet
  facet normal 6.18332e-09 0.707107 0.707107
    outer loop
      vertex 9 13.3033 22.4749
      vertex 39.925 19.8891 15.8891
      vertex 9 22.4957 13.2825
    endloop
  endfacet
  facet normal 0 0.707107 0.707107
    outer loop
      vertex 78.85 23.8891 11.8891
      vertex 51.725 19.8891 15.8891
      vertex 78.85 22.4957 13.2825
    endloop
  endfacet
  facet normal 0 0.707107 0.707107
    outer loop
      vertex 51.725 19.8891 15.8891
      vertex 78.85 23.8891 11.8891
      vertex 39.925 19.8891 15.8891
    endloop
  endfacet
  facet normal 0 0.707107 0.707107
    outer loop
      vertex 9 13.3033 22.4749
      vertex 9 22.4957 13.2825
      vertex 2 13.3033 22.4749
    endloop
  endfacet
  facet normal 0 0.707107 0.707107
    outer loop
      vertex 2 13.3033 22.4749
      vertex 9 22.4957 13.2825
      vertex 2 22.4957 13.2825
    endloop
  endfacet
  facet normal -1 0 0
    outer loop
      vertex 51.725 17.0607 13.0607
      vertex 51.725 14.7272 21.051
      vertex 51.725 19.8891 15.8891
    endloop
  endfacet
  facet normal -1 0 -0
    outer loop
      vertex 51.725 14.7272 21.051
      vertex 51.725 17.0607 13.0607
      vertex 51.725 11.8988 18.2225
    endloop
  endfacet
  facet normal 0 0.707107 -0.707107
    outer loop
      vertex 51.725 11.8988 18.2225
      vertex 39.925 14.7272 21.051
      vertex 51.725 14.7272 21.051
    endloop
  endfacet
  facet normal 0 0.707107 -0.707107
    outer loop
      vertex 39.925 14.7272 21.051
      vertex 51.725 11.8988 18.2225
      vertex 39.925 11.8988 18.2225
    endloop
  endfacet
  facet normal 0 -0.707083 0.707131
    outer loop
      vertex 39.925 19.875 15.875
      vertex 51.725 19.8891 15.8891
      vertex 39.925 19.8891 15.8891
    endloop
  endfacet
  facet normal 0 -0.707083 0.707131
    outer loop
      vertex 51.725 19.8891 15.8891
      vertex 39.925 19.875 15.875
      vertex 51.725 19.875 15.875
    endloop
  endfacet
  facet normal -1 0 0
    outer loop
      vertex 39.925 19.8891 15.8891
      vertex 39.925 17.0607 13.0607
      vertex 39.925 19.875 15.875
    endloop
  endfacet
  facet normal 1 -0 0
    outer loop
      vertex 51.725 19.875 15.875
      vertex 51.725 17.0607 13.0607
      vertex 51.725 19.8891 15.8891
    endloop
  endfacet
  facet normal 1 0 0
    outer loop
      vertex 39.925 14.7272 21.051
      vertex 39.925 17.0607 13.0607
      vertex 39.925 19.8891 15.8891
    endloop
  endfacet
  facet normal 1 0 0
    outer loop
      vertex 39.925 17.0607 13.0607
      vertex 39.925 14.7272 21.051
      vertex 39.925 11.8988 18.2225
    endloop
  endfacet
endsolid OpenSCAD_Model
