solid OpenSCAD_Model
  facet normal -1 0 0
    outer loop
      vertex 0 11.8891 24.8891
      vertex 0 28.0919 17.0503
      vertex 0 21.0208 9.97919
    endloop
  endfacet
  facet normal -1 0 0
    outer loop
      vertex 0 28.0919 17.0503
      vertex 0 11.8891 24.8891
      vertex 0 16.0711 29.0711
    endloop
  endfacet
  facet normal -1 0 0
    outer loop
      vertex 0 9.06066 22.0607
      vertex 0 11.8891 24.8891
      vertex 0 21.0208 9.97919
    endloop
  endfacet
  facet normal -1 -0 0
    outer loop
      vertex 0 11.8891 24.8891
      vertex 0 9.06066 22.0607
      vertex 0 11.8683 24.9099
    endloop
  endfacet
  facet normal -1 0 -0
    outer loop
      vertex 0 9.06066 22.0607
      vertex 0 21.0208 9.97919
      vertex 0 9 22
    endloop
  endfacet
  facet normal -1 0 0
    outer loop
      vertex 0 11.8683 24.9099
      vertex 0 9.06066 22.0607
      vertex 0 9.03985 22.0815
    endloop
  endfacet
  facet normal 0 -0.707107 0.707107
    outer loop
      vertex 0 9.03985 22.0815
      vertex 87.85 11.8683 24.9099
      vertex 0 11.8683 24.9099
    endloop
  endfacet
  facet normal 0 -0.707107 0.707107
    outer loop
      vertex 87.85 11.8683 24.9099
      vertex 0 9.03985 22.0815
      vertex 87.85 9.03985 22.0815
    endloop
  endfacet
  facet normal 1 0 0
    outer loop
      vertex 87.85 11.8683 24.9099
      vertex 87.85 9.06066 22.0607
      vertex 87.85 11.8891 24.8891
    endloop
  endfacet
  facet normal 1 0 -0
    outer loop
      vertex 87.85 9.06066 22.0607
      vertex 87.85 11.8683 24.9099
      vertex 87.85 9.03985 22.0815
    endloop
  endfacet
  facet normal -0 -0.707107 -0.707107
    outer loop
      vertex 39.075 14.7626 16.3588
      vertex 9 9.06066 22.0607
      vertex 38.425 14.7626 16.3588
    endloop
  endfacet
  facet normal 1.08895e-08 -0.707107 -0.707107
    outer loop
      vertex 9 21.0607 10.0607
      vertex 38.425 14.7626 16.3588
      vertex 9 9.06066 22.0607
    endloop
  endfacet
  facet normal 0 -0.707107 -0.707107
    outer loop
      vertex 9 21.0607 10.0607
      vertex 38.575 19.3588 11.7626
      vertex 38.425 19.3588 11.7626
    endloop
  endfacet
  facet normal 0 -0.707107 -0.707107
    outer loop
      vertex 38.575 19.3588 11.7626
      vertex 9 21.0607 10.0607
      vertex 49.275 19.3588 11.7626
    endloop
  endfacet
  facet normal -0 -0.707107 -0.707107
    outer loop
      vertex 78.85 21.0607 10.0607
      vertex 49.275 19.3588 11.7626
      vertex 9 21.0607 10.0607
    endloop
  endfacet
  facet normal 2.29176e-08 -0.707107 -0.707107
    outer loop
      vertex 38.425 14.7626 16.3588
      vertex 9 21.0607 10.0607
      vertex 38.425 19.3588 11.7626
    endloop
  endfacet
  facet normal -0 -0.707107 -0.707107
    outer loop
      vertex 9 9.06066 22.0607
      vertex 0 9.03985 22.0815
      vertex 0 9.06066 22.0607
    endloop
  endfacet
  facet normal 0 -0.707107 -0.707107
    outer loop
      vertex 0 9.03985 22.0815
      vertex 9 9.06066 22.0607
      vertex 87.85 9.03985 22.0815
    endloop
  endfacet
  facet normal -0 -0.707107 -0.707107
    outer loop
      vertex 78.85 9.06066 22.0607
      vertex 87.85 9.03985 22.0815
      vertex 9 9.06066 22.0607
    endloop
  endfacet
  facet normal 0 -0.707107 -0.707107
    outer loop
      vertex 87.85 9.03985 22.0815
      vertex 78.85 9.06066 22.0607
      vertex 87.85 9.06066 22.0607
    endloop
  endfacet
  facet normal 0 -0.707107 -0.707107
    outer loop
      vertex 9 9.06066 22.0607
      vertex 39.075 14.7626 16.3588
      vertex 78.85 9.06066 22.0607
    endloop
  endfacet
  facet normal -0 -0.707107 -0.707107
    outer loop
      vertex 48.775 14.7626 16.3588
      vertex 78.85 9.06066 22.0607
      vertex 39.075 14.7626 16.3588
    endloop
  endfacet
  facet normal -0 -0.707107 -0.707107
    outer loop
      vertex 49.425 14.7626 16.3588
      vertex 78.85 9.06066 22.0607
      vertex 48.775 14.7626 16.3588
    endloop
  endfacet
  facet normal -2.29176e-08 -0.707107 -0.707107
    outer loop
      vertex 78.85 21.0607 10.0607
      vertex 49.425 14.7626 16.3588
      vertex 49.425 19.3588 11.7626
    endloop
  endfacet
  facet normal -1.08895e-08 -0.707107 -0.707107
    outer loop
      vertex 49.425 14.7626 16.3588
      vertex 78.85 21.0607 10.0607
      vertex 78.85 9.06066 22.0607
    endloop
  endfacet
  facet normal 0 -0.707107 -0.707107
    outer loop
      vertex 49.275 19.3588 11.7626
      vertex 78.85 21.0607 10.0607
      vertex 49.425 19.3588 11.7626
    endloop
  endfacet
  facet normal 0 0.707107 0.707107
    outer loop
      vertex 38.575 22.1872 14.591
      vertex 9 23.8891 12.8891
      vertex 38.425 22.1872 14.591
    endloop
  endfacet
  facet normal 2.29176e-08 0.707107 0.707107
    outer loop
      vertex 38.425 22.1872 14.591
      vertex 9 23.8891 12.8891
      vertex 9 22.4957 14.2825
    endloop
  endfacet
  facet normal 0 0.707107 0.707107
    outer loop
      vertex 78.85 22.4957 14.2825
      vertex 78.85 13.3033 23.4749
      vertex 85.85 13.3033 23.4749
    endloop
  endfacet
  facet normal 0 0.707107 0.707107
    outer loop
      vertex 78.85 13.3033 23.4749
      vertex 46.425 17.591 19.1872
      vertex 9 13.3033 23.4749
    endloop
  endfacet
  facet normal 0 0.707107 0.707107
    outer loop
      vertex 78.85 13.3033 23.4749
      vertex 49.425 17.591 19.1872
      vertex 46.425 17.591 19.1872
    endloop
  endfacet
  facet normal -3.51455e-08 0.707107 0.707107
    outer loop
      vertex 78.85 13.3033 23.4749
      vertex 78.85 22.4957 14.2825
      vertex 49.425 17.591 19.1872
    endloop
  endfacet
  facet normal 0 0.707107 0.707107
    outer loop
      vertex 78.85 23.8891 12.8891
      vertex 49.275 22.1872 14.591
      vertex 49.425 22.1872 14.591
    endloop
  endfacet
  facet normal 0 0.707107 0.707107
    outer loop
      vertex 49.275 22.1872 14.591
      vertex 78.85 23.8891 12.8891
      vertex 38.575 22.1872 14.591
    endloop
  endfacet
  facet normal -2.29176e-08 0.707107 0.707107
    outer loop
      vertex 49.425 17.591 19.1872
      vertex 78.85 22.4957 14.2825
      vertex 49.425 22.1872 14.591
    endloop
  endfacet
  facet normal -0 0.707107 0.707107
    outer loop
      vertex 78.85 22.4957 14.2825
      vertex 85.85 13.3033 23.4749
      vertex 85.85 22.4957 14.2825
    endloop
  endfacet
  facet normal 0 0.707107 0.707107
    outer loop
      vertex 78.85 13.3033 23.4749
      vertex 9 11.8891 24.8891
      vertex 78.85 11.8891 24.8891
    endloop
  endfacet
  facet normal 0 0.707107 0.707107
    outer loop
      vertex 9 11.8891 24.8891
      vertex 78.85 13.3033 23.4749
      vertex 9 13.3033 23.4749
    endloop
  endfacet
  facet normal -0 0.707107 0.707107
    outer loop
      vertex 78.85 11.8891 24.8891
      vertex 87.85 11.8683 24.9099
      vertex 87.85 11.8891 24.8891
    endloop
  endfacet
  facet normal 0 0.707107 0.707107
    outer loop
      vertex 87.85 11.8683 24.9099
      vertex 78.85 11.8891 24.8891
      vertex 0 11.8683 24.9099
    endloop
  endfacet
  facet normal -0 0.707107 0.707107
    outer loop
      vertex 9 11.8891 24.8891
      vertex 0 11.8683 24.9099
      vertex 78.85 11.8891 24.8891
    endloop
  endfacet
  facet normal 0 0.707107 0.707107
    outer loop
      vertex 0 11.8683 24.9099
      vertex 9 11.8891 24.8891
      vertex 0 11.8891 24.8891
    endloop
  endfacet
  facet normal -0 0.707107 0.707107
    outer loop
      vertex 41.425 17.591 19.1872
      vertex 9 13.3033 23.4749
      vertex 46.425 17.591 19.1872
    endloop
  endfacet
  facet normal -0 0.707107 0.707107
    outer loop
      vertex 38.425 17.591 19.1872
      vertex 9 13.3033 23.4749
      vertex 41.425 17.591 19.1872
    endloop
  endfacet
  facet normal 3.51455e-08 0.707107 0.707107
    outer loop
      vertex 9 22.4957 14.2825
      vertex 9 13.3033 23.4749
      vertex 38.425 17.591 19.1872
    endloop
  endfacet
  facet normal 2.29176e-08 0.707107 0.707107
    outer loop
      vertex 9 22.4957 14.2825
      vertex 38.425 17.591 19.1872
      vertex 38.425 22.1872 14.591
    endloop
  endfacet
  facet normal -2.29176e-08 0.707107 0.707107
    outer loop
      vertex 78.85 23.8891 12.8891
      vertex 49.425 22.1872 14.591
      vertex 78.85 22.4957 14.2825
    endloop
  endfacet
  facet normal -0 0.707107 0.707107
    outer loop
      vertex 9 23.8891 12.8891
      vertex 38.575 22.1872 14.591
      vertex 78.85 23.8891 12.8891
    endloop
  endfacet
  facet normal 0 0.707107 0.707107
    outer loop
      vertex 9 13.3033 23.4749
      vertex 9 22.4957 14.2825
      vertex 2 13.3033 23.4749
    endloop
  endfacet
  facet normal 0 0.707107 0.707107
    outer loop
      vertex 2 13.3033 23.4749
      vertex 9 22.4957 14.2825
      vertex 2 22.4957 14.2825
    endloop
  endfacet
  facet normal 0 0.707107 -0.707107
    outer loop
      vertex 9 21.0607 10.0607
      vertex 78.85 23.8891 12.8891
      vertex 78.85 21.0607 10.0607
    endloop
  endfacet
  facet normal 0 0.707107 -0.707107
    outer loop
      vertex 78.85 23.8891 12.8891
      vertex 9 21.0607 10.0607
      vertex 9 23.8891 12.8891
    endloop
  endfacet
  facet normal 0 0.707107 -0.707107
    outer loop
      vertex 48.775 14.7626 16.3588
      vertex 46.425 17.2957 18.8919
      vertex 48.775 17.2957 18.8919
    endloop
  endfacet
  facet normal 0 0.707107 -0.707107
    outer loop
      vertex 46.425 17.2957 18.8919
      vertex 41.425 17.2957 18.8919
      vertex 46.425 17.591 19.1872
    endloop
  endfacet
  facet normal 0 0.707107 -0.707107
    outer loop
      vertex 48.775 14.7626 16.3588
      vertex 41.425 17.2957 18.8919
      vertex 46.425 17.2957 18.8919
    endloop
  endfacet
  facet normal 0 0.707107 -0.707107
    outer loop
      vertex 39.075 14.7626 16.3588
      vertex 41.425 17.2957 18.8919
      vertex 48.775 14.7626 16.3588
    endloop
  endfacet
  facet normal 0 0.707107 -0.707107
    outer loop
      vertex 41.425 17.2957 18.8919
      vertex 39.075 14.7626 16.3588
      vertex 39.075 17.2957 18.8919
    endloop
  endfacet
  facet normal 0 0.707107 -0.707107
    outer loop
      vertex 46.425 17.591 19.1872
      vertex 41.425 17.2957 18.8919
      vertex 41.425 17.591 19.1872
    endloop
  endfacet
  facet normal 0 -0.707107 0.707107
    outer loop
      vertex 38.575 19.3588 11.7626
      vertex 49.275 22.1872 14.591
      vertex 38.575 22.1872 14.591
    endloop
  endfacet
  facet normal 0 -0.707107 0.707107
    outer loop
      vertex 49.275 22.1872 14.591
      vertex 38.575 19.3588 11.7626
      vertex 49.275 19.3588 11.7626
    endloop
  endfacet
  facet normal -1 0 0
    outer loop
      vertex 38.425 8.24471 0.648513
      vertex 38.425 14.7626 16.3588
      vertex 38.425 19.3588 11.7626
    endloop
  endfacet
  facet normal -1 0 0
    outer loop
      vertex 38.425 14.7626 16.3588
      vertex 38.425 8.24471 0.648513
      vertex 38.425 3.64851 5.24471
    endloop
  endfacet
  facet normal -1 0 0
    outer loop
      vertex 38.425 22.1872 14.591
      vertex 38.425 17.7553 19.3515
      vertex 38.425 22.3515 14.7553
    endloop
  endfacet
  facet normal -1 0 -0
    outer loop
      vertex 38.425 17.7553 19.3515
      vertex 38.425 22.1872 14.591
      vertex 38.425 17.591 19.1872
    endloop
  endfacet
  facet normal 0 -0.707107 0.707107
    outer loop
      vertex 38.425 14.7626 16.3588
      vertex 39.075 4.10813 5.70433
      vertex 39.075 14.7626 16.3588
    endloop
  endfacet
  facet normal -4.97277e-07 -0.707107 0.707107
    outer loop
      vertex 38.425 3.64851 5.24471
      vertex 39.075 4.10813 5.70433
      vertex 38.425 14.7626 16.3588
    endloop
  endfacet
  facet normal 0 -0.707107 0.707106
    outer loop
      vertex 41.425 3.64851 5.24471
      vertex 39.075 4.10813 5.70433
      vertex 38.425 3.64851 5.24471
    endloop
  endfacet
  facet normal 0 -0.707107 0.707106
    outer loop
      vertex 39.075 4.10813 5.70433
      vertex 41.425 3.64851 5.24471
      vertex 41.425 4.10813 5.70433
    endloop
  endfacet
  facet normal 0 -0.707107 0.707107
    outer loop
      vertex 38.425 17.591 19.1872
      vertex 41.425 17.7553 19.3515
      vertex 38.425 17.7553 19.3515
    endloop
  endfacet
  facet normal 0 -0.707107 0.707107
    outer loop
      vertex 41.425 17.7553 19.3515
      vertex 38.425 17.591 19.1872
      vertex 41.425 17.591 19.1872
    endloop
  endfacet
  facet normal 0 -0.707107 0.707106
    outer loop
      vertex 46.425 4.10813 5.70433
      vertex 46.425 3.64851 5.24471
      vertex 48.775 4.10813 5.70433
    endloop
  endfacet
  facet normal 0 -0.707107 0.707107
    outer loop
      vertex 48.775 4.10813 5.70433
      vertex 49.425 14.7626 16.3588
      vertex 48.775 14.7626 16.3588
    endloop
  endfacet
  facet normal 4.97277e-07 -0.707107 0.707107
    outer loop
      vertex 48.775 4.10813 5.70433
      vertex 49.425 3.64851 5.24471
      vertex 49.425 14.7626 16.3588
    endloop
  endfacet
  facet normal 0 -0.707107 0.707106
    outer loop
      vertex 49.425 3.64851 5.24471
      vertex 48.775 4.10813 5.70433
      vertex 46.425 3.64851 5.24471
    endloop
  endfacet
  facet normal 0 -0.707107 0.707107
    outer loop
      vertex 46.425 17.591 19.1872
      vertex 49.425 17.7553 19.3515
      vertex 46.425 17.7553 19.3515
    endloop
  endfacet
  facet normal 0 -0.707107 0.707107
    outer loop
      vertex 49.425 17.7553 19.3515
      vertex 46.425 17.591 19.1872
      vertex 49.425 17.591 19.1872
    endloop
  endfacet
  facet normal 1 0 0
    outer loop
      vertex 49.425 14.7626 16.3588
      vertex 49.425 8.24471 0.648513
      vertex 49.425 19.3588 11.7626
    endloop
  endfacet
  facet normal 1 0 -0
    outer loop
      vertex 49.425 8.24471 0.648513
      vertex 49.425 14.7626 16.3588
      vertex 49.425 3.64851 5.24471
    endloop
  endfacet
  facet normal 1 0 0
    outer loop
      vertex 49.425 17.7553 19.3515
      vertex 49.425 22.1872 14.591
      vertex 49.425 22.3515 14.7553
    endloop
  endfacet
  facet normal 1 0 0
    outer loop
      vertex 49.425 22.1872 14.591
      vertex 49.425 17.7553 19.3515
      vertex 49.425 17.591 19.1872
    endloop
  endfacet
  facet normal 0 0.707107 -0.707107
    outer loop
      vertex 49.425 8.24471 0.648513
      vertex 49.275 19.3588 11.7626
      vertex 49.425 19.3588 11.7626
    endloop
  endfacet
  facet normal 0 0.707107 -0.707107
    outer loop
      vertex 49.275 19.3588 11.7626
      vertex 49.425 8.24471 0.648513
      vertex 38.575 19.3588 11.7626
    endloop
  endfacet
  facet normal 0 0.707107 -0.707107
    outer loop
      vertex 38.425 8.24471 0.648513
      vertex 38.575 19.3588 11.7626
      vertex 49.425 8.24471 0.648513
    endloop
  endfacet
  facet normal 0 0.707107 -0.707107
    outer loop
      vertex 38.575 19.3588 11.7626
      vertex 38.425 8.24471 0.648513
      vertex 38.425 19.3588 11.7626
    endloop
  endfacet
  facet normal 0 0.707107 -0.707107
    outer loop
      vertex 49.275 19.3588 11.7626
      vertex 38.575 22.1872 14.591
      vertex 49.275 22.1872 14.591
    endloop
  endfacet
  facet normal 0 0.707107 -0.707107
    outer loop
      vertex 38.575 22.1872 14.591
      vertex 49.275 19.3588 11.7626
      vertex 38.575 19.3588 11.7626
    endloop
  endfacet
  facet normal 0 0.707107 -0.707107
    outer loop
      vertex 49.275 22.1872 14.591
      vertex 49.425 22.3515 14.7553
      vertex 49.425 22.1872 14.591
    endloop
  endfacet
  facet normal 0 0.707107 -0.707107
    outer loop
      vertex 49.425 22.3515 14.7553
      vertex 49.275 22.1872 14.591
      vertex 38.425 22.3515 14.7553
    endloop
  endfacet
  facet normal 0 0.707107 -0.707107
    outer loop
      vertex 38.575 22.1872 14.591
      vertex 38.425 22.3515 14.7553
      vertex 49.275 22.1872 14.591
    endloop
  endfacet
  facet normal 0 0.707107 -0.707107
    outer loop
      vertex 38.425 22.3515 14.7553
      vertex 38.575 22.1872 14.591
      vertex 38.425 22.1872 14.591
    endloop
  endfacet
  facet normal 0 -0.707107 -0.707107
    outer loop
      vertex 38.425 3.64851 5.24471
      vertex 41.425 6.83049 2.06273
      vertex 41.425 3.64851 5.24471
    endloop
  endfacet
  facet normal 0 -0.707107 -0.707107
    outer loop
      vertex 41.425 6.83049 2.06273
      vertex 38.425 8.24471 0.648513
      vertex 46.425 6.83049 2.06273
    endloop
  endfacet
  facet normal 7.56482e-08 -0.707107 -0.707107
    outer loop
      vertex 38.425 8.24471 0.648513
      vertex 41.425 6.83049 2.06273
      vertex 38.425 3.64851 5.24471
    endloop
  endfacet
  facet normal 0 -0.707107 -0.707107
    outer loop
      vertex 46.425 6.83049 2.06273
      vertex 49.425 3.64851 5.24471
      vertex 46.425 3.64851 5.24471
    endloop
  endfacet
  facet normal -7.56482e-08 -0.707107 -0.707107
    outer loop
      vertex 46.425 6.83049 2.06273
      vertex 49.425 8.24471 0.648513
      vertex 49.425 3.64851 5.24471
    endloop
  endfacet
  facet normal -0 -0.707107 -0.707107
    outer loop
      vertex 49.425 8.24471 0.648513
      vertex 46.425 6.83049 2.06273
      vertex 38.425 8.24471 0.648513
    endloop
  endfacet
  facet normal 0 0.707107 0.707107
    outer loop
      vertex 49.425 17.7553 19.3515
      vertex 46.425 20.9373 16.1695
      vertex 46.425 17.7553 19.3515
    endloop
  endfacet
  facet normal 0 0.707107 0.707107
    outer loop
      vertex 46.425 20.9373 16.1695
      vertex 49.425 22.3515 14.7553
      vertex 41.425 20.9373 16.1695
    endloop
  endfacet
  facet normal 0 0.707107 0.707107
    outer loop
      vertex 49.425 22.3515 14.7553
      vertex 46.425 20.9373 16.1695
      vertex 49.425 17.7553 19.3515
    endloop
  endfacet
  facet normal 0 0.707107 0.707107
    outer loop
      vertex 41.425 20.9373 16.1695
      vertex 38.425 17.7553 19.3515
      vertex 41.425 17.7553 19.3515
    endloop
  endfacet
  facet normal 0 0.707107 0.707107
    outer loop
      vertex 41.425 20.9373 16.1695
      vertex 38.425 22.3515 14.7553
      vertex 38.425 17.7553 19.3515
    endloop
  endfacet
  facet normal -0 0.707107 0.707107
    outer loop
      vertex 38.425 22.3515 14.7553
      vertex 41.425 20.9373 16.1695
      vertex 49.425 22.3515 14.7553
    endloop
  endfacet
  facet normal 1 -0 0
    outer loop
      vertex 39.075 14.7626 16.3588
      vertex 39.075 20.6191 15.5685
      vertex 39.075 17.2957 18.8919
    endloop
  endfacet
  facet normal 1 0 0
    outer loop
      vertex 39.075 14.7626 16.3588
      vertex 39.075 7.43153 2.38092
      vertex 39.075 20.6191 15.5685
    endloop
  endfacet
  facet normal 1 0 -0
    outer loop
      vertex 39.075 7.43153 2.38092
      vertex 39.075 14.7626 16.3588
      vertex 39.075 4.10813 5.70433
    endloop
  endfacet
  facet normal -1 0 0
    outer loop
      vertex 48.775 20.6191 15.5685
      vertex 48.775 14.7626 16.3588
      vertex 48.775 17.2957 18.8919
    endloop
  endfacet
  facet normal -1 0 0
    outer loop
      vertex 48.775 7.43153 2.38092
      vertex 48.775 14.7626 16.3588
      vertex 48.775 20.6191 15.5685
    endloop
  endfacet
  facet normal -1 0 0
    outer loop
      vertex 48.775 14.7626 16.3588
      vertex 48.775 7.43153 2.38092
      vertex 48.775 4.10813 5.70433
    endloop
  endfacet
  facet normal -0 -0.707107 -0.707107
    outer loop
      vertex 41.425 17.2957 18.8919
      vertex 39.075 17.2957 18.8919
      vertex 41.425 20.4777 15.7099
    endloop
  endfacet
  facet normal 0 -0.707107 -0.707107
    outer loop
      vertex 46.425 20.4777 15.7099
      vertex 48.775 17.2957 18.8919
      vertex 46.425 17.2957 18.8919
    endloop
  endfacet
  facet normal 2.62535e-07 -0.707107 -0.707107
    outer loop
      vertex 48.775 17.2957 18.8919
      vertex 46.425 20.4777 15.7099
      vertex 48.775 20.6191 15.5685
    endloop
  endfacet
  facet normal 0 -0.707104 -0.707109
    outer loop
      vertex 41.425 20.4777 15.7099
      vertex 48.775 20.6191 15.5685
      vertex 46.425 20.4777 15.7099
    endloop
  endfacet
  facet normal 0 -0.707104 -0.707109
    outer loop
      vertex 41.425 20.4777 15.7099
      vertex 39.075 20.6191 15.5685
      vertex 48.775 20.6191 15.5685
    endloop
  endfacet
  facet normal -2.62535e-07 -0.707107 -0.707107
    outer loop
      vertex 39.075 20.6191 15.5685
      vertex 41.425 20.4777 15.7099
      vertex 39.075 17.2957 18.8919
    endloop
  endfacet
  facet normal 0 -0.707107 0.707107
    outer loop
      vertex 39.075 7.43153 2.38092
      vertex 48.775 20.6191 15.5685
      vertex 39.075 20.6191 15.5685
    endloop
  endfacet
  facet normal 0 -0.707107 0.707107
    outer loop
      vertex 48.775 20.6191 15.5685
      vertex 39.075 7.43153 2.38092
      vertex 48.775 7.43153 2.38092
    endloop
  endfacet
  facet normal 0 0.707107 0.707107
    outer loop
      vertex 48.775 4.10813 5.70433
      vertex 46.425 7.29011 2.52235
      vertex 46.425 4.10813 5.70433
    endloop
  endfacet
  facet normal 0 0.707107 0.707107
    outer loop
      vertex 46.425 7.29011 2.52235
      vertex 48.775 7.43153 2.38092
      vertex 41.425 7.29011 2.52235
    endloop
  endfacet
  facet normal 0 0.707107 0.707107
    outer loop
      vertex 48.775 7.43153 2.38092
      vertex 46.425 7.29011 2.52235
      vertex 48.775 4.10813 5.70433
    endloop
  endfacet
  facet normal 0 0.707107 0.707107
    outer loop
      vertex 41.425 7.29011 2.52235
      vertex 39.075 4.10813 5.70433
      vertex 41.425 4.10813 5.70433
    endloop
  endfacet
  facet normal 0 0.707107 0.707107
    outer loop
      vertex 41.425 7.29011 2.52235
      vertex 39.075 7.43153 2.38092
      vertex 39.075 4.10813 5.70433
    endloop
  endfacet
  facet normal -0 0.707107 0.707107
    outer loop
      vertex 39.075 7.43153 2.38092
      vertex 41.425 7.29011 2.52235
      vertex 48.775 7.43153 2.38092
    endloop
  endfacet
  facet normal 1 -0 0
    outer loop
      vertex 41.425 17.591 19.1872
      vertex 41.425 20.9373 16.1695
      vertex 41.425 17.7553 19.3515
    endloop
  endfacet
  facet normal 1 0 0
    outer loop
      vertex 41.425 20.9373 16.1695
      vertex 41.425 17.591 19.1872
      vertex 41.425 20.4777 15.7099
    endloop
  endfacet
  facet normal 1 0 0
    outer loop
      vertex 41.425 20.4777 15.7099
      vertex 41.425 17.591 19.1872
      vertex 41.425 17.2957 18.8919
    endloop
  endfacet
  facet normal -1 0 0
    outer loop
      vertex 46.425 17.591 19.1872
      vertex 46.425 20.9373 16.1695
      vertex 46.425 20.4777 15.7099
    endloop
  endfacet
  facet normal -1 0 0
    outer loop
      vertex 46.425 20.9373 16.1695
      vertex 46.425 17.591 19.1872
      vertex 46.425 17.7553 19.3515
    endloop
  endfacet
  facet normal -1 0 -0
    outer loop
      vertex 46.425 17.591 19.1872
      vertex 46.425 20.4777 15.7099
      vertex 46.425 17.2957 18.8919
    endloop
  endfacet
  facet normal 0 -0.707106 0.707108
    outer loop
      vertex 41.425 20.9373 16.1695
      vertex 46.425 20.4777 15.7099
      vertex 46.425 20.9373 16.1695
    endloop
  endfacet
  facet normal 0 -0.707106 0.707108
    outer loop
      vertex 46.425 20.4777 15.7099
      vertex 41.425 20.9373 16.1695
      vertex 41.425 20.4777 15.7099
    endloop
  endfacet
  facet normal 1 0 0
    outer loop
      vertex 41.425 4.10813 5.70433
      vertex 41.425 6.83049 2.06273
      vertex 41.425 7.29011 2.52235
    endloop
  endfacet
  facet normal 1 0 0
    outer loop
      vertex 41.425 6.83049 2.06273
      vertex 41.425 4.10813 5.70433
      vertex 41.425 3.64851 5.24471
    endloop
  endfacet
  facet normal -1 0 0
    outer loop
      vertex 46.425 6.83049 2.06273
      vertex 46.425 4.10813 5.70433
      vertex 46.425 7.29011 2.52235
    endloop
  endfacet
  facet normal -1 0 -0
    outer loop
      vertex 46.425 4.10813 5.70433
      vertex 46.425 6.83049 2.06273
      vertex 46.425 3.64851 5.24471
    endloop
  endfacet
  facet normal 0 -0.707107 0.707107
    outer loop
      vertex 41.425 6.83049 2.06273
      vertex 46.425 7.29011 2.52235
      vertex 41.425 7.29011 2.52235
    endloop
  endfacet
  facet normal 0 -0.707107 0.707107
    outer loop
      vertex 46.425 7.29011 2.52235
      vertex 41.425 6.83049 2.06273
      vertex 46.425 6.83049 2.06273
    endloop
  endfacet
  facet normal 0 0.707107 0.707107
    outer loop
      vertex 9 26.6777 18.4645
      vertex 9 28.0919 17.0503
      vertex 2 26.6777 18.4645
    endloop
  endfacet
  facet normal -0 0.707107 0.707107
    outer loop
      vertex 2 17.4853 27.6569
      vertex 9 16.0711 29.0711
      vertex 9 17.4853 27.6569
    endloop
  endfacet
  facet normal 0 0.707107 0.707107
    outer loop
      vertex 9 16.0711 29.0711
      vertex 2 17.4853 27.6569
      vertex 0 16.0711 29.0711
    endloop
  endfacet
  facet normal 0 0.707107 0.707107
    outer loop
      vertex 2 26.6777 18.4645
      vertex 0 16.0711 29.0711
      vertex 2 17.4853 27.6569
    endloop
  endfacet
  facet normal 0 0.707107 0.707107
    outer loop
      vertex 2 26.6777 18.4645
      vertex 0 28.0919 17.0503
      vertex 0 16.0711 29.0711
    endloop
  endfacet
  facet normal -0 0.707107 0.707107
    outer loop
      vertex 0 28.0919 17.0503
      vertex 2 26.6777 18.4645
      vertex 9 28.0919 17.0503
    endloop
  endfacet
  facet normal 1 0 0
    outer loop
      vertex 9 16.0711 29.0711
      vertex 9 13.3033 23.4749
      vertex 9 17.4853 27.6569
    endloop
  endfacet
  facet normal 1 0 -0
    outer loop
      vertex 9 13.3033 23.4749
      vertex 9 16.0711 29.0711
      vertex 9 11.8891 24.8891
    endloop
  endfacet
  facet normal 1 0 0
    outer loop
      vertex 9 26.6777 18.4645
      vertex 9 22.4957 14.2825
      vertex 9 23.8891 12.8891
    endloop
  endfacet
  facet normal 1 0 0
    outer loop
      vertex 9 23.8891 12.8891
      vertex 9 28.0919 17.0503
      vertex 9 26.6777 18.4645
    endloop
  endfacet
  facet normal 1 0 0
    outer loop
      vertex 9 21.0208 9.97919
      vertex 9 23.8891 12.8891
      vertex 9 21.0607 10.0607
    endloop
  endfacet
  facet normal 1 -0 0
    outer loop
      vertex 9 23.8891 12.8891
      vertex 9 21.0208 9.97919
      vertex 9 28.0919 17.0503
    endloop
  endfacet
  facet normal 1 -0 0
    outer loop
      vertex 9 9 22
      vertex 9 21.0607 10.0607
      vertex 9 9.06066 22.0607
    endloop
  endfacet
  facet normal 1 0 0
    outer loop
      vertex 9 21.0607 10.0607
      vertex 9 9 22
      vertex 9 21.0208 9.97919
    endloop
  endfacet
  facet normal 0 0.707107 -0.707107
    outer loop
      vertex 9 21.0208 9.97919
      vertex 0 28.0919 17.0503
      vertex 9 28.0919 17.0503
    endloop
  endfacet
  facet normal 0 0.707107 -0.707107
    outer loop
      vertex 0 28.0919 17.0503
      vertex 9 21.0208 9.97919
      vertex 0 21.0208 9.97919
    endloop
  endfacet
  facet normal 0 -0.707107 -0.707107
    outer loop
      vertex 0 21.0208 9.97919
      vertex 9 9 22
      vertex 0 9 22
    endloop
  endfacet
  facet normal 0 -0.707107 -0.707107
    outer loop
      vertex 9 9 22
      vertex 0 21.0208 9.97919
      vertex 9 21.0208 9.97919
    endloop
  endfacet
  facet normal 0 -0.707107 0.707107
    outer loop
      vertex 0 11.8891 24.8891
      vertex 9 16.0711 29.0711
      vertex 0 16.0711 29.0711
    endloop
  endfacet
  facet normal 0 -0.707107 0.707107
    outer loop
      vertex 9 16.0711 29.0711
      vertex 0 11.8891 24.8891
      vertex 9 11.8891 24.8891
    endloop
  endfacet
  facet normal 0 -0.707101 0.707112
    outer loop
      vertex 0 9.06066 22.0607
      vertex 9 9 22
      vertex 9 9.06066 22.0607
    endloop
  endfacet
  facet normal 0 -0.707101 0.707112
    outer loop
      vertex 9 9 22
      vertex 0 9.06066 22.0607
      vertex 0 9 22
    endloop
  endfacet
  facet normal 1 0 0
    outer loop
      vertex 2 17.4853 27.6569
      vertex 2 22.4957 14.2825
      vertex 2 26.6777 18.4645
    endloop
  endfacet
  facet normal 1 0 0
    outer loop
      vertex 2 22.4957 14.2825
      vertex 2 17.4853 27.6569
      vertex 2 13.3033 23.4749
    endloop
  endfacet
  facet normal 0 -0.707107 0.707107
    outer loop
      vertex 2 22.4957 14.2825
      vertex 9 26.6777 18.4645
      vertex 2 26.6777 18.4645
    endloop
  endfacet
  facet normal 0 -0.707107 0.707107
    outer loop
      vertex 9 26.6777 18.4645
      vertex 2 22.4957 14.2825
      vertex 9 22.4957 14.2825
    endloop
  endfacet
  facet normal 0 0.707107 -0.707107
    outer loop
      vertex 9 13.3033 23.4749
      vertex 2 17.4853 27.6569
      vertex 9 17.4853 27.6569
    endloop
  endfacet
  facet normal 0 0.707107 -0.707107
    outer loop
      vertex 2 17.4853 27.6569
      vertex 9 13.3033 23.4749
      vertex 2 13.3033 23.4749
    endloop
  endfacet
  facet normal 1 0 0
    outer loop
      vertex 87.85 16.0711 29.0711
      vertex 87.85 21.0208 9.97919
      vertex 87.85 28.0919 17.0503
    endloop
  endfacet
  facet normal 1 0 0
    outer loop
      vertex 87.85 21.0208 9.97919
      vertex 87.85 16.0711 29.0711
      vertex 87.85 9 22
    endloop
  endfacet
  facet normal 0 0.707107 0.707107
    outer loop
      vertex 87.85 16.0711 29.0711
      vertex 85.85 17.4853 27.6569
      vertex 78.85 16.0711 29.0711
    endloop
  endfacet
  facet normal 0 0.707107 0.707107
    outer loop
      vertex 87.85 16.0711 29.0711
      vertex 85.85 26.6777 18.4645
      vertex 85.85 17.4853 27.6569
    endloop
  endfacet
  facet normal 0 0.707107 0.707107
    outer loop
      vertex 87.85 28.0919 17.0503
      vertex 85.85 26.6777 18.4645
      vertex 87.85 16.0711 29.0711
    endloop
  endfacet
  facet normal -0 0.707107 0.707107
    outer loop
      vertex 78.85 28.0919 17.0503
      vertex 85.85 26.6777 18.4645
      vertex 87.85 28.0919 17.0503
    endloop
  endfacet
  facet normal 0 0.707107 0.707107
    outer loop
      vertex 85.85 26.6777 18.4645
      vertex 78.85 28.0919 17.0503
      vertex 78.85 26.6777 18.4645
    endloop
  endfacet
  facet normal 0 0.707107 0.707107
    outer loop
      vertex 78.85 16.0711 29.0711
      vertex 85.85 17.4853 27.6569
      vertex 78.85 17.4853 27.6569
    endloop
  endfacet
  facet normal -1 0 0
    outer loop
      vertex 78.85 13.3033 23.4749
      vertex 78.85 16.0711 29.0711
      vertex 78.85 17.4853 27.6569
    endloop
  endfacet
  facet normal -1 0 0
    outer loop
      vertex 78.85 16.0711 29.0711
      vertex 78.85 13.3033 23.4749
      vertex 78.85 11.8891 24.8891
    endloop
  endfacet
  facet normal -1 -0 0
    outer loop
      vertex 78.85 28.0919 17.0503
      vertex 78.85 23.8891 12.8891
      vertex 78.85 26.6777 18.4645
    endloop
  endfacet
  facet normal -1 0 0
    outer loop
      vertex 78.85 21.0208 9.97919
      vertex 78.85 23.8891 12.8891
      vertex 78.85 28.0919 17.0503
    endloop
  endfacet
  facet normal -1 0 0
    outer loop
      vertex 78.85 23.8891 12.8891
      vertex 78.85 21.0208 9.97919
      vertex 78.85 21.0607 10.0607
    endloop
  endfacet
  facet normal -1 0 0
    outer loop
      vertex 78.85 9 22
      vertex 78.85 21.0607 10.0607
      vertex 78.85 21.0208 9.97919
    endloop
  endfacet
  facet normal -1 0 0
    outer loop
      vertex 78.85 21.0607 10.0607
      vertex 78.85 9 22
      vertex 78.85 9.06066 22.0607
    endloop
  endfacet
  facet normal -1 0 0
    outer loop
      vertex 78.85 26.6777 18.4645
      vertex 78.85 23.8891 12.8891
      vertex 78.85 22.4957 14.2825
    endloop
  endfacet
  facet normal 0 0.707107 -0.707107
    outer loop
      vertex 87.85 21.0208 9.97919
      vertex 78.85 28.0919 17.0503
      vertex 87.85 28.0919 17.0503
    endloop
  endfacet
  facet normal 0 0.707107 -0.707107
    outer loop
      vertex 78.85 28.0919 17.0503
      vertex 87.85 21.0208 9.97919
      vertex 78.85 21.0208 9.97919
    endloop
  endfacet
  facet normal 0 -0.707107 -0.707107
    outer loop
      vertex 78.85 21.0208 9.97919
      vertex 87.85 9 22
      vertex 78.85 9 22
    endloop
  endfacet
  facet normal 0 -0.707107 -0.707107
    outer loop
      vertex 87.85 9 22
      vertex 78.85 21.0208 9.97919
      vertex 87.85 21.0208 9.97919
    endloop
  endfacet
  facet normal 0 -0.707101 0.707112
    outer loop
      vertex 78.85 9 22
      vertex 87.85 9.06066 22.0607
      vertex 78.85 9.06066 22.0607
    endloop
  endfacet
  facet normal 0 -0.707101 0.707112
    outer loop
      vertex 87.85 9.06066 22.0607
      vertex 78.85 9 22
      vertex 87.85 9 22
    endloop
  endfacet
  facet normal 0 -0.707107 0.707107
    outer loop
      vertex 78.85 11.8891 24.8891
      vertex 87.85 16.0711 29.0711
      vertex 78.85 16.0711 29.0711
    endloop
  endfacet
  facet normal 0 -0.707107 0.707107
    outer loop
      vertex 87.85 16.0711 29.0711
      vertex 78.85 11.8891 24.8891
      vertex 87.85 11.8891 24.8891
    endloop
  endfacet
  facet normal -1 -0 0
    outer loop
      vertex 87.85 9.06066 22.0607
      vertex 87.85 9 22
      vertex 87.85 16.0711 29.0711
    endloop
  endfacet
  facet normal 1 0 0
    outer loop
      vertex 87.85 16.0711 29.0711
      vertex 87.85 11.8891 24.8891
      vertex 87.85 9.06066 22.0607
    endloop
  endfacet
  facet normal -1 0 0
    outer loop
      vertex 85.85 22.4957 14.2825
      vertex 85.85 17.4853 27.6569
      vertex 85.85 26.6777 18.4645
    endloop
  endfacet
  facet normal -1 0 -0
    outer loop
      vertex 85.85 17.4853 27.6569
      vertex 85.85 22.4957 14.2825
      vertex 85.85 13.3033 23.4749
    endloop
  endfacet
  facet normal 0 -0.707107 0.707107
    outer loop
      vertex 78.85 22.4957 14.2825
      vertex 85.85 26.6777 18.4645
      vertex 78.85 26.6777 18.4645
    endloop
  endfacet
  facet normal 0 -0.707107 0.707107
    outer loop
      vertex 85.85 26.6777 18.4645
      vertex 78.85 22.4957 14.2825
      vertex 85.85 22.4957 14.2825
    endloop
  endfacet
  facet normal 0 0.707107 -0.707107
    outer loop
      vertex 85.85 13.3033 23.4749
      vertex 78.85 17.4853 27.6569
      vertex 85.85 17.4853 27.6569
    endloop
  endfacet
  facet normal 0 0.707107 -0.707107
    outer loop
      vertex 78.85 17.4853 27.6569
      vertex 85.85 13.3033 23.4749
      vertex 78.85 13.3033 23.4749
    endloop
  endfacet
endsolid OpenSCAD_Model
