solid OpenSCAD_Model
  facet normal -1 0 0
    outer loop
      vertex 0 16.6932 17.286
      vertex 0 6.65578 27.3234
      vertex 0 7.00934 27.677
    endloop
  endfacet
  facet normal -1 0 0
    outer loop
      vertex 0 120 0
      vertex 0 42 2.5
      vertex 0 120 2.5
    endloop
  endfacet
  facet normal -1 0 0
    outer loop
      vertex 0 42 2.5
      vertex 0 41.8284 41
      vertex 0 42 41
    endloop
  endfacet
  facet normal -1 0 0
    outer loop
      vertex 0 16.6932 17.286
      vertex 0 41.8284 41
      vertex 0 42 2.5
    endloop
  endfacet
  facet normal -1 0 0
    outer loop
      vertex 0 7.00934 27.677
      vertex 0 41.8284 41
      vertex 0 16.6932 17.286
    endloop
  endfacet
  facet normal -1 0 0
    outer loop
      vertex 0 42 2.5
      vertex 0 1.5375 2.5
      vertex 0 16.6932 17.286
    endloop
  endfacet
  facet normal -1 0 0
    outer loop
      vertex 0 0 0
      vertex 0 42 2.5
      vertex 0 120 0
    endloop
  endfacet
  facet normal -1 -0 0
    outer loop
      vertex 0 42 2.5
      vertex 0 0 0
      vertex 0 1.5375 2.5
    endloop
  endfacet
  facet normal -1 -0 0
    outer loop
      vertex 0 1.5375 2.5
      vertex 0 0 0
      vertex 0 0 2.5
    endloop
  endfacet
  facet normal -1 -0 0
    outer loop
      vertex 0 49.5772 48.7487
      vertex 0 41.8284 41
      vertex 0 36.5664 61.7595
    endloop
  endfacet
  facet normal -1 0 0
    outer loop
      vertex 0 4.74659 29.9397
      vertex 0 41.8284 41
      vertex 0 7.00934 27.677
    endloop
  endfacet
  facet normal -1 -0 0
    outer loop
      vertex 0 41.8284 41
      vertex 0 4.74659 29.9397
      vertex 0 36.5664 61.7595
    endloop
  endfacet
  facet normal -0 0 1
    outer loop
      vertex 78.4 114 2.5
      vertex 84.4 42 2.5
      vertex 84.4 120 2.5
    endloop
  endfacet
  facet normal 0 0 1
    outer loop
      vertex 78.4 6 2.5
      vertex 83.4 42 2.5
      vertex 78.4 114 2.5
    endloop
  endfacet
  facet normal 0 0 1
    outer loop
      vertex 84.4 42 2.5
      vertex 78.4 114 2.5
      vertex 83.4 42 2.5
    endloop
  endfacet
  facet normal 0 0 1
    outer loop
      vertex 84.4 120 2.5
      vertex 6 114 2.5
      vertex 78.4 114 2.5
    endloop
  endfacet
  facet normal -0 0 1
    outer loop
      vertex 1 42 2.5
      vertex 6 6 2.5
      vertex 6 114 2.5
    endloop
  endfacet
  facet normal 0 0 1
    outer loop
      vertex 1 1.5375 2.5
      vertex 3.3 3.32843 2.5
      vertex 1 42 2.5
    endloop
  endfacet
  facet normal 0 0 1
    outer loop
      vertex 6 6 2.5
      vertex 1 42 2.5
      vertex 3.3 3.32843 2.5
    endloop
  endfacet
  facet normal -0 0 1
    outer loop
      vertex 0 120 2.5
      vertex 6 114 2.5
      vertex 84.4 120 2.5
    endloop
  endfacet
  facet normal 0 0 1
    outer loop
      vertex 0 42 2.5
      vertex 6 114 2.5
      vertex 0 120 2.5
    endloop
  endfacet
  facet normal 0 0 1
    outer loop
      vertex 6 114 2.5
      vertex 0 42 2.5
      vertex 1 42 2.5
    endloop
  endfacet
  facet normal 0 0 1
    outer loop
      vertex 83.4 42 2.5
      vertex 78.4 6 2.5
      vertex 83.4 3.32843 2.5
    endloop
  endfacet
  facet normal 0 0 1
    outer loop
      vertex 3.3 3.32843 2.5
      vertex 78.4 6 2.5
      vertex 6 6 2.5
    endloop
  endfacet
  facet normal 0 0 1
    outer loop
      vertex 78.4 6 2.5
      vertex 3.3 3.32843 2.5
      vertex 83.4 3.32843 2.5
    endloop
  endfacet
  facet normal -0 0 1
    outer loop
      vertex 3.3 1.91421 2.5
      vertex 36 0 2.5
      vertex 36 1.91421 2.5
    endloop
  endfacet
  facet normal 0 0 1
    outer loop
      vertex 3.3 3.32843 2.5
      vertex 1 1.5375 2.5
      vertex 3.3 1.91421 2.5
    endloop
  endfacet
  facet normal 0 0 1
    outer loop
      vertex 0 0 2.5
      vertex 3.3 1.91421 2.5
      vertex 1 1.5375 2.5
    endloop
  endfacet
  facet normal 0 0 1
    outer loop
      vertex 0 0 2.5
      vertex 1 1.5375 2.5
      vertex 0 1.5375 2.5
    endloop
  endfacet
  facet normal 0 0 1
    outer loop
      vertex 3.3 1.91421 2.5
      vertex 0 0 2.5
      vertex 36 0 2.5
    endloop
  endfacet
  facet normal 0 0 1
    outer loop
      vertex 83.4 1.91421 2.5
      vertex 48.4 1.91421 2.5
      vertex 83.4 1.5375 2.5
    endloop
  endfacet
  facet normal -0 0 1
    outer loop
      vertex 83.4 1.5375 2.5
      vertex 84.4 0 2.5
      vertex 84.4 1.5375 2.5
    endloop
  endfacet
  facet normal 0 0 1
    outer loop
      vertex 48.4 0 2.5
      vertex 83.4 1.5375 2.5
      vertex 48.4 1.91421 2.5
    endloop
  endfacet
  facet normal 0 0 1
    outer loop
      vertex 83.4 1.5375 2.5
      vertex 48.4 0 2.5
      vertex 84.4 0 2.5
    endloop
  endfacet
  facet normal 1 0 0
    outer loop
      vertex 84.4 42 41
      vertex 84.4 41.8284 41
      vertex 84.4 42 2.5
    endloop
  endfacet
  facet normal 1 -0 0
    outer loop
      vertex 84.4 42 2.5
      vertex 84.4 120 0
      vertex 84.4 120 2.5
    endloop
  endfacet
  facet normal 1 -0 0
    outer loop
      vertex 84.4 17.7574 16.9289
      vertex 84.4 42 2.5
      vertex 84.4 41.8284 41
    endloop
  endfacet
  facet normal 1 -0 0
    outer loop
      vertex 84.4 17.5806 16.7522
      vertex 84.4 42 2.5
      vertex 84.4 17.7574 16.9289
    endloop
  endfacet
  facet normal 1 0 0
    outer loop
      vertex 84.4 0.963573 0.135146
      vertex 84.4 42 2.5
      vertex 84.4 17.5806 16.7522
    endloop
  endfacet
  facet normal 1 0 0
    outer loop
      vertex 84.4 0 0
      vertex 84.4 42 2.5
      vertex 84.4 0.963573 0.135146
    endloop
  endfacet
  facet normal 1 0 0
    outer loop
      vertex 84.4 42 2.5
      vertex 84.4 0 0
      vertex 84.4 120 0
    endloop
  endfacet
  facet normal 1 0 0
    outer loop
      vertex 84.4 0.256466 0.842253
      vertex 84.4 0 0
      vertex 84.4 0.963573 0.135146
    endloop
  endfacet
  facet normal 1 0 0
    outer loop
      vertex 84.4 0 0
      vertex 84.4 0.256466 0.842253
      vertex 84.4 0 2.5
    endloop
  endfacet
  facet normal 1 0 0
    outer loop
      vertex 84.4 17.7574 16.9289
      vertex 84.4 16.8735 17.4593
      vertex 84.4 17.5806 16.7522
    endloop
  endfacet
  facet normal 1 0 0
    outer loop
      vertex 84.4 7.00934 27.677
      vertex 84.4 16.8735 17.4593
      vertex 84.4 17.7574 16.9289
    endloop
  endfacet
  facet normal 1 0 0
    outer loop
      vertex 84.4 7.00934 27.677
      vertex 84.4 16.6932 17.286
      vertex 84.4 16.8735 17.4593
    endloop
  endfacet
  facet normal 1 0 0
    outer loop
      vertex 84.4 16.6932 17.286
      vertex 84.4 7.00934 27.677
      vertex 84.4 6.65578 27.3234
    endloop
  endfacet
  facet normal 1 0 0
    outer loop
      vertex 84.4 0.256466 0.842253
      vertex 84.4 16.6932 17.286
      vertex 84.4 1.5375 2.5
    endloop
  endfacet
  facet normal 1 -0 0
    outer loop
      vertex 84.4 16.6932 17.286
      vertex 84.4 0.256466 0.842253
      vertex 84.4 16.8735 17.4593
    endloop
  endfacet
  facet normal 1 0 -0
    outer loop
      vertex 84.4 0.256466 0.842253
      vertex 84.4 1.5375 2.5
      vertex 84.4 0 2.5
    endloop
  endfacet
  facet normal 0 1 -0
    outer loop
      vertex 84.4 120 0
      vertex 0 120 2.5
      vertex 84.4 120 2.5
    endloop
  endfacet
  facet normal 0 1 0
    outer loop
      vertex 0 120 2.5
      vertex 84.4 120 0
      vertex 0 120 0
    endloop
  endfacet
  facet normal 0 0 -1
    outer loop
      vertex 84.4 0 0
      vertex 78.4 6 0
      vertex 84.4 120 0
    endloop
  endfacet
  facet normal 0 0 -1
    outer loop
      vertex 84.4 0 0
      vertex 6 6 0
      vertex 78.4 6 0
    endloop
  endfacet
  facet normal -0 0 -1
    outer loop
      vertex 6 6 0
      vertex 0 0 0
      vertex 6 114 0
    endloop
  endfacet
  facet normal 0 0 -1
    outer loop
      vertex 0 0 0
      vertex 6 6 0
      vertex 84.4 0 0
    endloop
  endfacet
  facet normal 0 0 -1
    outer loop
      vertex 78.4 114 0
      vertex 84.4 120 0
      vertex 78.4 6 0
    endloop
  endfacet
  facet normal 0 0 -1
    outer loop
      vertex 6 114 0
      vertex 84.4 120 0
      vertex 78.4 114 0
    endloop
  endfacet
  facet normal 0 0 -1
    outer loop
      vertex 6 114 0
      vertex 0 120 0
      vertex 84.4 120 0
    endloop
  endfacet
  facet normal 0 0 -1
    outer loop
      vertex 0 120 0
      vertex 6 114 0
      vertex 0 0 0
    endloop
  endfacet
  facet normal 0 -1 0
    outer loop
      vertex 0 0 2.5
      vertex 36 0 0.90073
      vertex 36 0 2.5
    endloop
  endfacet
  facet normal 0 -1 -0
    outer loop
      vertex 36 0 0.90073
      vertex 0 0 0
      vertex 48.4 0 0.90073
    endloop
  endfacet
  facet normal 0 -1 0
    outer loop
      vertex 0 0 0
      vertex 36 0 0.90073
      vertex 0 0 2.5
    endloop
  endfacet
  facet normal 0 -1 0
    outer loop
      vertex 48.4 0 0.90073
      vertex 84.4 0 2.5
      vertex 48.4 0 2.5
    endloop
  endfacet
  facet normal 0 -1 0
    outer loop
      vertex 48.4 0 0.90073
      vertex 84.4 0 0
      vertex 84.4 0 2.5
    endloop
  endfacet
  facet normal 0 -1 0
    outer loop
      vertex 84.4 0 0
      vertex 48.4 0 0.90073
      vertex 0 0 0
    endloop
  endfacet
  facet normal 1 -0 0
    outer loop
      vertex 6 6 2.5
      vertex 6 114 0
      vertex 6 114 2.5
    endloop
  endfacet
  facet normal 1 0 0
    outer loop
      vertex 6 114 0
      vertex 6 6 2.5
      vertex 6 6 0
    endloop
  endfacet
  facet normal -1 0 0
    outer loop
      vertex 78.4 6 0
      vertex 78.4 114 2.5
      vertex 78.4 114 0
    endloop
  endfacet
  facet normal -1 -0 0
    outer loop
      vertex 78.4 114 2.5
      vertex 78.4 6 0
      vertex 78.4 6 2.5
    endloop
  endfacet
  facet normal 0 -1 0
    outer loop
      vertex 6 114 0
      vertex 78.4 114 2.5
      vertex 6 114 2.5
    endloop
  endfacet
  facet normal 0 -1 -0
    outer loop
      vertex 78.4 114 2.5
      vertex 6 114 0
      vertex 78.4 114 0
    endloop
  endfacet
  facet normal 0 1 -0
    outer loop
      vertex 78.4 6 0
      vertex 6 6 2.5
      vertex 78.4 6 2.5
    endloop
  endfacet
  facet normal 0 1 0
    outer loop
      vertex 6 6 2.5
      vertex 78.4 6 0
      vertex 6 6 0
    endloop
  endfacet
  facet normal 0 0.707107 0.707107
    outer loop
      vertex 9 48.8701 49.4558
      vertex 9 49.5772 48.7487
      vertex 1 48.8701 49.4558
    endloop
  endfacet
  facet normal -0 0.707107 0.707107
    outer loop
      vertex 1 37.2735 61.0524
      vertex 9 36.5664 61.7595
      vertex 9 37.2735 61.0524
    endloop
  endfacet
  facet normal 0 0.707107 0.707107
    outer loop
      vertex 9 36.5664 61.7595
      vertex 1 37.2735 61.0524
      vertex 0 36.5664 61.7595
    endloop
  endfacet
  facet normal 0 0.707107 0.707107
    outer loop
      vertex 1 48.8701 49.4558
      vertex 0 36.5664 61.7595
      vertex 1 37.2735 61.0524
    endloop
  endfacet
  facet normal 0 0.707107 0.707107
    outer loop
      vertex 1 48.8701 49.4558
      vertex 0 49.5772 48.7487
      vertex 0 36.5664 61.7595
    endloop
  endfacet
  facet normal -0 0.707107 0.707107
    outer loop
      vertex 0 49.5772 48.7487
      vertex 1 48.8701 49.4558
      vertex 9 49.5772 48.7487
    endloop
  endfacet
  facet normal 1 0 0
    outer loop
      vertex 9 36.5664 61.7595
      vertex 9 6.16081 29.9397
      vertex 9 37.2735 61.0524
    endloop
  endfacet
  facet normal 1 0 -0
    outer loop
      vertex 9 6.16081 29.9397
      vertex 9 36.5664 61.7595
      vertex 9 4.74659 29.9397
    endloop
  endfacet
  facet normal 1 0 0
    outer loop
      vertex 9 17.7574 18.3431
      vertex 9 49.5772 48.7487
      vertex 9 48.8701 49.4558
    endloop
  endfacet
  facet normal 1 0 0
    outer loop
      vertex 9 49.5772 48.7487
      vertex 9 17.7574 18.3431
      vertex 9 18.1109 17.2825
    endloop
  endfacet
  facet normal 1 0 0
    outer loop
      vertex 9 17.7574 18.3431
      vertex 9 7.36289 28.0305
      vertex 9 18.1109 17.2825
    endloop
  endfacet
  facet normal 1 0 0
    outer loop
      vertex 9 6.16081 29.9397
      vertex 9 7.36289 28.0305
      vertex 9 17.7574 18.3431
    endloop
  endfacet
  facet normal 1 0 0
    outer loop
      vertex 9 6.16081 29.9397
      vertex 9 7.00934 27.677
      vertex 9 7.36289 28.0305
    endloop
  endfacet
  facet normal 1 0 0
    outer loop
      vertex 9 7.00934 27.677
      vertex 9 6.16081 29.9397
      vertex 9 4.74659 29.9397
    endloop
  endfacet
  facet normal 0 -0.707107 -0.707107
    outer loop
      vertex 0 7.00934 27.677
      vertex 9 4.74659 29.9397
      vertex 0 4.74659 29.9397
    endloop
  endfacet
  facet normal 0 -0.707107 -0.707107
    outer loop
      vertex 9 4.74659 29.9397
      vertex 0 7.00934 27.677
      vertex 9 7.00934 27.677
    endloop
  endfacet
  facet normal 0 -0.707107 0.707107
    outer loop
      vertex 0 4.74659 29.9397
      vertex 9 36.5664 61.7595
      vertex 0 36.5664 61.7595
    endloop
  endfacet
  facet normal 0 -0.707107 0.707107
    outer loop
      vertex 9 36.5664 61.7595
      vertex 0 4.74659 29.9397
      vertex 9 4.74659 29.9397
    endloop
  endfacet
  facet normal 0 0.707107 -0.707107
    outer loop
      vertex 9 49.5772 48.7487
      vertex 1 41.8284 41
      vertex 0 49.5772 48.7487
    endloop
  endfacet
  facet normal 0 0.707107 -0.707107
    outer loop
      vertex 9 18.1109 17.2825
      vertex 1 41.8284 41
      vertex 9 49.5772 48.7487
    endloop
  endfacet
  facet normal 0 0.707107 -0.707107
    outer loop
      vertex 1 41.8284 41
      vertex 9 18.1109 17.2825
      vertex 1 18.1109 17.2825
    endloop
  endfacet
  facet normal 0 0.707107 -0.707107
    outer loop
      vertex 0 49.5772 48.7487
      vertex 1 41.8284 41
      vertex 0 41.8284 41
    endloop
  endfacet
  facet normal 1 0 0
    outer loop
      vertex 1 37.2735 61.0524
      vertex 1 17.7574 18.3431
      vertex 1 48.8701 49.4558
    endloop
  endfacet
  facet normal 1 0 -0
    outer loop
      vertex 1 17.7574 18.3431
      vertex 1 37.2735 61.0524
      vertex 1 6.16081 29.9397
    endloop
  endfacet
  facet normal 0 -0.707107 0.707107
    outer loop
      vertex 1 17.7574 18.3431
      vertex 9 48.8701 49.4558
      vertex 1 48.8701 49.4558
    endloop
  endfacet
  facet normal 0 -0.707107 0.707107
    outer loop
      vertex 9 48.8701 49.4558
      vertex 1 17.7574 18.3431
      vertex 9 17.7574 18.3431
    endloop
  endfacet
  facet normal 0 0.707107 0.707107
    outer loop
      vertex 9 17.7574 18.3431
      vertex 1 6.16081 29.9397
      vertex 9 6.16081 29.9397
    endloop
  endfacet
  facet normal 0 0.707107 0.707107
    outer loop
      vertex 1 6.16081 29.9397
      vertex 9 17.7574 18.3431
      vertex 1 17.7574 18.3431
    endloop
  endfacet
  facet normal 0 0.707107 -0.707107
    outer loop
      vertex 9 6.16081 29.9397
      vertex 1 37.2735 61.0524
      vertex 9 37.2735 61.0524
    endloop
  endfacet
  facet normal 0 0.707107 -0.707107
    outer loop
      vertex 1 37.2735 61.0524
      vertex 9 6.16081 29.9397
      vertex 1 6.16081 29.9397
    endloop
  endfacet
  facet normal 1 0 0
    outer loop
      vertex 84.4 36.5664 61.7595
      vertex 84.4 17.7574 16.9289
      vertex 84.4 49.5772 48.7487
    endloop
  endfacet
  facet normal 1 0 -0
    outer loop
      vertex 84.4 17.7574 16.9289
      vertex 84.4 36.5664 61.7595
      vertex 84.4 4.74659 29.9397
    endloop
  endfacet
  facet normal 0 0.707107 0.707107
    outer loop
      vertex 84.4 36.5664 61.7595
      vertex 83.4 37.2735 61.0524
      vertex 75.4 36.5664 61.7595
    endloop
  endfacet
  facet normal 0 0.707107 0.707107
    outer loop
      vertex 84.4 36.5664 61.7595
      vertex 83.4 48.8701 49.4558
      vertex 83.4 37.2735 61.0524
    endloop
  endfacet
  facet normal 0 0.707107 0.707107
    outer loop
      vertex 84.4 49.5772 48.7487
      vertex 83.4 48.8701 49.4558
      vertex 84.4 36.5664 61.7595
    endloop
  endfacet
  facet normal -0 0.707107 0.707107
    outer loop
      vertex 75.4 49.5772 48.7487
      vertex 83.4 48.8701 49.4558
      vertex 84.4 49.5772 48.7487
    endloop
  endfacet
  facet normal 0 0.707107 0.707107
    outer loop
      vertex 83.4 48.8701 49.4558
      vertex 75.4 49.5772 48.7487
      vertex 75.4 48.8701 49.4558
    endloop
  endfacet
  facet normal 0 0.707107 0.707107
    outer loop
      vertex 75.4 36.5664 61.7595
      vertex 83.4 37.2735 61.0524
      vertex 75.4 37.2735 61.0524
    endloop
  endfacet
  facet normal -1 0 0
    outer loop
      vertex 75.4 17.7574 18.3431
      vertex 75.4 49.5772 48.7487
      vertex 75.4 18.1109 17.2825
    endloop
  endfacet
  facet normal -1 -0 0
    outer loop
      vertex 75.4 49.5772 48.7487
      vertex 75.4 17.7574 18.3431
      vertex 75.4 48.8701 49.4558
    endloop
  endfacet
  facet normal -1 0 0
    outer loop
      vertex 75.4 7.36289 28.0305
      vertex 75.4 17.7574 18.3431
      vertex 75.4 18.1109 17.2825
    endloop
  endfacet
  facet normal -1 0 0
    outer loop
      vertex 75.4 7.36289 28.0305
      vertex 75.4 6.16081 29.9397
      vertex 75.4 17.7574 18.3431
    endloop
  endfacet
  facet normal -1 0 0
    outer loop
      vertex 75.4 7.00934 27.677
      vertex 75.4 6.16081 29.9397
      vertex 75.4 7.36289 28.0305
    endloop
  endfacet
  facet normal -1 -0 -0
    outer loop
      vertex 75.4 6.16081 29.9397
      vertex 75.4 7.00934 27.677
      vertex 75.4 4.74659 29.9397
    endloop
  endfacet
  facet normal -1 0 0
    outer loop
      vertex 75.4 6.16081 29.9397
      vertex 75.4 36.5664 61.7595
      vertex 75.4 37.2735 61.0524
    endloop
  endfacet
  facet normal -1 0 0
    outer loop
      vertex 75.4 36.5664 61.7595
      vertex 75.4 6.16081 29.9397
      vertex 75.4 4.74659 29.9397
    endloop
  endfacet
  facet normal 0 -0.707107 -0.707107
    outer loop
      vertex 75.4 7.00934 27.677
      vertex 84.4 4.74659 29.9397
      vertex 75.4 4.74659 29.9397
    endloop
  endfacet
  facet normal 0 -0.707107 -0.707107
    outer loop
      vertex 84.4 4.74659 29.9397
      vertex 75.4 7.00934 27.677
      vertex 84.4 7.00934 27.677
    endloop
  endfacet
  facet normal 1 0 0
    outer loop
      vertex 84.4 4.74659 29.9397
      vertex 84.4 7.00934 27.677
      vertex 84.4 17.7574 16.9289
    endloop
  endfacet
  facet normal 0 -0.707107 0.707107
    outer loop
      vertex 75.4 4.74659 29.9397
      vertex 84.4 36.5664 61.7595
      vertex 75.4 36.5664 61.7595
    endloop
  endfacet
  facet normal 0 -0.707107 0.707107
    outer loop
      vertex 84.4 36.5664 61.7595
      vertex 75.4 4.74659 29.9397
      vertex 84.4 4.74659 29.9397
    endloop
  endfacet
  facet normal 0 0.707107 -0.707107
    outer loop
      vertex 83.4 41.8284 41
      vertex 84.4 49.5772 48.7487
      vertex 84.4 41.8284 41
    endloop
  endfacet
  facet normal 0 0.707107 -0.707107
    outer loop
      vertex 84.4 49.5772 48.7487
      vertex 83.4 41.8284 41
      vertex 75.4 49.5772 48.7487
    endloop
  endfacet
  facet normal 0 0.707107 -0.707107
    outer loop
      vertex 75.4 18.1109 17.2825
      vertex 83.4 41.8284 41
      vertex 83.4 18.1109 17.2825
    endloop
  endfacet
  facet normal 0 0.707107 -0.707107
    outer loop
      vertex 83.4 41.8284 41
      vertex 75.4 18.1109 17.2825
      vertex 75.4 49.5772 48.7487
    endloop
  endfacet
  facet normal 0 0 0
    outer loop
      vertex 84.4 49.5772 48.7487
      vertex 84.4 17.7574 16.9289
      vertex 84.4 41.8284 41
    endloop
  endfacet
  facet normal -1 0 0
    outer loop
      vertex 83.4 17.7574 18.3431
      vertex 83.4 37.2735 61.0524
      vertex 83.4 48.8701 49.4558
    endloop
  endfacet
  facet normal -1 0 0
    outer loop
      vertex 83.4 37.2735 61.0524
      vertex 83.4 17.7574 18.3431
      vertex 83.4 6.16081 29.9397
    endloop
  endfacet
  facet normal 0 -0.707107 0.707107
    outer loop
      vertex 75.4 17.7574 18.3431
      vertex 83.4 48.8701 49.4558
      vertex 75.4 48.8701 49.4558
    endloop
  endfacet
  facet normal 0 -0.707107 0.707107
    outer loop
      vertex 83.4 48.8701 49.4558
      vertex 75.4 17.7574 18.3431
      vertex 83.4 17.7574 18.3431
    endloop
  endfacet
  facet normal 0 0.707107 0.707107
    outer loop
      vertex 83.4 17.7574 18.3431
      vertex 75.4 6.16081 29.9397
      vertex 83.4 6.16081 29.9397
    endloop
  endfacet
  facet normal 0 0.707107 0.707107
    outer loop
      vertex 75.4 6.16081 29.9397
      vertex 83.4 17.7574 18.3431
      vertex 75.4 17.7574 18.3431
    endloop
  endfacet
  facet normal 0 0.707107 -0.707107
    outer loop
      vertex 83.4 6.16081 29.9397
      vertex 75.4 37.2735 61.0524
      vertex 83.4 37.2735 61.0524
    endloop
  endfacet
  facet normal 0 0.707107 -0.707107
    outer loop
      vertex 75.4 37.2735 61.0524
      vertex 83.4 6.16081 29.9397
      vertex 75.4 6.16081 29.9397
    endloop
  endfacet
  facet normal 0 -0.707107 0.707106
    outer loop
      vertex 75.4 7.36289 28.0305
      vertex 9 7.36289 28.0305
      vertex 75.4 7.00934 27.677
    endloop
  endfacet
  facet normal 0 -0.707105 0.707108
    outer loop
      vertex 75.4 7.00934 27.677
      vertex 84.4 6.65578 27.3234
      vertex 84.4 7.00934 27.677
    endloop
  endfacet
  facet normal 0 -0.707107 0.707106
    outer loop
      vertex 9 7.00934 27.677
      vertex 75.4 7.00934 27.677
      vertex 9 7.36289 28.0305
    endloop
  endfacet
  facet normal 0 -0.707105 0.707108
    outer loop
      vertex 75.4 7.00934 27.677
      vertex 9 7.00934 27.677
      vertex 84.4 6.65578 27.3234
    endloop
  endfacet
  facet normal 0 -0.707105 0.707108
    outer loop
      vertex 0 6.65578 27.3234
      vertex 9 7.00934 27.677
      vertex 0 7.00934 27.677
    endloop
  endfacet
  facet normal 0 -0.707105 0.707108
    outer loop
      vertex 9 7.00934 27.677
      vertex 0 6.65578 27.3234
      vertex 84.4 6.65578 27.3234
    endloop
  endfacet
  facet normal 0 0.707107 0.707107
    outer loop
      vertex 83.4 20.3737 15.0197
      vertex 75.4 18.1109 17.2825
      vertex 83.4 18.1109 17.2825
    endloop
  endfacet
  facet normal 0 0.707107 0.707107
    outer loop
      vertex 75.4 18.1109 17.2825
      vertex 83.4 20.3737 15.0197
      vertex 9 18.1109 17.2825
    endloop
  endfacet
  facet normal -0 0.707107 0.707107
    outer loop
      vertex 1 20.3737 15.0197
      vertex 9 18.1109 17.2825
      vertex 83.4 20.3737 15.0197
    endloop
  endfacet
  facet normal 0 0.707107 0.707107
    outer loop
      vertex 9 18.1109 17.2825
      vertex 1 20.3737 15.0197
      vertex 1 18.1109 17.2825
    endloop
  endfacet
  facet normal -0 0.707107 0.707107
    outer loop
      vertex 47.4 10.2726 25.1208
      vertex 75.4 7.36289 28.0305
      vertex 48.4 10.2726 25.1208
    endloop
  endfacet
  facet normal 9.10717e-09 0.707107 0.707107
    outer loop
      vertex 75.4 18.1109 17.2825
      vertex 48.4 10.2726 25.1208
      vertex 75.4 7.36289 28.0305
    endloop
  endfacet
  facet normal 0 0.707107 0.707107
    outer loop
      vertex 48.4 17.4639 17.9295
      vertex 75.4 18.1109 17.2825
      vertex 36 17.4639 17.9295
    endloop
  endfacet
  facet normal 0 0.707107 0.707107
    outer loop
      vertex 48.4 10.2726 25.1208
      vertex 75.4 18.1109 17.2825
      vertex 48.4 17.4639 17.9295
    endloop
  endfacet
  facet normal 0 0.707107 0.707107
    outer loop
      vertex 75.4 7.36289 28.0305
      vertex 47.4 10.2726 25.1208
      vertex 9 7.36289 28.0305
    endloop
  endfacet
  facet normal -0 0.707107 0.707107
    outer loop
      vertex 37 10.2726 25.1208
      vertex 9 7.36289 28.0305
      vertex 47.4 10.2726 25.1208
    endloop
  endfacet
  facet normal -0 0.707107 0.707107
    outer loop
      vertex 36 10.2726 25.1208
      vertex 9 7.36289 28.0305
      vertex 37 10.2726 25.1208
    endloop
  endfacet
  facet normal 0 0.707107 0.707107
    outer loop
      vertex 9 18.1109 17.2825
      vertex 36 10.2726 25.1208
      vertex 36 17.4639 17.9295
    endloop
  endfacet
  facet normal -9.10717e-09 0.707107 0.707107
    outer loop
      vertex 36 10.2726 25.1208
      vertex 9 18.1109 17.2825
      vertex 9 7.36289 28.0305
    endloop
  endfacet
  facet normal -0 0.707107 0.707107
    outer loop
      vertex 9 18.1109 17.2825
      vertex 36 17.4639 17.9295
      vertex 75.4 18.1109 17.2825
    endloop
  endfacet
  facet normal 0 0.707107 -0.707106
    outer loop
      vertex 83.4 19.6665 14.3126
      vertex 1 20.3737 15.0197
      vertex 83.4 20.3737 15.0197
    endloop
  endfacet
  facet normal 0 0.707107 -0.707106
    outer loop
      vertex 1 20.3737 15.0197
      vertex 83.4 19.6665 14.3126
      vertex 1 19.6665 14.3126
    endloop
  endfacet
  facet normal 0 -0.707107 -0.707107
    outer loop
      vertex 84.4 6.65578 27.3234
      vertex 83.4 16.6932 17.286
      vertex 84.4 16.6932 17.286
    endloop
  endfacet
  facet normal -3.85247e-08 -0.707107 -0.707107
    outer loop
      vertex 48.4 16.6967 17.2825
      vertex 83.4 16.6932 17.286
      vertex 48.4 9.56553 24.4137
    endloop
  endfacet
  facet normal 1.46403e-08 -0.707107 -0.707107
    outer loop
      vertex 84.4 6.65578 27.3234
      vertex 48.4 9.56553 24.4137
      vertex 83.4 16.6932 17.286
    endloop
  endfacet
  facet normal 0 -0.707107 -0.707107
    outer loop
      vertex 84.4 6.65578 27.3234
      vertex 47.5 9.56553 24.4137
      vertex 48.4 9.56553 24.4137
    endloop
  endfacet
  facet normal 0 -0.707107 -0.707107
    outer loop
      vertex 84.4 6.65578 27.3234
      vertex 36.9 9.56553 24.4137
      vertex 47.5 9.56553 24.4137
    endloop
  endfacet
  facet normal 0 -0.707107 -0.707107
    outer loop
      vertex 0 6.65578 27.3234
      vertex 36.9 9.56553 24.4137
      vertex 84.4 6.65578 27.3234
    endloop
  endfacet
  facet normal 0 -0.707107 -0.707107
    outer loop
      vertex 36 9.56553 24.4137
      vertex 3.3 16.6967 17.2825
      vertex 36 16.6967 17.2825
    endloop
  endfacet
  facet normal 5.86391e-07 -0.707107 -0.707107
    outer loop
      vertex 3.3 16.6967 17.2825
      vertex 1 16.6932 17.286
      vertex 3.3 17.4038 16.5754
    endloop
  endfacet
  facet normal -2.60764e-08 -0.707107 -0.707107
    outer loop
      vertex 0 6.65578 27.3234
      vertex 3.3 16.6967 17.2825
      vertex 36 9.56553 24.4137
    endloop
  endfacet
  facet normal -0 -0.707107 -0.707107
    outer loop
      vertex 36.9 9.56553 24.4137
      vertex 0 6.65578 27.3234
      vertex 36 9.56553 24.4137
    endloop
  endfacet
  facet normal 5.86739e-07 -0.707107 -0.707107
    outer loop
      vertex 3.3 16.6967 17.2825
      vertex 0 6.65578 27.3234
      vertex 1 16.6932 17.286
    endloop
  endfacet
  facet normal -0 -0.707107 -0.707107
    outer loop
      vertex 1 16.6932 17.286
      vertex 0 6.65578 27.3234
      vertex 0 16.6932 17.286
    endloop
  endfacet
  facet normal 0 -0.706916 -0.707298
    outer loop
      vertex 83.4 16.6932 17.286
      vertex 48.4 16.6967 17.2825
      vertex 83.4 16.6967 17.2825
    endloop
  endfacet
  facet normal 0 -0.707107 -0.707107
    outer loop
      vertex 3.3 17.4038 16.5754
      vertex 83.4 19.6665 14.3126
      vertex 83.4 17.4038 16.5754
    endloop
  endfacet
  facet normal 0 -0.707107 -0.707107
    outer loop
      vertex 3.3 17.4038 16.5754
      vertex 1 19.6665 14.3126
      vertex 83.4 19.6665 14.3126
    endloop
  endfacet
  facet normal 4.46243e-07 -0.707107 -0.707107
    outer loop
      vertex 1 19.6665 14.3126
      vertex 3.3 17.4038 16.5754
      vertex 1 16.6932 17.286
    endloop
  endfacet
  facet normal 1 0 0
    outer loop
      vertex 36 17.4639 17.9295
      vertex 36 16.8735 17.4593
      vertex 36 16.9336 17.3992
    endloop
  endfacet
  facet normal 1 0 0
    outer loop
      vertex 36 10.2726 25.1208
      vertex 36 16.8735 17.4593
      vertex 36 17.4639 17.9295
    endloop
  endfacet
  facet normal 1 -0 0
    outer loop
      vertex 36 9.56553 24.4137
      vertex 36 16.8735 17.4593
      vertex 36 10.2726 25.1208
    endloop
  endfacet
  facet normal 1 0 0
    outer loop
      vertex 36 16.8735 17.4593
      vertex 36 9.56553 24.4137
      vertex 36 16.6967 17.2825
    endloop
  endfacet
  facet normal 0 -0.707107 0.707107
    outer loop
      vertex 36 9.56553 24.4137
      vertex 36.9 -6.3373 8.51083
      vertex 36.9 9.56553 24.4137
    endloop
  endfacet
  facet normal -1.44153e-08 -0.707107 0.707107
    outer loop
      vertex 36 -6.9737 7.87443
      vertex 36.9 -6.3373 8.51083
      vertex 36 9.56553 24.4137
    endloop
  endfacet
  facet normal 0 -0.707107 0.707107
    outer loop
      vertex 37 -6.9737 7.87443
      vertex 36.9 -6.3373 8.51083
      vertex 36 -6.9737 7.87443
    endloop
  endfacet
  facet normal 0 -0.707107 0.707107
    outer loop
      vertex 36.9 -6.3373 8.51083
      vertex 37 -6.9737 7.87443
      vertex 37 -6.3373 8.51083
    endloop
  endfacet
  facet normal 0 -0.707107 0.707107
    outer loop
      vertex 47.4 -6.3373 8.51083
      vertex 47.4 -6.9737 7.87443
      vertex 47.5 -6.3373 8.51083
    endloop
  endfacet
  facet normal 0 -0.707107 0.707107
    outer loop
      vertex 47.5 -6.3373 8.51083
      vertex 48.4 9.56553 24.4137
      vertex 47.5 9.56553 24.4137
    endloop
  endfacet
  facet normal 1.44153e-08 -0.707107 0.707107
    outer loop
      vertex 47.5 -6.3373 8.51083
      vertex 48.4 -6.9737 7.87443
      vertex 48.4 9.56553 24.4137
    endloop
  endfacet
  facet normal 0 -0.707107 0.707107
    outer loop
      vertex 48.4 -6.9737 7.87443
      vertex 47.5 -6.3373 8.51083
      vertex 47.4 -6.9737 7.87443
    endloop
  endfacet
  facet normal 0 -0.707106 0.707108
    outer loop
      vertex 47.4 10.5484 25.3965
      vertex 48.4 10.2726 25.1208
      vertex 48.4 10.5484 25.3965
    endloop
  endfacet
  facet normal 0 -0.707106 0.707108
    outer loop
      vertex 48.4 10.2726 25.1208
      vertex 47.4 10.5484 25.3965
      vertex 47.4 10.2726 25.1208
    endloop
  endfacet
  facet normal 0 -0.707106 0.707108
    outer loop
      vertex 36 10.5484 25.3965
      vertex 37 10.2726 25.1208
      vertex 37 10.5484 25.3965
    endloop
  endfacet
  facet normal 0 -0.707106 0.707108
    outer loop
      vertex 37 10.2726 25.1208
      vertex 36 10.5484 25.3965
      vertex 36 10.2726 25.1208
    endloop
  endfacet
  facet normal 0 0.707108 -0.707106
    outer loop
      vertex 47.5 9.56553 24.4137
      vertex 47.4 9.91201 24.7601
      vertex 47.5 9.91201 24.7601
    endloop
  endfacet
  facet normal 0 0.707108 -0.707106
    outer loop
      vertex 47.4 9.91201 24.7601
      vertex 47.5 9.56553 24.4137
      vertex 37 9.91201 24.7601
    endloop
  endfacet
  facet normal 0 0.707108 -0.707106
    outer loop
      vertex 36.9 9.56553 24.4137
      vertex 37 9.91201 24.7601
      vertex 47.5 9.56553 24.4137
    endloop
  endfacet
  facet normal 0 0.707108 -0.707106
    outer loop
      vertex 37 9.91201 24.7601
      vertex 36.9 9.56553 24.4137
      vertex 36.9 9.91201 24.7601
    endloop
  endfacet
  facet normal 0 0.707107 -0.707107
    outer loop
      vertex 47.4 9.91201 24.7601
      vertex 37 10.2726 25.1208
      vertex 47.4 10.2726 25.1208
    endloop
  endfacet
  facet normal 0 0.707107 -0.707107
    outer loop
      vertex 37 10.2726 25.1208
      vertex 47.4 9.91201 24.7601
      vertex 37 9.91201 24.7601
    endloop
  endfacet
  facet normal 0 0.707104 -0.707109
    outer loop
      vertex 36 17.4639 17.9295
      vertex 48.4 17.7397 18.2053
      vertex 48.4 17.4639 17.9295
    endloop
  endfacet
  facet normal 0 0.707104 -0.707109
    outer loop
      vertex 48.4 17.7397 18.2053
      vertex 36 17.4639 17.9295
      vertex 36 17.7397 18.2053
    endloop
  endfacet
  facet normal -1 0 0
    outer loop
      vertex 36 0 0.90073
      vertex 36 -6.9737 7.87443
      vertex 36 0 2.5
    endloop
  endfacet
  facet normal -1 0 0
    outer loop
      vertex 36 16.8735 17.4593
      vertex 36 17.4639 17.9295
      vertex 36 16.9336 17.3992
    endloop
  endfacet
  facet normal -1 0 0
    outer loop
      vertex 36 16.8735 17.4593
      vertex 36 17.7397 18.2053
      vertex 36 17.4639 17.9295
    endloop
  endfacet
  facet normal -1 0 0
    outer loop
      vertex 36 16.8735 17.4593
      vertex 36 10.5484 25.3965
      vertex 36 17.7397 18.2053
    endloop
  endfacet
  facet normal -1 0 0
    outer loop
      vertex 36 16.8735 17.4593
      vertex 36 10.2726 25.1208
      vertex 36 10.5484 25.3965
    endloop
  endfacet
  facet normal -1 0 0
    outer loop
      vertex 36 16.8735 17.4593
      vertex 36 9.56553 24.4137
      vertex 36 10.2726 25.1208
    endloop
  endfacet
  facet normal -1 0 0
    outer loop
      vertex 36 1.91421 2.5
      vertex 36 9.56553 24.4137
      vertex 36 16.8735 17.4593
    endloop
  endfacet
  facet normal -1 0 0
    outer loop
      vertex 36 -6.9737 7.87443
      vertex 36 1.91421 2.5
      vertex 36 0 2.5
    endloop
  endfacet
  facet normal -1 0 0
    outer loop
      vertex 36 1.91421 2.5
      vertex 36 -6.9737 7.87443
      vertex 36 9.56553 24.4137
    endloop
  endfacet
  facet normal 1 0 0
    outer loop
      vertex 48.4 9.56553 24.4137
      vertex 48.4 1.91421 2.5
      vertex 48.4 16.6967 17.2825
    endloop
  endfacet
  facet normal 1 -0 0
    outer loop
      vertex 48.4 -6.9737 7.87443
      vertex 48.4 1.91421 2.5
      vertex 48.4 9.56553 24.4137
    endloop
  endfacet
  facet normal 1 0 0
    outer loop
      vertex 48.4 0 2.5
      vertex 48.4 -6.9737 7.87443
      vertex 48.4 0 0.90073
    endloop
  endfacet
  facet normal 1 0 0
    outer loop
      vertex 48.4 1.91421 2.5
      vertex 48.4 -6.9737 7.87443
      vertex 48.4 0 2.5
    endloop
  endfacet
  facet normal 1 0 0
    outer loop
      vertex 48.4 10.5484 25.3965
      vertex 48.4 17.4639 17.9295
      vertex 48.4 17.7397 18.2053
    endloop
  endfacet
  facet normal 1 0 0
    outer loop
      vertex 48.4 17.4639 17.9295
      vertex 48.4 10.5484 25.3965
      vertex 48.4 10.2726 25.1208
    endloop
  endfacet
  facet normal 0 -0.707107 -0.707107
    outer loop
      vertex 36 -6.9737 7.87443
      vertex 37 -2.75227 3.653
      vertex 37 -6.9737 7.87443
    endloop
  endfacet
  facet normal 0 -0.707107 -0.707107
    outer loop
      vertex 37 -2.75227 3.653
      vertex 36 0 0.90073
      vertex 47.4 -2.75227 3.653
    endloop
  endfacet
  facet normal -6.65355e-08 -0.707107 -0.707107
    outer loop
      vertex 36 0 0.90073
      vertex 37 -2.75227 3.653
      vertex 36 -6.9737 7.87443
    endloop
  endfacet
  facet normal 0 -0.707107 -0.707107
    outer loop
      vertex 47.4 -2.75227 3.653
      vertex 48.4 -6.9737 7.87443
      vertex 47.4 -6.9737 7.87443
    endloop
  endfacet
  facet normal 6.65355e-08 -0.707107 -0.707107
    outer loop
      vertex 47.4 -2.75227 3.653
      vertex 48.4 0 0.90073
      vertex 48.4 -6.9737 7.87443
    endloop
  endfacet
  facet normal -0 -0.707107 -0.707107
    outer loop
      vertex 48.4 0 0.90073
      vertex 47.4 -2.75227 3.653
      vertex 36 0 0.90073
    endloop
  endfacet
  facet normal 2.78492e-07 0.707107 0.707107
    outer loop
      vertex 48.4 17.7397 18.2053
      vertex 47.4 14.7698 21.1751
      vertex 48.4 10.5484 25.3965
    endloop
  endfacet
  facet normal 0 0.707107 0.707107
    outer loop
      vertex 48.4 17.7397 18.2053
      vertex 37 14.7698 21.1751
      vertex 47.4 14.7698 21.1751
    endloop
  endfacet
  facet normal -0 0.707107 0.707107
    outer loop
      vertex 36 17.7397 18.2053
      vertex 37 14.7698 21.1751
      vertex 48.4 17.7397 18.2053
    endloop
  endfacet
  facet normal -2.78492e-07 0.707107 0.707107
    outer loop
      vertex 36 10.5484 25.3965
      vertex 37 14.7698 21.1751
      vertex 36 17.7397 18.2053
    endloop
  endfacet
  facet normal 0 0.707107 0.707107
    outer loop
      vertex 37 14.7698 21.1751
      vertex 36 10.5484 25.3965
      vertex 37 10.5484 25.3965
    endloop
  endfacet
  facet normal 0 0.707107 0.707107
    outer loop
      vertex 48.4 10.5484 25.3965
      vertex 47.4 14.7698 21.1751
      vertex 47.4 10.5484 25.3965
    endloop
  endfacet
  facet normal 1 -0 0
    outer loop
      vertex 36.9 9.56553 24.4137
      vertex 36.9 16.0426 18.6295
      vertex 36.9 9.91201 24.7601
    endloop
  endfacet
  facet normal 1 0 0
    outer loop
      vertex 36.9 9.56553 24.4137
      vertex 36.9 -0.206689 2.38021
      vertex 36.9 16.0426 18.6295
    endloop
  endfacet
  facet normal 1 0 -0
    outer loop
      vertex 36.9 -0.206689 2.38021
      vertex 36.9 9.56553 24.4137
      vertex 36.9 -6.3373 8.51083
    endloop
  endfacet
  facet normal -1 0 0
    outer loop
      vertex 47.5 16.0426 18.6295
      vertex 47.5 9.56553 24.4137
      vertex 47.5 9.91201 24.7601
    endloop
  endfacet
  facet normal -1 0 0
    outer loop
      vertex 47.5 -0.206689 2.38021
      vertex 47.5 9.56553 24.4137
      vertex 47.5 16.0426 18.6295
    endloop
  endfacet
  facet normal -1 0 0
    outer loop
      vertex 47.5 9.56553 24.4137
      vertex 47.5 -0.206689 2.38021
      vertex 47.5 -6.3373 8.51083
    endloop
  endfacet
  facet normal 0 -0.707107 -0.707107
    outer loop
      vertex 36.9 9.91201 24.7601
      vertex 37 14.1334 20.5387
      vertex 37 9.91201 24.7601
    endloop
  endfacet
  facet normal 0 -0.707107 -0.707107
    outer loop
      vertex 37 14.1334 20.5387
      vertex 36.9 16.0426 18.6295
      vertex 47.4 14.1334 20.5387
    endloop
  endfacet
  facet normal 0 -0.707107 -0.707107
    outer loop
      vertex 36.9 16.0426 18.6295
      vertex 37 14.1334 20.5387
      vertex 36.9 9.91201 24.7601
    endloop
  endfacet
  facet normal 0 -0.707107 -0.707107
    outer loop
      vertex 47.4 14.1334 20.5387
      vertex 47.5 9.91201 24.7601
      vertex 47.4 9.91201 24.7601
    endloop
  endfacet
  facet normal 0 -0.707107 -0.707107
    outer loop
      vertex 47.4 14.1334 20.5387
      vertex 47.5 16.0426 18.6295
      vertex 47.5 9.91201 24.7601
    endloop
  endfacet
  facet normal -0 -0.707107 -0.707107
    outer loop
      vertex 47.5 16.0426 18.6295
      vertex 47.4 14.1334 20.5387
      vertex 36.9 16.0426 18.6295
    endloop
  endfacet
  facet normal 0 -0.707107 0.707107
    outer loop
      vertex 36.9 16.0426 18.6295
      vertex 47.5 -0.206689 2.38021
      vertex 47.5 16.0426 18.6295
    endloop
  endfacet
  facet normal 0 -0.707107 0.707107
    outer loop
      vertex 47.5 -0.206689 2.38021
      vertex 36.9 16.0426 18.6295
      vertex 36.9 -0.206689 2.38021
    endloop
  endfacet
  facet normal 0 0.707107 0.707107
    outer loop
      vertex 47.5 -6.3373 8.51083
      vertex 47.4 -2.11588 4.2894
      vertex 47.4 -6.3373 8.51083
    endloop
  endfacet
  facet normal 0 0.707107 0.707107
    outer loop
      vertex 47.4 -2.11588 4.2894
      vertex 47.5 -0.206689 2.38021
      vertex 37 -2.11588 4.2894
    endloop
  endfacet
  facet normal 1.41282e-06 0.707107 0.707107
    outer loop
      vertex 47.5 -0.206689 2.38021
      vertex 47.4 -2.11588 4.2894
      vertex 47.5 -6.3373 8.51083
    endloop
  endfacet
  facet normal 0 0.707107 0.707107
    outer loop
      vertex 37 -2.11588 4.2894
      vertex 36.9 -6.3373 8.51083
      vertex 37 -6.3373 8.51083
    endloop
  endfacet
  facet normal -1.41282e-06 0.707107 0.707107
    outer loop
      vertex 37 -2.11588 4.2894
      vertex 36.9 -0.206689 2.38021
      vertex 36.9 -6.3373 8.51083
    endloop
  endfacet
  facet normal -0 0.707107 0.707107
    outer loop
      vertex 36.9 -0.206689 2.38021
      vertex 37 -2.11588 4.2894
      vertex 47.5 -0.206689 2.38021
    endloop
  endfacet
  facet normal 1 -0 0
    outer loop
      vertex 37 10.2726 25.1208
      vertex 37 14.7698 21.1751
      vertex 37 10.5484 25.3965
    endloop
  endfacet
  facet normal 1 0 0
    outer loop
      vertex 37 14.7698 21.1751
      vertex 37 10.2726 25.1208
      vertex 37 14.1334 20.5387
    endloop
  endfacet
  facet normal 1 0 0
    outer loop
      vertex 37 14.1334 20.5387
      vertex 37 10.2726 25.1208
      vertex 37 9.91201 24.7601
    endloop
  endfacet
  facet normal -1 0 0
    outer loop
      vertex 47.4 10.2726 25.1208
      vertex 47.4 14.7698 21.1751
      vertex 47.4 14.1334 20.5387
    endloop
  endfacet
  facet normal -1 0 0
    outer loop
      vertex 47.4 14.7698 21.1751
      vertex 47.4 10.2726 25.1208
      vertex 47.4 10.5484 25.3965
    endloop
  endfacet
  facet normal -1 0 -0
    outer loop
      vertex 47.4 10.2726 25.1208
      vertex 47.4 14.1334 20.5387
      vertex 47.4 9.91201 24.7601
    endloop
  endfacet
  facet normal 0 -0.707106 0.707108
    outer loop
      vertex 37 14.7698 21.1751
      vertex 47.4 14.1334 20.5387
      vertex 47.4 14.7698 21.1751
    endloop
  endfacet
  facet normal 0 -0.707106 0.707108
    outer loop
      vertex 47.4 14.1334 20.5387
      vertex 37 14.7698 21.1751
      vertex 37 14.1334 20.5387
    endloop
  endfacet
  facet normal 1 0 0
    outer loop
      vertex 37 -6.3373 8.51083
      vertex 37 -2.75227 3.653
      vertex 37 -2.11588 4.2894
    endloop
  endfacet
  facet normal 1 0 0
    outer loop
      vertex 37 -2.75227 3.653
      vertex 37 -6.3373 8.51083
      vertex 37 -6.9737 7.87443
    endloop
  endfacet
  facet normal -1 0 0
    outer loop
      vertex 47.4 -2.75227 3.653
      vertex 47.4 -6.3373 8.51083
      vertex 47.4 -2.11588 4.2894
    endloop
  endfacet
  facet normal -1 0 -0
    outer loop
      vertex 47.4 -6.3373 8.51083
      vertex 47.4 -2.75227 3.653
      vertex 47.4 -6.9737 7.87443
    endloop
  endfacet
  facet normal 0 -0.707107 0.707107
    outer loop
      vertex 37 -2.75227 3.653
      vertex 47.4 -2.11588 4.2894
      vertex 37 -2.11588 4.2894
    endloop
  endfacet
  facet normal 0 -0.707107 0.707107
    outer loop
      vertex 47.4 -2.11588 4.2894
      vertex 37 -2.75227 3.653
      vertex 47.4 -2.75227 3.653
    endloop
  endfacet
  facet normal -1 0 0
    outer loop
      vertex 3.3 3.32843 2.5
      vertex 3.3 16.6967 17.2825
      vertex 3.3 17.4038 16.5754
    endloop
  endfacet
  facet normal -1 0 0
    outer loop
      vertex 3.3 16.6967 17.2825
      vertex 3.3 3.32843 2.5
      vertex 3.3 1.91421 2.5
    endloop
  endfacet
  facet normal 0 -0.707107 0.707107
    outer loop
      vertex 3.3 1.91421 2.5
      vertex 36 16.6967 17.2825
      vertex 3.3 16.6967 17.2825
    endloop
  endfacet
  facet normal 0 -0.707107 0.707107
    outer loop
      vertex 36 16.6967 17.2825
      vertex 3.3 1.91421 2.5
      vertex 36 1.91421 2.5
    endloop
  endfacet
  facet normal 1 -0 0
    outer loop
      vertex 36 16.6967 17.2825
      vertex 36 1.91421 2.5
      vertex 36 16.8735 17.4593
    endloop
  endfacet
  facet normal 0 -0.707107 0.707107
    outer loop
      vertex 84.4 0.256466 0.842253
      vertex 86.7 16.8735 17.4593
      vertex 84.4 16.8735 17.4593
    endloop
  endfacet
  facet normal 0 -0.707107 0.707107
    outer loop
      vertex 86.7 16.8735 17.4593
      vertex 84.4 0.256466 0.842253
      vertex 86.7 0.256466 0.842253
    endloop
  endfacet
  facet normal 0 -0.707107 0.707107
    outer loop
      vertex 48.4 1.91421 2.5
      vertex 83.4 16.6967 17.2825
      vertex 48.4 16.6967 17.2825
    endloop
  endfacet
  facet normal 0 -0.707107 0.707107
    outer loop
      vertex 83.4 16.6967 17.2825
      vertex 48.4 1.91421 2.5
      vertex 83.4 1.91421 2.5
    endloop
  endfacet
  facet normal 1 0 0
    outer loop
      vertex 86.7 16.8735 17.4593
      vertex 86.7 0.963573 0.135146
      vertex 86.7 17.5806 16.7522
    endloop
  endfacet
  facet normal 1 0 -0
    outer loop
      vertex 86.7 0.963573 0.135146
      vertex 86.7 16.8735 17.4593
      vertex 86.7 0.256466 0.842253
    endloop
  endfacet
  facet normal 0 0.707107 -0.707107
    outer loop
      vertex 86.7 0.963573 0.135146
      vertex 84.4 17.5806 16.7522
      vertex 86.7 17.5806 16.7522
    endloop
  endfacet
  facet normal 0 0.707107 -0.707107
    outer loop
      vertex 84.4 17.5806 16.7522
      vertex 86.7 0.963573 0.135146
      vertex 84.4 0.963573 0.135146
    endloop
  endfacet
  facet normal 0 0.707107 -0.707107
    outer loop
      vertex 3.3 3.32843 2.5
      vertex 83.4 17.4038 16.5754
      vertex 83.4 3.32843 2.5
    endloop
  endfacet
  facet normal 0 0.707107 -0.707107
    outer loop
      vertex 83.4 17.4038 16.5754
      vertex 3.3 3.32843 2.5
      vertex 3.3 17.4038 16.5754
    endloop
  endfacet
  facet normal 0 -0.707107 -0.707107
    outer loop
      vertex 84.4 0.256466 0.842253
      vertex 86.7 0.963573 0.135146
      vertex 86.7 0.256466 0.842253
    endloop
  endfacet
  facet normal -0 -0.707107 -0.707107
    outer loop
      vertex 86.7 0.963573 0.135146
      vertex 84.4 0.256466 0.842253
      vertex 84.4 0.963573 0.135146
    endloop
  endfacet
  facet normal 0 0.707108 0.707106
    outer loop
      vertex 86.7 17.5806 16.7522
      vertex 84.4 16.8735 17.4593
      vertex 86.7 16.8735 17.4593
    endloop
  endfacet
  facet normal 0 0.707108 0.707106
    outer loop
      vertex 84.4 16.8735 17.4593
      vertex 86.7 17.5806 16.7522
      vertex 84.4 17.5806 16.7522
    endloop
  endfacet
  facet normal 1 0 0
    outer loop
      vertex 1 41.8284 41
      vertex 1 18.1109 17.2825
      vertex 1 20.3737 15.0197
    endloop
  endfacet
  facet normal 1 -0 0
    outer loop
      vertex 1 41.8284 41
      vertex 1 42 2.5
      vertex 1 42 41
    endloop
  endfacet
  facet normal 1 -0 0
    outer loop
      vertex 1 20.3737 15.0197
      vertex 1 42 2.5
      vertex 1 41.8284 41
    endloop
  endfacet
  facet normal 1 -0 0
    outer loop
      vertex 1 19.6665 14.3126
      vertex 1 42 2.5
      vertex 1 20.3737 15.0197
    endloop
  endfacet
  facet normal 1 0 0
    outer loop
      vertex 1 19.6665 14.3126
      vertex 1 1.5375 2.5
      vertex 1 42 2.5
    endloop
  endfacet
  facet normal 1 0 0
    outer loop
      vertex 1 1.5375 2.5
      vertex 1 19.6665 14.3126
      vertex 1 16.6932 17.286
    endloop
  endfacet
  facet normal 0 1 -0
    outer loop
      vertex 1 42 2.5
      vertex 0 42 41
      vertex 1 42 41
    endloop
  endfacet
  facet normal 0 1 0
    outer loop
      vertex 0 42 41
      vertex 1 42 2.5
      vertex 0 42 2.5
    endloop
  endfacet
  facet normal 0 -0.698324 0.715782
    outer loop
      vertex 0 16.6932 17.286
      vertex 1 1.5375 2.5
      vertex 1 16.6932 17.286
    endloop
  endfacet
  facet normal 0 -0.698324 0.715782
    outer loop
      vertex 1 1.5375 2.5
      vertex 0 16.6932 17.286
      vertex 0 1.5375 2.5
    endloop
  endfacet
  facet normal -0 0 1
    outer loop
      vertex 0 42 41
      vertex 1 41.8284 41
      vertex 1 42 41
    endloop
  endfacet
  facet normal 0 0 1
    outer loop
      vertex 1 41.8284 41
      vertex 0 42 41
      vertex 0 41.8284 41
    endloop
  endfacet
  facet normal -1 0 0
    outer loop
      vertex 83.4 42 2.5
      vertex 83.4 41.8284 41
      vertex 83.4 42 41
    endloop
  endfacet
  facet normal -1 0 0
    outer loop
      vertex 83.4 42 2.5
      vertex 83.4 20.3737 15.0197
      vertex 83.4 41.8284 41
    endloop
  endfacet
  facet normal -1 0 0
    outer loop
      vertex 83.4 42 2.5
      vertex 83.4 19.6665 14.3126
      vertex 83.4 20.3737 15.0197
    endloop
  endfacet
  facet normal -1 -0 0
    outer loop
      vertex 83.4 19.6665 14.3126
      vertex 83.4 3.32843 2.5
      vertex 83.4 17.4038 16.5754
    endloop
  endfacet
  facet normal -1 0 0
    outer loop
      vertex 83.4 3.32843 2.5
      vertex 83.4 19.6665 14.3126
      vertex 83.4 42 2.5
    endloop
  endfacet
  facet normal -1 0 0
    outer loop
      vertex 83.4 41.8284 41
      vertex 83.4 20.3737 15.0197
      vertex 83.4 18.1109 17.2825
    endloop
  endfacet
  facet normal -1 0 0
    outer loop
      vertex 83.4 1.91421 2.5
      vertex 83.4 16.6932 17.286
      vertex 83.4 16.6967 17.2825
    endloop
  endfacet
  facet normal -1 0 0
    outer loop
      vertex 83.4 16.6932 17.286
      vertex 83.4 1.91421 2.5
      vertex 83.4 1.5375 2.5
    endloop
  endfacet
  facet normal 0 1 -0
    outer loop
      vertex 84.4 42 2.5
      vertex 83.4 42 41
      vertex 84.4 42 41
    endloop
  endfacet
  facet normal 0 1 0
    outer loop
      vertex 83.4 42 41
      vertex 84.4 42 2.5
      vertex 83.4 42 2.5
    endloop
  endfacet
  facet normal 0 -0.698324 0.715782
    outer loop
      vertex 83.4 16.6932 17.286
      vertex 84.4 1.5375 2.5
      vertex 84.4 16.6932 17.286
    endloop
  endfacet
  facet normal 0 -0.698324 0.715782
    outer loop
      vertex 84.4 1.5375 2.5
      vertex 83.4 16.6932 17.286
      vertex 83.4 1.5375 2.5
    endloop
  endfacet
  facet normal -0 0 1
    outer loop
      vertex 83.4 42 41
      vertex 84.4 41.8284 41
      vertex 84.4 42 41
    endloop
  endfacet
  facet normal 0 0 1
    outer loop
      vertex 84.4 41.8284 41
      vertex 83.4 42 41
      vertex 83.4 41.8284 41
    endloop
  endfacet
endsolid OpenSCAD_Model
