solid OpenSCAD_Model
  facet normal -1 0 0
    outer loop
      vertex 0 120 0
      vertex 0 42 2.5
      vertex 0 120 2.5
    endloop
  endfacet
  facet normal -1 0 0
    outer loop
      vertex 0 42 2.5
      vertex 0 41.7696 41
      vertex 0 42 41
    endloop
  endfacet
  facet normal -1 0 0
    outer loop
      vertex 0 16.6932 17.286
      vertex 0 41.7696 41
      vertex 0 42 2.5
    endloop
  endfacet
  facet normal -1 0 0
    outer loop
      vertex 0 9.27208 25.4142
      vertex 0 41.7696 41
      vertex 0 16.6932 17.286
    endloop
  endfacet
  facet normal -1 0 0
    outer loop
      vertex 0 42 2.5
      vertex 0 1.5375 2.5
      vertex 0 16.6932 17.286
    endloop
  endfacet
  facet normal -1 0 0
    outer loop
      vertex 0 0 0
      vertex 0 42 2.5
      vertex 0 120 0
    endloop
  endfacet
  facet normal -1 -0 0
    outer loop
      vertex 0 42 2.5
      vertex 0 0 0
      vertex 0 1.5375 2.5
    endloop
  endfacet
  facet normal -1 -0 0
    outer loop
      vertex 0 1.5375 2.5
      vertex 0 0 0
      vertex 0 0 2.5
    endloop
  endfacet
  facet normal -1 -0 0
    outer loop
      vertex 0 41.7696 41
      vertex 0 9.27208 25.4142
      vertex 0 33.3137 49.4558
    endloop
  endfacet
  facet normal -1 0 -0
    outer loop
      vertex 0 9.27208 25.4142
      vertex 0 16.6932 17.286
      vertex 0 8.91852 25.0607
    endloop
  endfacet
  facet normal 0 0.707107 0.707107
    outer loop
      vertex 9 41.0919 41.6777
      vertex 1 41.7696 41
      vertex 1 41.0919 41.6777
    endloop
  endfacet
  facet normal 3.23139e-07 0.707109 0.707105
    outer loop
      vertex 9 41.799 40.9706
      vertex 1 41.7696 41
      vertex 9 41.0919 41.6777
    endloop
  endfacet
  facet normal 0 0.707153 0.707061
    outer loop
      vertex 1 41.7696 41
      vertex 9 41.799 40.9706
      vertex 1 41.799 40.9706
    endloop
  endfacet
  facet normal -0 0.707107 0.707107
    outer loop
      vertex 1 34.0208 48.7487
      vertex 9 33.3137 49.4558
      vertex 9 34.0208 48.7487
    endloop
  endfacet
  facet normal 0 0.707107 0.707107
    outer loop
      vertex 9 33.3137 49.4558
      vertex 1 34.0208 48.7487
      vertex 0 33.3137 49.4558
    endloop
  endfacet
  facet normal 0 0.707107 0.707107
    outer loop
      vertex 0 41.7696 41
      vertex 1 34.0208 48.7487
      vertex 1 41.0919 41.6777
    endloop
  endfacet
  facet normal -0 0.707107 0.707107
    outer loop
      vertex 0 41.7696 41
      vertex 1 41.0919 41.6777
      vertex 1 41.7696 41
    endloop
  endfacet
  facet normal 0 0.707107 0.707107
    outer loop
      vertex 1 34.0208 48.7487
      vertex 0 41.7696 41
      vertex 0 33.3137 49.4558
    endloop
  endfacet
  facet normal 1 0 0
    outer loop
      vertex 9 33.3137 49.4558
      vertex 9 10.6863 25.4142
      vertex 9 34.0208 48.7487
    endloop
  endfacet
  facet normal 1 0 -0
    outer loop
      vertex 9 10.6863 25.4142
      vertex 9 33.3137 49.4558
      vertex 9 9.62563 25.7678
    endloop
  endfacet
  facet normal 1 0 0
    outer loop
      vertex 9 17.7574 18.3431
      vertex 9 41.799 40.9706
      vertex 9 41.0919 41.6777
    endloop
  endfacet
  facet normal 1 0 0
    outer loop
      vertex 9 41.799 40.9706
      vertex 9 17.7574 18.3431
      vertex 9 18.1109 17.2825
    endloop
  endfacet
  facet normal 1 0 0
    outer loop
      vertex 9 10.6863 25.4142
      vertex 9 18.1109 17.2825
      vertex 9 17.7574 18.3431
    endloop
  endfacet
  facet normal 1 0 0
    outer loop
      vertex 9 18.1109 17.2825
      vertex 9 10.6863 25.4142
      vertex 9 9.62563 25.7678
    endloop
  endfacet
  facet normal 0 0 0
    outer loop
      vertex 9 9.62563 25.7678
      vertex 9 33.3137 49.4558
      vertex 9 9.27208 25.4142
    endloop
  endfacet
  facet normal 0 0.707107 -0.707107
    outer loop
      vertex 9 18.1109 17.2825
      vertex 1 41.799 40.9706
      vertex 9 41.799 40.9706
    endloop
  endfacet
  facet normal 0 0.707107 -0.707107
    outer loop
      vertex 1 41.799 40.9706
      vertex 9 18.1109 17.2825
      vertex 1 18.1109 17.2825
    endloop
  endfacet
  facet normal 0 -0.707107 0.707107
    outer loop
      vertex 0 9.27208 25.4142
      vertex 9 33.3137 49.4558
      vertex 0 33.3137 49.4558
    endloop
  endfacet
  facet normal 0 -0.707107 0.707107
    outer loop
      vertex 9 33.3137 49.4558
      vertex 0 9.27208 25.4142
      vertex 9 9.27208 25.4142
    endloop
  endfacet
  facet normal 1 0 0
    outer loop
      vertex 1 34.0208 48.7487
      vertex 1 17.7574 18.3431
      vertex 1 41.0919 41.6777
    endloop
  endfacet
  facet normal 1 0 -0
    outer loop
      vertex 1 17.7574 18.3431
      vertex 1 34.0208 48.7487
      vertex 1 10.6863 25.4142
    endloop
  endfacet
  facet normal 0 -0.707107 0.707107
    outer loop
      vertex 1 41.0919 41.6777
      vertex 9 17.7574 18.3431
      vertex 9 41.0919 41.6777
    endloop
  endfacet
  facet normal 0 -0.707107 0.707107
    outer loop
      vertex 9 17.7574 18.3431
      vertex 1 41.0919 41.6777
      vertex 1 17.7574 18.3431
    endloop
  endfacet
  facet normal 0 0.707107 0.707107
    outer loop
      vertex 9 17.7574 18.3431
      vertex 1 10.6863 25.4142
      vertex 9 10.6863 25.4142
    endloop
  endfacet
  facet normal 0 0.707107 0.707107
    outer loop
      vertex 1 10.6863 25.4142
      vertex 9 17.7574 18.3431
      vertex 1 17.7574 18.3431
    endloop
  endfacet
  facet normal 0 0.707107 -0.707107
    outer loop
      vertex 1 10.6863 25.4142
      vertex 9 34.0208 48.7487
      vertex 9 10.6863 25.4142
    endloop
  endfacet
  facet normal 0 0.707107 -0.707107
    outer loop
      vertex 9 34.0208 48.7487
      vertex 1 10.6863 25.4142
      vertex 1 34.0208 48.7487
    endloop
  endfacet
  facet normal 1 0 0
    outer loop
      vertex 89.4 33.3137 49.4558
      vertex 89.4 17.7574 16.9289
      vertex 89.4 41.799 40.9706
    endloop
  endfacet
  facet normal 1 0 -0
    outer loop
      vertex 89.4 17.7574 16.9289
      vertex 89.4 33.3137 49.4558
      vertex 89.4 9.27208 25.4142
    endloop
  endfacet
  facet normal 0 0.707107 0.707107
    outer loop
      vertex 89.4 33.3137 49.4558
      vertex 88.4 34.0208 48.7487
      vertex 80.4 33.3137 49.4558
    endloop
  endfacet
  facet normal 0 0.707107 0.707107
    outer loop
      vertex 89.4 41.7696 41
      vertex 88.4 34.0208 48.7487
      vertex 89.4 33.3137 49.4558
    endloop
  endfacet
  facet normal 0 0.707107 0.707107
    outer loop
      vertex 88.4 34.0208 48.7487
      vertex 89.4 41.7696 41
      vertex 88.4 41.0919 41.6777
    endloop
  endfacet
  facet normal -0 0.707107 0.707107
    outer loop
      vertex 88.4 41.7696 41
      vertex 88.4 41.0919 41.6777
      vertex 89.4 41.7696 41
    endloop
  endfacet
  facet normal 0 0.707107 0.707107
    outer loop
      vertex 88.4 41.0919 41.6777
      vertex 88.4 41.7696 41
      vertex 80.4 41.0919 41.6777
    endloop
  endfacet
  facet normal -0 0.707153 0.707061
    outer loop
      vertex 80.4 41.799 40.9706
      vertex 88.4 41.7696 41
      vertex 88.4 41.799 40.9706
    endloop
  endfacet
  facet normal -3.23139e-07 0.707109 0.707105
    outer loop
      vertex 88.4 41.7696 41
      vertex 80.4 41.799 40.9706
      vertex 80.4 41.0919 41.6777
    endloop
  endfacet
  facet normal 0 0.707107 0.707107
    outer loop
      vertex 80.4 33.3137 49.4558
      vertex 88.4 34.0208 48.7487
      vertex 80.4 34.0208 48.7487
    endloop
  endfacet
  facet normal 1 0 0
    outer loop
      vertex 89.4 41.7696 41
      vertex 89.4 33.3137 49.4558
      vertex 89.4 41.799 40.9706
    endloop
  endfacet
  facet normal -1 0 0
    outer loop
      vertex 80.4 17.7574 18.3431
      vertex 80.4 41.799 40.9706
      vertex 80.4 18.1109 17.2825
    endloop
  endfacet
  facet normal -1 -0 0
    outer loop
      vertex 80.4 41.799 40.9706
      vertex 80.4 17.7574 18.3431
      vertex 80.4 41.0919 41.6777
    endloop
  endfacet
  facet normal -1 0 0
    outer loop
      vertex 80.4 18.1109 17.2825
      vertex 80.4 10.6863 25.4142
      vertex 80.4 17.7574 18.3431
    endloop
  endfacet
  facet normal -1 -0 -0
    outer loop
      vertex 80.4 10.6863 25.4142
      vertex 80.4 18.1109 17.2825
      vertex 80.4 9.62563 25.7678
    endloop
  endfacet
  facet normal -1 0 0
    outer loop
      vertex 80.4 10.6863 25.4142
      vertex 80.4 33.3137 49.4558
      vertex 80.4 34.0208 48.7487
    endloop
  endfacet
  facet normal -1 0 0
    outer loop
      vertex 80.4 33.3137 49.4558
      vertex 80.4 10.6863 25.4142
      vertex 80.4 9.62563 25.7678
    endloop
  endfacet
  facet normal 0 0 0
    outer loop
      vertex 80.4 9.62563 25.7678
      vertex 80.4 9.27208 25.4142
      vertex 80.4 33.3137 49.4558
    endloop
  endfacet
  facet normal 0 0.707107 -0.707107
    outer loop
      vertex 88.4 18.1109 17.2825
      vertex 80.4 41.799 40.9706
      vertex 88.4 41.799 40.9706
    endloop
  endfacet
  facet normal 0 0.707107 -0.707107
    outer loop
      vertex 80.4 41.799 40.9706
      vertex 88.4 18.1109 17.2825
      vertex 80.4 18.1109 17.2825
    endloop
  endfacet
  facet normal 0 -0.707107 0.707107
    outer loop
      vertex 80.4 9.27208 25.4142
      vertex 89.4 33.3137 49.4558
      vertex 80.4 33.3137 49.4558
    endloop
  endfacet
  facet normal 0 -0.707107 0.707107
    outer loop
      vertex 89.4 33.3137 49.4558
      vertex 80.4 9.27208 25.4142
      vertex 89.4 9.27208 25.4142
    endloop
  endfacet
  facet normal -1 0 0
    outer loop
      vertex 88.4 17.7574 18.3431
      vertex 88.4 34.0208 48.7487
      vertex 88.4 41.0919 41.6777
    endloop
  endfacet
  facet normal -1 0 0
    outer loop
      vertex 88.4 34.0208 48.7487
      vertex 88.4 17.7574 18.3431
      vertex 88.4 10.6863 25.4142
    endloop
  endfacet
  facet normal 0 -0.707107 0.707107
    outer loop
      vertex 80.4 41.0919 41.6777
      vertex 88.4 17.7574 18.3431
      vertex 88.4 41.0919 41.6777
    endloop
  endfacet
  facet normal 0 -0.707107 0.707107
    outer loop
      vertex 88.4 17.7574 18.3431
      vertex 80.4 41.0919 41.6777
      vertex 80.4 17.7574 18.3431
    endloop
  endfacet
  facet normal 0 0.707107 0.707107
    outer loop
      vertex 88.4 17.7574 18.3431
      vertex 80.4 10.6863 25.4142
      vertex 88.4 10.6863 25.4142
    endloop
  endfacet
  facet normal 0 0.707107 0.707107
    outer loop
      vertex 80.4 10.6863 25.4142
      vertex 88.4 17.7574 18.3431
      vertex 80.4 17.7574 18.3431
    endloop
  endfacet
  facet normal 0 0.707107 -0.707107
    outer loop
      vertex 80.4 10.6863 25.4142
      vertex 88.4 34.0208 48.7487
      vertex 88.4 10.6863 25.4142
    endloop
  endfacet
  facet normal 0 0.707107 -0.707107
    outer loop
      vertex 88.4 34.0208 48.7487
      vertex 80.4 10.6863 25.4142
      vertex 80.4 34.0208 48.7487
    endloop
  endfacet
  facet normal -1 0 0
    outer loop
      vertex 38.5 0 0.90073
      vertex 38.5 -6.9737 7.87443
      vertex 38.5 0 2.5
    endloop
  endfacet
  facet normal -1 0 0
    outer loop
      vertex 38.5 16.8735 17.4593
      vertex 38.5 17.4639 17.9295
      vertex 38.5 16.9336 17.3992
    endloop
  endfacet
  facet normal -1 0 0
    outer loop
      vertex 38.5 16.8735 17.4593
      vertex 38.5 17.7397 18.2053
      vertex 38.5 17.4639 17.9295
    endloop
  endfacet
  facet normal -1 0 0
    outer loop
      vertex 38.5 16.8735 17.4593
      vertex 38.5 10.5484 25.3965
      vertex 38.5 17.7397 18.2053
    endloop
  endfacet
  facet normal -1 0 0
    outer loop
      vertex 38.5 16.8735 17.4593
      vertex 38.5 10.2726 25.1208
      vertex 38.5 10.5484 25.3965
    endloop
  endfacet
  facet normal -1 0 0
    outer loop
      vertex 38.5 16.8735 17.4593
      vertex 38.5 9.56553 24.4137
      vertex 38.5 10.2726 25.1208
    endloop
  endfacet
  facet normal -1 0 0
    outer loop
      vertex 38.5 1.91421 2.5
      vertex 38.5 9.56553 24.4137
      vertex 38.5 16.8735 17.4593
    endloop
  endfacet
  facet normal -1 0 0
    outer loop
      vertex 38.5 -6.9737 7.87443
      vertex 38.5 1.91421 2.5
      vertex 38.5 0 2.5
    endloop
  endfacet
  facet normal -1 0 0
    outer loop
      vertex 38.5 1.91421 2.5
      vertex 38.5 -6.9737 7.87443
      vertex 38.5 9.56553 24.4137
    endloop
  endfacet
  facet normal 0 -0.707107 0.707107
    outer loop
      vertex 38.5 9.56553 24.4137
      vertex 39.4 -6.3373 8.51083
      vertex 39.4 9.56553 24.4137
    endloop
  endfacet
  facet normal -1.44153e-08 -0.707107 0.707107
    outer loop
      vertex 38.5 -6.9737 7.87443
      vertex 39.4 -6.3373 8.51083
      vertex 38.5 9.56553 24.4137
    endloop
  endfacet
  facet normal 0 -0.707107 0.707107
    outer loop
      vertex 39.5 -6.9737 7.87443
      vertex 39.4 -6.3373 8.51083
      vertex 38.5 -6.9737 7.87443
    endloop
  endfacet
  facet normal 0 -0.707107 0.707107
    outer loop
      vertex 39.4 -6.3373 8.51083
      vertex 39.5 -6.9737 7.87443
      vertex 39.5 -6.3373 8.51083
    endloop
  endfacet
  facet normal 0 -0.707107 0.707107
    outer loop
      vertex 49.9 -6.3373 8.51083
      vertex 49.9 -6.9737 7.87443
      vertex 50 -6.3373 8.51083
    endloop
  endfacet
  facet normal 0 -0.707107 0.707107
    outer loop
      vertex 50 -6.3373 8.51083
      vertex 50.9 9.56553 24.4137
      vertex 50 9.56553 24.4137
    endloop
  endfacet
  facet normal 1.44153e-08 -0.707107 0.707107
    outer loop
      vertex 50 -6.3373 8.51083
      vertex 50.9 -6.9737 7.87443
      vertex 50.9 9.56553 24.4137
    endloop
  endfacet
  facet normal 0 -0.707107 0.707107
    outer loop
      vertex 50.9 -6.9737 7.87443
      vertex 50 -6.3373 8.51083
      vertex 49.9 -6.9737 7.87443
    endloop
  endfacet
  facet normal 0 -0.707106 0.707108
    outer loop
      vertex 49.9 10.5484 25.3965
      vertex 50.9 10.2726 25.1208
      vertex 50.9 10.5484 25.3965
    endloop
  endfacet
  facet normal 0 -0.707106 0.707108
    outer loop
      vertex 50.9 10.2726 25.1208
      vertex 49.9 10.5484 25.3965
      vertex 49.9 10.2726 25.1208
    endloop
  endfacet
  facet normal 0 -0.707106 0.707108
    outer loop
      vertex 38.5 10.5484 25.3965
      vertex 39.5 10.2726 25.1208
      vertex 39.5 10.5484 25.3965
    endloop
  endfacet
  facet normal 0 -0.707106 0.707108
    outer loop
      vertex 39.5 10.2726 25.1208
      vertex 38.5 10.5484 25.3965
      vertex 38.5 10.2726 25.1208
    endloop
  endfacet
  facet normal 0 0.707108 -0.707106
    outer loop
      vertex 50 9.56553 24.4137
      vertex 49.9 9.91201 24.7601
      vertex 50 9.91201 24.7601
    endloop
  endfacet
  facet normal 0 0.707108 -0.707106
    outer loop
      vertex 49.9 9.91201 24.7601
      vertex 50 9.56553 24.4137
      vertex 39.5 9.91201 24.7601
    endloop
  endfacet
  facet normal 0 0.707108 -0.707106
    outer loop
      vertex 39.4 9.56553 24.4137
      vertex 39.5 9.91201 24.7601
      vertex 50 9.56553 24.4137
    endloop
  endfacet
  facet normal 0 0.707108 -0.707106
    outer loop
      vertex 39.5 9.91201 24.7601
      vertex 39.4 9.56553 24.4137
      vertex 39.4 9.91201 24.7601
    endloop
  endfacet
  facet normal 0 0.707107 -0.707107
    outer loop
      vertex 49.9 9.91201 24.7601
      vertex 39.5 10.2726 25.1208
      vertex 49.9 10.2726 25.1208
    endloop
  endfacet
  facet normal 0 0.707107 -0.707107
    outer loop
      vertex 39.5 10.2726 25.1208
      vertex 49.9 9.91201 24.7601
      vertex 39.5 9.91201 24.7601
    endloop
  endfacet
  facet normal 1 0 0
    outer loop
      vertex 50.9 9.56553 24.4137
      vertex 50.9 1.91421 2.5
      vertex 50.9 16.6967 17.2825
    endloop
  endfacet
  facet normal 1 -0 0
    outer loop
      vertex 50.9 -6.9737 7.87443
      vertex 50.9 1.91421 2.5
      vertex 50.9 9.56553 24.4137
    endloop
  endfacet
  facet normal 1 0 0
    outer loop
      vertex 50.9 0 2.5
      vertex 50.9 -6.9737 7.87443
      vertex 50.9 0 0.90073
    endloop
  endfacet
  facet normal 1 0 0
    outer loop
      vertex 50.9 1.91421 2.5
      vertex 50.9 -6.9737 7.87443
      vertex 50.9 0 2.5
    endloop
  endfacet
  facet normal 1 0 0
    outer loop
      vertex 50.9 10.5484 25.3965
      vertex 50.9 17.4639 17.9295
      vertex 50.9 17.7397 18.2053
    endloop
  endfacet
  facet normal 1 0 0
    outer loop
      vertex 50.9 17.4639 17.9295
      vertex 50.9 10.5484 25.3965
      vertex 50.9 10.2726 25.1208
    endloop
  endfacet
  facet normal 0 0.707104 -0.707109
    outer loop
      vertex 38.5 17.4639 17.9295
      vertex 50.9 17.7397 18.2053
      vertex 50.9 17.4639 17.9295
    endloop
  endfacet
  facet normal 0 0.707104 -0.707109
    outer loop
      vertex 50.9 17.7397 18.2053
      vertex 38.5 17.4639 17.9295
      vertex 38.5 17.7397 18.2053
    endloop
  endfacet
  facet normal 0 -0.707107 -0.707107
    outer loop
      vertex 38.5 -6.9737 7.87443
      vertex 39.5 -2.75227 3.653
      vertex 39.5 -6.9737 7.87443
    endloop
  endfacet
  facet normal 0 -0.707107 -0.707107
    outer loop
      vertex 39.5 -2.75227 3.653
      vertex 38.5 0 0.90073
      vertex 49.9 -2.75227 3.653
    endloop
  endfacet
  facet normal -6.65355e-08 -0.707107 -0.707107
    outer loop
      vertex 38.5 0 0.90073
      vertex 39.5 -2.75227 3.653
      vertex 38.5 -6.9737 7.87443
    endloop
  endfacet
  facet normal 0 -0.707107 -0.707107
    outer loop
      vertex 49.9 -2.75227 3.653
      vertex 50.9 -6.9737 7.87443
      vertex 49.9 -6.9737 7.87443
    endloop
  endfacet
  facet normal 6.65355e-08 -0.707107 -0.707107
    outer loop
      vertex 49.9 -2.75227 3.653
      vertex 50.9 0 0.90073
      vertex 50.9 -6.9737 7.87443
    endloop
  endfacet
  facet normal -0 -0.707107 -0.707107
    outer loop
      vertex 50.9 0 0.90073
      vertex 49.9 -2.75227 3.653
      vertex 38.5 0 0.90073
    endloop
  endfacet
  facet normal 2.78492e-07 0.707107 0.707107
    outer loop
      vertex 50.9 17.7397 18.2053
      vertex 49.9 14.7698 21.1751
      vertex 50.9 10.5484 25.3965
    endloop
  endfacet
  facet normal 0 0.707107 0.707107
    outer loop
      vertex 50.9 17.7397 18.2053
      vertex 39.5 14.7698 21.1751
      vertex 49.9 14.7698 21.1751
    endloop
  endfacet
  facet normal -0 0.707107 0.707107
    outer loop
      vertex 38.5 17.7397 18.2053
      vertex 39.5 14.7698 21.1751
      vertex 50.9 17.7397 18.2053
    endloop
  endfacet
  facet normal -2.78492e-07 0.707107 0.707107
    outer loop
      vertex 38.5 10.5484 25.3965
      vertex 39.5 14.7698 21.1751
      vertex 38.5 17.7397 18.2053
    endloop
  endfacet
  facet normal 0 0.707107 0.707107
    outer loop
      vertex 39.5 14.7698 21.1751
      vertex 38.5 10.5484 25.3965
      vertex 39.5 10.5484 25.3965
    endloop
  endfacet
  facet normal 0 0.707107 0.707107
    outer loop
      vertex 50.9 10.5484 25.3965
      vertex 49.9 14.7698 21.1751
      vertex 49.9 10.5484 25.3965
    endloop
  endfacet
  facet normal 1 -0 0
    outer loop
      vertex 39.4 9.56553 24.4137
      vertex 39.4 16.0426 18.6295
      vertex 39.4 9.91201 24.7601
    endloop
  endfacet
  facet normal 1 0 0
    outer loop
      vertex 39.4 9.56553 24.4137
      vertex 39.4 -0.206689 2.38021
      vertex 39.4 16.0426 18.6295
    endloop
  endfacet
  facet normal 1 0 -0
    outer loop
      vertex 39.4 -0.206689 2.38021
      vertex 39.4 9.56553 24.4137
      vertex 39.4 -6.3373 8.51083
    endloop
  endfacet
  facet normal -1 0 0
    outer loop
      vertex 50 16.0426 18.6295
      vertex 50 9.56553 24.4137
      vertex 50 9.91201 24.7601
    endloop
  endfacet
  facet normal -1 0 0
    outer loop
      vertex 50 -0.206689 2.38021
      vertex 50 9.56553 24.4137
      vertex 50 16.0426 18.6295
    endloop
  endfacet
  facet normal -1 0 0
    outer loop
      vertex 50 9.56553 24.4137
      vertex 50 -0.206689 2.38021
      vertex 50 -6.3373 8.51083
    endloop
  endfacet
  facet normal 0 -0.707107 -0.707107
    outer loop
      vertex 39.4 9.91201 24.7601
      vertex 39.5 14.1334 20.5387
      vertex 39.5 9.91201 24.7601
    endloop
  endfacet
  facet normal 0 -0.707107 -0.707107
    outer loop
      vertex 39.5 14.1334 20.5387
      vertex 39.4 16.0426 18.6295
      vertex 49.9 14.1334 20.5387
    endloop
  endfacet
  facet normal 0 -0.707107 -0.707107
    outer loop
      vertex 39.4 16.0426 18.6295
      vertex 39.5 14.1334 20.5387
      vertex 39.4 9.91201 24.7601
    endloop
  endfacet
  facet normal 0 -0.707107 -0.707107
    outer loop
      vertex 49.9 14.1334 20.5387
      vertex 50 9.91201 24.7601
      vertex 49.9 9.91201 24.7601
    endloop
  endfacet
  facet normal 0 -0.707107 -0.707107
    outer loop
      vertex 49.9 14.1334 20.5387
      vertex 50 16.0426 18.6295
      vertex 50 9.91201 24.7601
    endloop
  endfacet
  facet normal -0 -0.707107 -0.707107
    outer loop
      vertex 50 16.0426 18.6295
      vertex 49.9 14.1334 20.5387
      vertex 39.4 16.0426 18.6295
    endloop
  endfacet
  facet normal 0 -0.707107 0.707107
    outer loop
      vertex 39.4 16.0426 18.6295
      vertex 50 -0.206689 2.38021
      vertex 50 16.0426 18.6295
    endloop
  endfacet
  facet normal 0 -0.707107 0.707107
    outer loop
      vertex 50 -0.206689 2.38021
      vertex 39.4 16.0426 18.6295
      vertex 39.4 -0.206689 2.38021
    endloop
  endfacet
  facet normal 0 0.707107 0.707107
    outer loop
      vertex 50 -6.3373 8.51083
      vertex 49.9 -2.11588 4.2894
      vertex 49.9 -6.3373 8.51083
    endloop
  endfacet
  facet normal 0 0.707107 0.707107
    outer loop
      vertex 49.9 -2.11588 4.2894
      vertex 50 -0.206689 2.38021
      vertex 39.5 -2.11588 4.2894
    endloop
  endfacet
  facet normal 1.41282e-06 0.707107 0.707107
    outer loop
      vertex 50 -0.206689 2.38021
      vertex 49.9 -2.11588 4.2894
      vertex 50 -6.3373 8.51083
    endloop
  endfacet
  facet normal 0 0.707107 0.707107
    outer loop
      vertex 39.5 -2.11588 4.2894
      vertex 39.4 -6.3373 8.51083
      vertex 39.5 -6.3373 8.51083
    endloop
  endfacet
  facet normal -1.41282e-06 0.707107 0.707107
    outer loop
      vertex 39.5 -2.11588 4.2894
      vertex 39.4 -0.206689 2.38021
      vertex 39.4 -6.3373 8.51083
    endloop
  endfacet
  facet normal -0 0.707107 0.707107
    outer loop
      vertex 39.4 -0.206689 2.38021
      vertex 39.5 -2.11588 4.2894
      vertex 50 -0.206689 2.38021
    endloop
  endfacet
  facet normal 1 -0 0
    outer loop
      vertex 39.5 10.2726 25.1208
      vertex 39.5 14.7698 21.1751
      vertex 39.5 10.5484 25.3965
    endloop
  endfacet
  facet normal 1 0 0
    outer loop
      vertex 39.5 14.7698 21.1751
      vertex 39.5 10.2726 25.1208
      vertex 39.5 14.1334 20.5387
    endloop
  endfacet
  facet normal 1 0 0
    outer loop
      vertex 39.5 14.1334 20.5387
      vertex 39.5 10.2726 25.1208
      vertex 39.5 9.91201 24.7601
    endloop
  endfacet
  facet normal -1 0 0
    outer loop
      vertex 49.9 10.2726 25.1208
      vertex 49.9 14.7698 21.1751
      vertex 49.9 14.1334 20.5387
    endloop
  endfacet
  facet normal -1 0 0
    outer loop
      vertex 49.9 14.7698 21.1751
      vertex 49.9 10.2726 25.1208
      vertex 49.9 10.5484 25.3965
    endloop
  endfacet
  facet normal -1 0 -0
    outer loop
      vertex 49.9 10.2726 25.1208
      vertex 49.9 14.1334 20.5387
      vertex 49.9 9.91201 24.7601
    endloop
  endfacet
  facet normal 0 -0.707106 0.707108
    outer loop
      vertex 39.5 14.7698 21.1751
      vertex 49.9 14.1334 20.5387
      vertex 49.9 14.7698 21.1751
    endloop
  endfacet
  facet normal 0 -0.707106 0.707108
    outer loop
      vertex 49.9 14.1334 20.5387
      vertex 39.5 14.7698 21.1751
      vertex 39.5 14.1334 20.5387
    endloop
  endfacet
  facet normal 1 0 0
    outer loop
      vertex 39.5 -6.3373 8.51083
      vertex 39.5 -2.75227 3.653
      vertex 39.5 -2.11588 4.2894
    endloop
  endfacet
  facet normal 1 0 0
    outer loop
      vertex 39.5 -2.75227 3.653
      vertex 39.5 -6.3373 8.51083
      vertex 39.5 -6.9737 7.87443
    endloop
  endfacet
  facet normal -1 0 0
    outer loop
      vertex 49.9 -2.75227 3.653
      vertex 49.9 -6.3373 8.51083
      vertex 49.9 -2.11588 4.2894
    endloop
  endfacet
  facet normal -1 0 -0
    outer loop
      vertex 49.9 -6.3373 8.51083
      vertex 49.9 -2.75227 3.653
      vertex 49.9 -6.9737 7.87443
    endloop
  endfacet
  facet normal 0 -0.707107 0.707107
    outer loop
      vertex 39.5 -2.75227 3.653
      vertex 49.9 -2.11588 4.2894
      vertex 39.5 -2.11588 4.2894
    endloop
  endfacet
  facet normal 0 -0.707107 0.707107
    outer loop
      vertex 49.9 -2.11588 4.2894
      vertex 39.5 -2.75227 3.653
      vertex 49.9 -2.75227 3.653
    endloop
  endfacet
  facet normal 0 -0.707108 0.707106
    outer loop
      vertex 0 8.91852 25.0607
      vertex 9 9.27208 25.4142
      vertex 0 9.27208 25.4142
    endloop
  endfacet
  facet normal 0 -0.707108 0.707106
    outer loop
      vertex 9 9.27208 25.4142
      vertex 0 8.91852 25.0607
      vertex 80.4 9.27208 25.4142
    endloop
  endfacet
  facet normal 0 -0.707108 0.707106
    outer loop
      vertex 89.4 8.91852 25.0607
      vertex 80.4 9.27208 25.4142
      vertex 0 8.91852 25.0607
    endloop
  endfacet
  facet normal 0 -0.707108 0.707106
    outer loop
      vertex 80.4 9.27208 25.4142
      vertex 89.4 8.91852 25.0607
      vertex 89.4 9.27208 25.4142
    endloop
  endfacet
  facet normal 0 -0.707107 0.707107
    outer loop
      vertex 9 9.27208 25.4142
      vertex 80.4 9.62563 25.7678
      vertex 9 9.62563 25.7678
    endloop
  endfacet
  facet normal 0 -0.707107 0.707107
    outer loop
      vertex 80.4 9.62563 25.7678
      vertex 9 9.27208 25.4142
      vertex 80.4 9.27208 25.4142
    endloop
  endfacet
  facet normal 1 0 0
    outer loop
      vertex 89.4 9.27208 25.4142
      vertex 89.4 16.6932 17.286
      vertex 89.4 17.7574 16.9289
    endloop
  endfacet
  facet normal 1 0 0
    outer loop
      vertex 89.4 16.6932 17.286
      vertex 89.4 9.27208 25.4142
      vertex 89.4 8.91852 25.0607
    endloop
  endfacet
  facet normal 1 0 0
    outer loop
      vertex 89.4 42 41
      vertex 89.4 41.799 40.9706
      vertex 89.4 42 2.5
    endloop
  endfacet
  facet normal 1 0 -0
    outer loop
      vertex 89.4 41.799 40.9706
      vertex 89.4 42 41
      vertex 89.4 41.7696 41
    endloop
  endfacet
  facet normal 1 -0 0
    outer loop
      vertex 89.4 42 2.5
      vertex 89.4 120 0
      vertex 89.4 120 2.5
    endloop
  endfacet
  facet normal 1 -0 0
    outer loop
      vertex 89.4 17.7574 16.9289
      vertex 89.4 42 2.5
      vertex 89.4 41.799 40.9706
    endloop
  endfacet
  facet normal 1 0 0
    outer loop
      vertex 89.4 1.5375 2.5
      vertex 89.4 17.7574 16.9289
      vertex 89.4 16.6932 17.286
    endloop
  endfacet
  facet normal 1 0 0
    outer loop
      vertex 89.4 17.7574 16.9289
      vertex 89.4 1.5375 2.5
      vertex 89.4 42 2.5
    endloop
  endfacet
  facet normal 1 0 0
    outer loop
      vertex 89.4 0 0
      vertex 89.4 42 2.5
      vertex 89.4 1.5375 2.5
    endloop
  endfacet
  facet normal 1 0 0
    outer loop
      vertex 89.4 0 0
      vertex 89.4 1.5375 2.5
      vertex 89.4 0 2.5
    endloop
  endfacet
  facet normal 1 0 0
    outer loop
      vertex 89.4 42 2.5
      vertex 89.4 0 0
      vertex 89.4 120 0
    endloop
  endfacet
  facet normal 0 0.707107 0.707107
    outer loop
      vertex 80.4 9.62563 25.7678
      vertex 50.9 10.2726 25.1208
      vertex 9 9.62563 25.7678
    endloop
  endfacet
  facet normal 0 0.707107 0.707107
    outer loop
      vertex 80.4 9.62563 25.7678
      vertex 50.9 17.4639 17.9295
      vertex 50.9 10.2726 25.1208
    endloop
  endfacet
  facet normal 0 0.707107 0.707107
    outer loop
      vertex 50.9 17.4639 17.9295
      vertex 80.4 18.1109 17.2825
      vertex 38.5 17.4639 17.9295
    endloop
  endfacet
  facet normal 0 0.707107 0.707107
    outer loop
      vertex 80.4 18.1109 17.2825
      vertex 50.9 17.4639 17.9295
      vertex 80.4 9.62563 25.7678
    endloop
  endfacet
  facet normal -0 0.707107 0.707107
    outer loop
      vertex 49.9 10.2726 25.1208
      vertex 9 9.62563 25.7678
      vertex 50.9 10.2726 25.1208
    endloop
  endfacet
  facet normal -0 0.707107 0.707107
    outer loop
      vertex 39.5 10.2726 25.1208
      vertex 9 9.62563 25.7678
      vertex 49.9 10.2726 25.1208
    endloop
  endfacet
  facet normal -0 0.707107 0.707107
    outer loop
      vertex 38.5 10.2726 25.1208
      vertex 9 9.62563 25.7678
      vertex 39.5 10.2726 25.1208
    endloop
  endfacet
  facet normal 0 0.707107 0.707107
    outer loop
      vertex 38.5 17.4639 17.9295
      vertex 9 9.62563 25.7678
      vertex 38.5 10.2726 25.1208
    endloop
  endfacet
  facet normal 0 0.707107 0.707107
    outer loop
      vertex 38.5 17.4639 17.9295
      vertex 9 18.1109 17.2825
      vertex 9 9.62563 25.7678
    endloop
  endfacet
  facet normal -0 0.707107 0.707107
    outer loop
      vertex 9 18.1109 17.2825
      vertex 38.5 17.4639 17.9295
      vertex 80.4 18.1109 17.2825
    endloop
  endfacet
  facet normal 0 0 0
    outer loop
      vertex 88.4 18.1109 17.2825
      vertex 1 18.1109 17.2825
      vertex 9 18.1109 17.2825
    endloop
  endfacet
  facet normal 0 0 0
    outer loop
      vertex 88.4 18.1109 17.2825
      vertex 9 18.1109 17.2825
      vertex 80.4 18.1109 17.2825
    endloop
  endfacet
  facet normal 0 0.707107 -0.707107
    outer loop
      vertex 88.4 3.32843 2.5
      vertex 1 18.1109 17.2825
      vertex 88.4 18.1109 17.2825
    endloop
  endfacet
  facet normal 0 0.707107 -0.707107
    outer loop
      vertex 1 18.1109 17.2825
      vertex 88.4 3.32843 2.5
      vertex 1 3.32843 2.5
    endloop
  endfacet
  facet normal -3.59564e-08 -0.707107 -0.707107
    outer loop
      vertex 50.9 16.6967 17.2825
      vertex 88.4 16.6932 17.286
      vertex 50.9 9.56553 24.4137
    endloop
  endfacet
  facet normal 0 -0.706916 -0.707298
    outer loop
      vertex 88.4 16.6932 17.286
      vertex 50.9 16.6967 17.2825
      vertex 88.4 16.6967 17.2825
    endloop
  endfacet
  facet normal 0 -0.707107 -0.707107
    outer loop
      vertex 0 8.91852 25.0607
      vertex 38.5 9.56553 24.4137
      vertex 89.4 8.91852 25.0607
    endloop
  endfacet
  facet normal -0 -0.707107 -0.707107
    outer loop
      vertex 1 16.6932 17.286
      vertex 0 8.91852 25.0607
      vertex 0 16.6932 17.286
    endloop
  endfacet
  facet normal 1.4608e-09 -0.707107 -0.707107
    outer loop
      vertex 0 8.91852 25.0607
      vertex 1 16.6932 17.286
      vertex 38.5 9.56553 24.4137
    endloop
  endfacet
  facet normal -0 -0.706916 -0.707298
    outer loop
      vertex 38.5 16.6967 17.2825
      vertex 1 16.6932 17.286
      vertex 1 16.6967 17.2825
    endloop
  endfacet
  facet normal 3.59564e-08 -0.707107 -0.707107
    outer loop
      vertex 1 16.6932 17.286
      vertex 38.5 16.6967 17.2825
      vertex 38.5 9.56553 24.4137
    endloop
  endfacet
  facet normal -0 -0.707107 -0.707107
    outer loop
      vertex 39.4 9.56553 24.4137
      vertex 89.4 8.91852 25.0607
      vertex 38.5 9.56553 24.4137
    endloop
  endfacet
  facet normal -0 -0.707107 -0.707107
    outer loop
      vertex 50 9.56553 24.4137
      vertex 89.4 8.91852 25.0607
      vertex 39.4 9.56553 24.4137
    endloop
  endfacet
  facet normal -0 -0.707107 -0.707107
    outer loop
      vertex 50.9 9.56553 24.4137
      vertex 89.4 8.91852 25.0607
      vertex 50 9.56553 24.4137
    endloop
  endfacet
  facet normal -1.4608e-09 -0.707107 -0.707107
    outer loop
      vertex 88.4 16.6932 17.286
      vertex 89.4 8.91852 25.0607
      vertex 50.9 9.56553 24.4137
    endloop
  endfacet
  facet normal 0 -0.707107 -0.707107
    outer loop
      vertex 89.4 8.91852 25.0607
      vertex 88.4 16.6932 17.286
      vertex 89.4 16.6932 17.286
    endloop
  endfacet
  facet normal 1 0 0
    outer loop
      vertex 38.5 17.4639 17.9295
      vertex 38.5 16.8735 17.4593
      vertex 38.5 16.9336 17.3992
    endloop
  endfacet
  facet normal 1 0 0
    outer loop
      vertex 38.5 10.2726 25.1208
      vertex 38.5 16.8735 17.4593
      vertex 38.5 17.4639 17.9295
    endloop
  endfacet
  facet normal 1 -0 0
    outer loop
      vertex 38.5 9.56553 24.4137
      vertex 38.5 16.8735 17.4593
      vertex 38.5 10.2726 25.1208
    endloop
  endfacet
  facet normal 1 0 0
    outer loop
      vertex 38.5 16.8735 17.4593
      vertex 38.5 9.56553 24.4137
      vertex 38.5 16.6967 17.2825
    endloop
  endfacet
  facet normal 0 -0.707107 0.707107
    outer loop
      vertex 1 1.91421 2.5
      vertex 38.5 16.6967 17.2825
      vertex 1 16.6967 17.2825
    endloop
  endfacet
  facet normal 0 -0.707107 0.707107
    outer loop
      vertex 38.5 16.6967 17.2825
      vertex 1 1.91421 2.5
      vertex 38.5 1.91421 2.5
    endloop
  endfacet
  facet normal 1 -0 0
    outer loop
      vertex 38.5 16.6967 17.2825
      vertex 38.5 1.91421 2.5
      vertex 38.5 16.8735 17.4593
    endloop
  endfacet
  facet normal 0 -0.707107 0.707107
    outer loop
      vertex 50.9 1.91421 2.5
      vertex 88.4 16.6967 17.2825
      vertex 50.9 16.6967 17.2825
    endloop
  endfacet
  facet normal 0 -0.707107 0.707107
    outer loop
      vertex 88.4 16.6967 17.2825
      vertex 50.9 1.91421 2.5
      vertex 88.4 1.91421 2.5
    endloop
  endfacet
  facet normal 0 0 1
    outer loop
      vertex 1 1.5375 2.5
      vertex 38.5 1.91421 2.5
      vertex 1 1.91421 2.5
    endloop
  endfacet
  facet normal 0 0 1
    outer loop
      vertex 38.5 1.91421 2.5
      vertex 1 1.5375 2.5
      vertex 38.5 0 2.5
    endloop
  endfacet
  facet normal 0 0 1
    outer loop
      vertex 0 0 2.5
      vertex 1 1.5375 2.5
      vertex 0 1.5375 2.5
    endloop
  endfacet
  facet normal 0 0 1
    outer loop
      vertex 1 1.5375 2.5
      vertex 0 0 2.5
      vertex 38.5 0 2.5
    endloop
  endfacet
  facet normal 0 0 1
    outer loop
      vertex 88.4 1.91421 2.5
      vertex 50.9 1.91421 2.5
      vertex 88.4 1.5375 2.5
    endloop
  endfacet
  facet normal -0 0 1
    outer loop
      vertex 88.4 1.5375 2.5
      vertex 89.4 0 2.5
      vertex 89.4 1.5375 2.5
    endloop
  endfacet
  facet normal 0 0 1
    outer loop
      vertex 50.9 0 2.5
      vertex 88.4 1.5375 2.5
      vertex 50.9 1.91421 2.5
    endloop
  endfacet
  facet normal 0 0 1
    outer loop
      vertex 88.4 1.5375 2.5
      vertex 50.9 0 2.5
      vertex 89.4 0 2.5
    endloop
  endfacet
  facet normal -0 0 1
    outer loop
      vertex 83.4 114 2.5
      vertex 89.4 42 2.5
      vertex 89.4 120 2.5
    endloop
  endfacet
  facet normal 0 0 1
    outer loop
      vertex 83.4 6 2.5
      vertex 88.4 42 2.5
      vertex 83.4 114 2.5
    endloop
  endfacet
  facet normal 0 0 1
    outer loop
      vertex 89.4 42 2.5
      vertex 83.4 114 2.5
      vertex 88.4 42 2.5
    endloop
  endfacet
  facet normal 0 0 1
    outer loop
      vertex 89.4 120 2.5
      vertex 6 114 2.5
      vertex 83.4 114 2.5
    endloop
  endfacet
  facet normal 0 0 1
    outer loop
      vertex 6 114 2.5
      vertex 1 42 2.5
      vertex 6 6 2.5
    endloop
  endfacet
  facet normal -0 0 1
    outer loop
      vertex 0 120 2.5
      vertex 6 114 2.5
      vertex 89.4 120 2.5
    endloop
  endfacet
  facet normal 0 0 1
    outer loop
      vertex 0 42 2.5
      vertex 6 114 2.5
      vertex 0 120 2.5
    endloop
  endfacet
  facet normal 0 0 1
    outer loop
      vertex 6 114 2.5
      vertex 0 42 2.5
      vertex 1 42 2.5
    endloop
  endfacet
  facet normal 0 0 1
    outer loop
      vertex 88.4 42 2.5
      vertex 83.4 6 2.5
      vertex 88.4 3.32843 2.5
    endloop
  endfacet
  facet normal -0 0 1
    outer loop
      vertex 6 6 2.5
      vertex 88.4 3.32843 2.5
      vertex 83.4 6 2.5
    endloop
  endfacet
  facet normal 0 0 1
    outer loop
      vertex 6 6 2.5
      vertex 1 3.32843 2.5
      vertex 88.4 3.32843 2.5
    endloop
  endfacet
  facet normal 0 0 1
    outer loop
      vertex 1 3.32843 2.5
      vertex 6 6 2.5
      vertex 1 42 2.5
    endloop
  endfacet
  facet normal 0 1 -0
    outer loop
      vertex 89.4 120 0
      vertex 0 120 2.5
      vertex 89.4 120 2.5
    endloop
  endfacet
  facet normal 0 1 0
    outer loop
      vertex 0 120 2.5
      vertex 89.4 120 0
      vertex 0 120 0
    endloop
  endfacet
  facet normal 0 0 -1
    outer loop
      vertex 89.4 0 0
      vertex 83.4 6 0
      vertex 89.4 120 0
    endloop
  endfacet
  facet normal 0 0 -1
    outer loop
      vertex 89.4 0 0
      vertex 6 6 0
      vertex 83.4 6 0
    endloop
  endfacet
  facet normal -0 0 -1
    outer loop
      vertex 6 6 0
      vertex 0 0 0
      vertex 6 114 0
    endloop
  endfacet
  facet normal 0 0 -1
    outer loop
      vertex 0 0 0
      vertex 6 6 0
      vertex 89.4 0 0
    endloop
  endfacet
  facet normal 0 0 -1
    outer loop
      vertex 83.4 114 0
      vertex 89.4 120 0
      vertex 83.4 6 0
    endloop
  endfacet
  facet normal 0 0 -1
    outer loop
      vertex 6 114 0
      vertex 89.4 120 0
      vertex 83.4 114 0
    endloop
  endfacet
  facet normal 0 0 -1
    outer loop
      vertex 6 114 0
      vertex 0 120 0
      vertex 89.4 120 0
    endloop
  endfacet
  facet normal 0 0 -1
    outer loop
      vertex 0 120 0
      vertex 6 114 0
      vertex 0 0 0
    endloop
  endfacet
  facet normal 0 -1 0
    outer loop
      vertex 0 0 2.5
      vertex 38.5 0 0.90073
      vertex 38.5 0 2.5
    endloop
  endfacet
  facet normal 0 -1 -0
    outer loop
      vertex 38.5 0 0.90073
      vertex 0 0 0
      vertex 50.9 0 0.90073
    endloop
  endfacet
  facet normal 0 -1 0
    outer loop
      vertex 0 0 0
      vertex 38.5 0 0.90073
      vertex 0 0 2.5
    endloop
  endfacet
  facet normal 0 -1 0
    outer loop
      vertex 50.9 0 0.90073
      vertex 89.4 0 2.5
      vertex 50.9 0 2.5
    endloop
  endfacet
  facet normal 0 -1 0
    outer loop
      vertex 50.9 0 0.90073
      vertex 89.4 0 0
      vertex 89.4 0 2.5
    endloop
  endfacet
  facet normal 0 -1 0
    outer loop
      vertex 89.4 0 0
      vertex 50.9 0 0.90073
      vertex 0 0 0
    endloop
  endfacet
  facet normal 1 -0 0
    outer loop
      vertex 6 6 2.5
      vertex 6 114 0
      vertex 6 114 2.5
    endloop
  endfacet
  facet normal 1 0 0
    outer loop
      vertex 6 114 0
      vertex 6 6 2.5
      vertex 6 6 0
    endloop
  endfacet
  facet normal -1 0 0
    outer loop
      vertex 83.4 6 0
      vertex 83.4 114 2.5
      vertex 83.4 114 0
    endloop
  endfacet
  facet normal -1 -0 0
    outer loop
      vertex 83.4 114 2.5
      vertex 83.4 6 0
      vertex 83.4 6 2.5
    endloop
  endfacet
  facet normal 0 -1 0
    outer loop
      vertex 6 114 0
      vertex 83.4 114 2.5
      vertex 6 114 2.5
    endloop
  endfacet
  facet normal 0 -1 -0
    outer loop
      vertex 83.4 114 2.5
      vertex 6 114 0
      vertex 83.4 114 0
    endloop
  endfacet
  facet normal 0 1 -0
    outer loop
      vertex 83.4 6 0
      vertex 6 6 2.5
      vertex 83.4 6 2.5
    endloop
  endfacet
  facet normal 0 1 0
    outer loop
      vertex 6 6 2.5
      vertex 83.4 6 0
      vertex 6 6 0
    endloop
  endfacet
  facet normal 1 0 0
    outer loop
      vertex 1 42 41
      vertex 1 41.799 40.9706
      vertex 1 42 2.5
    endloop
  endfacet
  facet normal 1 0 -0
    outer loop
      vertex 1 41.799 40.9706
      vertex 1 42 41
      vertex 1 41.7696 41
    endloop
  endfacet
  facet normal 1 -0 0
    outer loop
      vertex 1 18.1109 17.2825
      vertex 1 42 2.5
      vertex 1 41.799 40.9706
    endloop
  endfacet
  facet normal 1 0 0
    outer loop
      vertex 1 42 2.5
      vertex 1 18.1109 17.2825
      vertex 1 3.32843 2.5
    endloop
  endfacet
  facet normal 1 0 0
    outer loop
      vertex 1 16.6932 17.286
      vertex 1 1.91421 2.5
      vertex 1 16.6967 17.2825
    endloop
  endfacet
  facet normal 1 0 -0
    outer loop
      vertex 1 1.91421 2.5
      vertex 1 16.6932 17.286
      vertex 1 1.5375 2.5
    endloop
  endfacet
  facet normal 0 1 -0
    outer loop
      vertex 1 42 2.5
      vertex 0 42 41
      vertex 1 42 41
    endloop
  endfacet
  facet normal 0 1 0
    outer loop
      vertex 0 42 41
      vertex 1 42 2.5
      vertex 0 42 2.5
    endloop
  endfacet
  facet normal 0 -0.698324 0.715782
    outer loop
      vertex 0 16.6932 17.286
      vertex 1 1.5375 2.5
      vertex 1 16.6932 17.286
    endloop
  endfacet
  facet normal 0 -0.698324 0.715782
    outer loop
      vertex 1 1.5375 2.5
      vertex 0 16.6932 17.286
      vertex 0 1.5375 2.5
    endloop
  endfacet
  facet normal -0 0 1
    outer loop
      vertex 0 42 41
      vertex 1 41.7696 41
      vertex 1 42 41
    endloop
  endfacet
  facet normal 0 0 1
    outer loop
      vertex 1 41.7696 41
      vertex 0 42 41
      vertex 0 41.7696 41
    endloop
  endfacet
  facet normal -1 0 0
    outer loop
      vertex 88.4 42 2.5
      vertex 88.4 41.799 40.9706
      vertex 88.4 42 41
    endloop
  endfacet
  facet normal -1 0 0
    outer loop
      vertex 88.4 42 2.5
      vertex 88.4 18.1109 17.2825
      vertex 88.4 41.799 40.9706
    endloop
  endfacet
  facet normal -1 0 -0
    outer loop
      vertex 88.4 18.1109 17.2825
      vertex 88.4 42 2.5
      vertex 88.4 3.32843 2.5
    endloop
  endfacet
  facet normal -1 -0 0
    outer loop
      vertex 88.4 42 41
      vertex 88.4 41.799 40.9706
      vertex 88.4 41.7696 41
    endloop
  endfacet
  facet normal -1 0 0
    outer loop
      vertex 88.4 1.91421 2.5
      vertex 88.4 16.6932 17.286
      vertex 88.4 16.6967 17.2825
    endloop
  endfacet
  facet normal -1 0 0
    outer loop
      vertex 88.4 16.6932 17.286
      vertex 88.4 1.91421 2.5
      vertex 88.4 1.5375 2.5
    endloop
  endfacet
  facet normal 0 1 -0
    outer loop
      vertex 89.4 42 2.5
      vertex 88.4 42 41
      vertex 89.4 42 41
    endloop
  endfacet
  facet normal 0 1 0
    outer loop
      vertex 88.4 42 41
      vertex 89.4 42 2.5
      vertex 88.4 42 2.5
    endloop
  endfacet
  facet normal 0 -0.698324 0.715782
    outer loop
      vertex 88.4 16.6932 17.286
      vertex 89.4 1.5375 2.5
      vertex 89.4 16.6932 17.286
    endloop
  endfacet
  facet normal 0 -0.698324 0.715782
    outer loop
      vertex 89.4 1.5375 2.5
      vertex 88.4 16.6932 17.286
      vertex 88.4 1.5375 2.5
    endloop
  endfacet
  facet normal -0 0 1
    outer loop
      vertex 88.4 42 41
      vertex 89.4 41.7696 41
      vertex 89.4 42 41
    endloop
  endfacet
  facet normal 0 0 1
    outer loop
      vertex 89.4 41.7696 41
      vertex 88.4 42 41
      vertex 88.4 41.7696 41
    endloop
  endfacet
endsolid OpenSCAD_Model
