solid OpenSCAD_Model
  facet normal -1 0 0
    outer loop
      vertex -7.11 4.075 -5.085
      vertex -7.11 3.075 -3.585
      vertex -7.11 4.075 5.085
    endloop
  endfacet
  facet normal -1 0 0
    outer loop
      vertex -7.11 4.075 -5.085
      vertex -7.11 -3.075 -3.585
      vertex -7.11 3.075 -3.585
    endloop
  endfacet
  facet normal -1 0 0
    outer loop
      vertex -7.11 -4.075 -5.085
      vertex -7.11 -3.075 -3.585
      vertex -7.11 4.075 -5.085
    endloop
  endfacet
  facet normal -1 0 0
    outer loop
      vertex -7.11 -4.075 5.085
      vertex -7.11 -3.075 -3.585
      vertex -7.11 -4.075 -5.085
    endloop
  endfacet
  facet normal -1 0 0
    outer loop
      vertex -7.11 -3.075 -3.585
      vertex -7.11 -4.075 5.085
      vertex -7.11 -3.075 5.085
    endloop
  endfacet
  facet normal -1 -0 0
    outer loop
      vertex -7.11 4.075 5.085
      vertex -7.11 3.075 -3.585
      vertex -7.11 3.075 5.085
    endloop
  endfacet
  facet normal 0 0 1
    outer loop
      vertex -6.21 -3.075 5.085
      vertex -7.11 -3.075 5.085
      vertex -6.21 -3.175 5.085
    endloop
  endfacet
  facet normal 0 0 1
    outer loop
      vertex 6.21 -3.175 5.085
      vertex 7.11 -3.075 5.085
      vertex 6.21 -3.075 5.085
    endloop
  endfacet
  facet normal 0 0 1
    outer loop
      vertex 7.11 -3.075 5.085
      vertex 6.21 -3.175 5.085
      vertex 7.11 -4.075 5.085
    endloop
  endfacet
  facet normal -0 0 1
    outer loop
      vertex -6.21 -3.175 5.085
      vertex 7.11 -4.075 5.085
      vertex 6.21 -3.175 5.085
    endloop
  endfacet
  facet normal 0 0 1
    outer loop
      vertex -6.21 -3.175 5.085
      vertex -7.11 -4.075 5.085
      vertex 7.11 -4.075 5.085
    endloop
  endfacet
  facet normal 0 0 1
    outer loop
      vertex -7.11 -4.075 5.085
      vertex -6.21 -3.175 5.085
      vertex -7.11 -3.075 5.085
    endloop
  endfacet
  facet normal 0 0 1
    outer loop
      vertex 7.11 4.075 5.085
      vertex 6.21 3.175 5.085
      vertex 7.11 3.075 5.085
    endloop
  endfacet
  facet normal 0 0 1
    outer loop
      vertex 7.11 4.075 5.085
      vertex -6.21 3.175 5.085
      vertex 6.21 3.175 5.085
    endloop
  endfacet
  facet normal -0 0 1
    outer loop
      vertex -7.11 4.075 5.085
      vertex -6.21 3.175 5.085
      vertex 7.11 4.075 5.085
    endloop
  endfacet
  facet normal 0 0 1
    outer loop
      vertex -7.11 3.075 5.085
      vertex -6.21 3.175 5.085
      vertex -7.11 4.075 5.085
    endloop
  endfacet
  facet normal 0 0 1
    outer loop
      vertex -6.21 3.175 5.085
      vertex -7.11 3.075 5.085
      vertex -6.21 3.075 5.085
    endloop
  endfacet
  facet normal 0 0 1
    outer loop
      vertex 7.11 3.075 5.085
      vertex 6.21 3.175 5.085
      vertex 6.21 3.075 5.085
    endloop
  endfacet
  facet normal 1 0 0
    outer loop
      vertex 7.11 -3.075 5.085
      vertex 7.11 -4.075 5.085
      vertex 7.11 -3.075 -3.585
    endloop
  endfacet
  facet normal 1 0 0
    outer loop
      vertex 7.11 3.075 -3.585
      vertex 7.11 4.075 5.085
      vertex 7.11 3.075 5.085
    endloop
  endfacet
  facet normal 1 0 0
    outer loop
      vertex 7.11 4.075 5.085
      vertex 7.11 3.075 -3.585
      vertex 7.11 4.075 -5.085
    endloop
  endfacet
  facet normal 1 -0 0
    outer loop
      vertex 7.11 -3.075 -3.585
      vertex 7.11 4.075 -5.085
      vertex 7.11 3.075 -3.585
    endloop
  endfacet
  facet normal 1 0 0
    outer loop
      vertex 7.11 -3.075 -3.585
      vertex 7.11 -4.075 -5.085
      vertex 7.11 4.075 -5.085
    endloop
  endfacet
  facet normal 1 0 0
    outer loop
      vertex 7.11 -4.075 -5.085
      vertex 7.11 -3.075 -3.585
      vertex 7.11 -4.075 5.085
    endloop
  endfacet
  facet normal 0 0 -1
    outer loop
      vertex -7.11 -4.075 -5.085
      vertex 7.11 4.075 -5.085
      vertex 7.11 -4.075 -5.085
    endloop
  endfacet
  facet normal -0 0 -1
    outer loop
      vertex 7.11 4.075 -5.085
      vertex -7.11 -4.075 -5.085
      vertex -7.11 4.075 -5.085
    endloop
  endfacet
  facet normal 0 -1 0
    outer loop
      vertex -7.11 -4.075 -5.085
      vertex 7.11 -4.075 5.085
      vertex -7.11 -4.075 5.085
    endloop
  endfacet
  facet normal 0 -1 -0
    outer loop
      vertex 7.11 -4.075 5.085
      vertex -7.11 -4.075 -5.085
      vertex 7.11 -4.075 -5.085
    endloop
  endfacet
  facet normal 0 1 -0
    outer loop
      vertex 7.11 4.075 -5.085
      vertex -7.11 4.075 5.085
      vertex 7.11 4.075 5.085
    endloop
  endfacet
  facet normal 0 1 0
    outer loop
      vertex -7.11 4.075 5.085
      vertex 7.11 4.075 -5.085
      vertex -7.11 4.075 -5.085
    endloop
  endfacet
  facet normal 1 -0 0
    outer loop
      vertex -6.21 3.075 5.085
      vertex -6.21 3.175 -3.585
      vertex -6.21 3.175 5.085
    endloop
  endfacet
  facet normal 1 0 0
    outer loop
      vertex -6.21 3.175 -3.585
      vertex -6.21 3.075 5.085
      vertex -6.21 3.075 -3.585
    endloop
  endfacet
  facet normal 1 -0 0
    outer loop
      vertex -6.21 -3.175 5.085
      vertex -6.21 -3.075 -3.585
      vertex -6.21 -3.075 5.085
    endloop
  endfacet
  facet normal 1 0 0
    outer loop
      vertex -6.21 -3.075 -3.585
      vertex -6.21 -3.175 5.085
      vertex -6.21 -3.175 -3.585
    endloop
  endfacet
  facet normal -1 0 0
    outer loop
      vertex 6.21 -3.175 -3.585
      vertex 6.21 -3.075 5.085
      vertex 6.21 -3.075 -3.585
    endloop
  endfacet
  facet normal -1 -0 0
    outer loop
      vertex 6.21 -3.075 5.085
      vertex 6.21 -3.175 -3.585
      vertex 6.21 -3.175 5.085
    endloop
  endfacet
  facet normal -1 0 0
    outer loop
      vertex 6.21 3.075 -3.585
      vertex 6.21 3.175 5.085
      vertex 6.21 3.175 -3.585
    endloop
  endfacet
  facet normal -1 -0 0
    outer loop
      vertex 6.21 3.175 5.085
      vertex 6.21 3.075 -3.585
      vertex 6.21 3.075 5.085
    endloop
  endfacet
  facet normal 0 -1 0
    outer loop
      vertex -6.21 3.175 -3.585
      vertex 6.21 3.175 5.085
      vertex -6.21 3.175 5.085
    endloop
  endfacet
  facet normal 0 -1 -0
    outer loop
      vertex 6.21 3.175 5.085
      vertex -6.21 3.175 -3.585
      vertex 6.21 3.175 -3.585
    endloop
  endfacet
  facet normal -0 0 1
    outer loop
      vertex -7.11 3.075 -3.585
      vertex -6.21 -3.075 -3.585
      vertex -6.21 3.075 -3.585
    endloop
  endfacet
  facet normal 0 0 1
    outer loop
      vertex -6.21 -3.075 -3.585
      vertex -7.11 3.075 -3.585
      vertex -7.11 -3.075 -3.585
    endloop
  endfacet
  facet normal 0 0 1
    outer loop
      vertex -6.21 3.075 -3.585
      vertex 6.21 3.075 -3.585
      vertex 6.21 3.175 -3.585
    endloop
  endfacet
  facet normal 0 0 1
    outer loop
      vertex 6.21 3.075 -3.585
      vertex -6.21 3.075 -3.585
      vertex 6.21 -3.075 -3.585
    endloop
  endfacet
  facet normal 0 0 1
    outer loop
      vertex -6.21 3.075 -3.585
      vertex 6.21 3.175 -3.585
      vertex -6.21 3.175 -3.585
    endloop
  endfacet
  facet normal 0 0 1
    outer loop
      vertex -6.21 -3.075 -3.585
      vertex 6.21 -3.075 -3.585
      vertex -6.21 3.075 -3.585
    endloop
  endfacet
  facet normal 0 0 1
    outer loop
      vertex 6.21 -3.075 -3.585
      vertex -6.21 -3.075 -3.585
      vertex 6.21 -3.175 -3.585
    endloop
  endfacet
  facet normal 0 0 1
    outer loop
      vertex 6.21 -3.175 -3.585
      vertex -6.21 -3.075 -3.585
      vertex -6.21 -3.175 -3.585
    endloop
  endfacet
  facet normal -0 0 1
    outer loop
      vertex 6.21 3.075 -3.585
      vertex 7.11 -3.075 -3.585
      vertex 7.11 3.075 -3.585
    endloop
  endfacet
  facet normal 0 0 1
    outer loop
      vertex 7.11 -3.075 -3.585
      vertex 6.21 3.075 -3.585
      vertex 6.21 -3.075 -3.585
    endloop
  endfacet
  facet normal 0 1 -0
    outer loop
      vertex 6.21 -3.175 -3.585
      vertex -6.21 -3.175 5.085
      vertex 6.21 -3.175 5.085
    endloop
  endfacet
  facet normal 0 1 0
    outer loop
      vertex -6.21 -3.175 5.085
      vertex 6.21 -3.175 -3.585
      vertex -6.21 -3.175 -3.585
    endloop
  endfacet
  facet normal 0 1 -0
    outer loop
      vertex 7.11 -3.075 -3.585
      vertex 6.21 -3.075 5.085
      vertex 7.11 -3.075 5.085
    endloop
  endfacet
  facet normal 0 1 0
    outer loop
      vertex 6.21 -3.075 5.085
      vertex 7.11 -3.075 -3.585
      vertex 6.21 -3.075 -3.585
    endloop
  endfacet
  facet normal 0 -1 0
    outer loop
      vertex 6.21 3.075 -3.585
      vertex 7.11 3.075 5.085
      vertex 6.21 3.075 5.085
    endloop
  endfacet
  facet normal 0 -1 -0
    outer loop
      vertex 7.11 3.075 5.085
      vertex 6.21 3.075 -3.585
      vertex 7.11 3.075 -3.585
    endloop
  endfacet
  facet normal 0 1 -0
    outer loop
      vertex -6.21 -3.075 -3.585
      vertex -7.11 -3.075 5.085
      vertex -6.21 -3.075 5.085
    endloop
  endfacet
  facet normal 0 1 0
    outer loop
      vertex -7.11 -3.075 5.085
      vertex -6.21 -3.075 -3.585
      vertex -7.11 -3.075 -3.585
    endloop
  endfacet
  facet normal 0 -1 0
    outer loop
      vertex -7.11 3.075 -3.585
      vertex -6.21 3.075 5.085
      vertex -7.11 3.075 5.085
    endloop
  endfacet
  facet normal 0 -1 -0
    outer loop
      vertex -6.21 3.075 5.085
      vertex -7.11 3.075 -3.585
      vertex -6.21 3.075 -3.585
    endloop
  endfacet
endsolid OpenSCAD_Model
