solid OpenSCAD_Model
  facet normal -1 0 0
    outer loop
      vertex -6 -12.19 -4.885
      vertex -6 12.19 4.885
      vertex -6 12.19 -4.885
    endloop
  endfacet
  facet normal -1 -0 0
    outer loop
      vertex -6 12.19 4.885
      vertex -6 -12.19 -4.885
      vertex -6 -12.19 4.885
    endloop
  endfacet
  facet normal 0 0 1
    outer loop
      vertex -3.575 12.19 4.885
      vertex -5.35 11.54 4.885
      vertex -3.575 11.54 4.885
    endloop
  endfacet
  facet normal 0 0 1
    outer loop
      vertex -5.35 11.54 4.885
      vertex -6 12.19 4.885
      vertex -5.35 -11.54 4.885
    endloop
  endfacet
  facet normal -0 0 1
    outer loop
      vertex -6 12.19 4.885
      vertex -5.35 11.54 4.885
      vertex -3.575 12.19 4.885
    endloop
  endfacet
  facet normal -0 0 1
    outer loop
      vertex -5.35 -11.54 4.885
      vertex -3.575 -12.19 4.885
      vertex -3.575 -11.54 4.885
    endloop
  endfacet
  facet normal 0 0 1
    outer loop
      vertex -5.35 -11.54 4.885
      vertex -6 -12.19 4.885
      vertex -3.575 -12.19 4.885
    endloop
  endfacet
  facet normal 0 0 1
    outer loop
      vertex -6 -12.19 4.885
      vertex -5.35 -11.54 4.885
      vertex -6 12.19 4.885
    endloop
  endfacet
  facet normal 0 0 1
    outer loop
      vertex 6 12.19 4.885
      vertex 5.35 11.54 4.885
      vertex 6 -12.19 4.885
    endloop
  endfacet
  facet normal -0 0 1
    outer loop
      vertex 3.575 12.19 4.885
      vertex 5.35 11.54 4.885
      vertex 6 12.19 4.885
    endloop
  endfacet
  facet normal 0 0 1
    outer loop
      vertex 5.35 11.54 4.885
      vertex 3.575 12.19 4.885
      vertex 3.575 11.54 4.885
    endloop
  endfacet
  facet normal -0 0 1
    outer loop
      vertex 5.35 -11.54 4.885
      vertex 6 -12.19 4.885
      vertex 5.35 11.54 4.885
    endloop
  endfacet
  facet normal 0 0 1
    outer loop
      vertex 3.575 -12.19 4.885
      vertex 5.35 -11.54 4.885
      vertex 3.575 -11.54 4.885
    endloop
  endfacet
  facet normal 0 0 1
    outer loop
      vertex 5.35 -11.54 4.885
      vertex 3.575 -12.19 4.885
      vertex 6 -12.19 4.885
    endloop
  endfacet
  facet normal 1 -0 0
    outer loop
      vertex 6 -12.19 4.885
      vertex 6 12.19 -4.885
      vertex 6 12.19 4.885
    endloop
  endfacet
  facet normal 1 0 0
    outer loop
      vertex 6 12.19 -4.885
      vertex 6 -12.19 4.885
      vertex 6 -12.19 -4.885
    endloop
  endfacet
  facet normal 0 1 0
    outer loop
      vertex 6 12.19 4.885
      vertex 3.575 12.19 -2.885
      vertex 3.575 12.19 4.885
    endloop
  endfacet
  facet normal 0 1 0
    outer loop
      vertex 3.575 12.19 -2.885
      vertex 6 12.19 -4.885
      vertex -3.575 12.19 -2.885
    endloop
  endfacet
  facet normal 0 1 -0
    outer loop
      vertex 6 12.19 -4.885
      vertex 3.575 12.19 -2.885
      vertex 6 12.19 4.885
    endloop
  endfacet
  facet normal 0 1 -0
    outer loop
      vertex -3.575 12.19 -2.885
      vertex -6 12.19 4.885
      vertex -3.575 12.19 4.885
    endloop
  endfacet
  facet normal 0 1 0
    outer loop
      vertex -3.575 12.19 -2.885
      vertex -6 12.19 -4.885
      vertex -6 12.19 4.885
    endloop
  endfacet
  facet normal 0 1 0
    outer loop
      vertex -6 12.19 -4.885
      vertex -3.575 12.19 -2.885
      vertex 6 12.19 -4.885
    endloop
  endfacet
  facet normal 0 0 -1
    outer loop
      vertex -6 -12.19 -4.885
      vertex 6 12.19 -4.885
      vertex 6 -12.19 -4.885
    endloop
  endfacet
  facet normal -0 0 -1
    outer loop
      vertex 6 12.19 -4.885
      vertex -6 -12.19 -4.885
      vertex -6 12.19 -4.885
    endloop
  endfacet
  facet normal 0 -1 0
    outer loop
      vertex -6 -12.19 4.885
      vertex -3.575 -12.19 -2.885
      vertex -3.575 -12.19 4.885
    endloop
  endfacet
  facet normal 0 -1 -0
    outer loop
      vertex -3.575 -12.19 -2.885
      vertex -6 -12.19 -4.885
      vertex 3.575 -12.19 -2.885
    endloop
  endfacet
  facet normal 0 -1 0
    outer loop
      vertex -6 -12.19 -4.885
      vertex -3.575 -12.19 -2.885
      vertex -6 -12.19 4.885
    endloop
  endfacet
  facet normal 0 -1 0
    outer loop
      vertex 3.575 -12.19 -2.885
      vertex 6 -12.19 4.885
      vertex 3.575 -12.19 4.885
    endloop
  endfacet
  facet normal 0 -1 0
    outer loop
      vertex 3.575 -12.19 -2.885
      vertex 6 -12.19 -4.885
      vertex 6 -12.19 4.885
    endloop
  endfacet
  facet normal 0 -1 0
    outer loop
      vertex 6 -12.19 -4.885
      vertex 3.575 -12.19 -2.885
      vertex -6 -12.19 -4.885
    endloop
  endfacet
  facet normal 1 -0 0
    outer loop
      vertex -5.35 -11.54 4.885
      vertex -5.35 11.54 -3.085
      vertex -5.35 11.54 4.885
    endloop
  endfacet
  facet normal 1 0 0
    outer loop
      vertex -5.35 11.54 -3.085
      vertex -5.35 -11.54 4.885
      vertex -5.35 -11.54 -3.085
    endloop
  endfacet
  facet normal -1 0 0
    outer loop
      vertex 5.35 -11.54 -3.085
      vertex 5.35 11.54 4.885
      vertex 5.35 11.54 -3.085
    endloop
  endfacet
  facet normal -1 -0 0
    outer loop
      vertex 5.35 11.54 4.885
      vertex 5.35 -11.54 -3.085
      vertex 5.35 -11.54 4.885
    endloop
  endfacet
  facet normal 0 -1 0
    outer loop
      vertex -5.35 11.54 4.885
      vertex -3.575 11.54 -2.885
      vertex -3.575 11.54 4.885
    endloop
  endfacet
  facet normal 0 -1 -0
    outer loop
      vertex -3.575 11.54 -2.885
      vertex -5.35 11.54 -3.085
      vertex 3.575 11.54 -2.885
    endloop
  endfacet
  facet normal 0 -1 0
    outer loop
      vertex -5.35 11.54 -3.085
      vertex -3.575 11.54 -2.885
      vertex -5.35 11.54 4.885
    endloop
  endfacet
  facet normal 0 -1 0
    outer loop
      vertex 3.575 11.54 -2.885
      vertex 5.35 11.54 4.885
      vertex 3.575 11.54 4.885
    endloop
  endfacet
  facet normal 0 -1 0
    outer loop
      vertex 3.575 11.54 -2.885
      vertex 5.35 11.54 -3.085
      vertex 5.35 11.54 4.885
    endloop
  endfacet
  facet normal 0 -1 0
    outer loop
      vertex 5.35 11.54 -3.085
      vertex 3.575 11.54 -2.885
      vertex -5.35 11.54 -3.085
    endloop
  endfacet
  facet normal -0 0 1
    outer loop
      vertex -5.35 11.54 -3.085
      vertex 5.35 -11.54 -3.085
      vertex 5.35 11.54 -3.085
    endloop
  endfacet
  facet normal 0 0 1
    outer loop
      vertex 5.35 -11.54 -3.085
      vertex -5.35 11.54 -3.085
      vertex -5.35 -11.54 -3.085
    endloop
  endfacet
  facet normal 0 1 0
    outer loop
      vertex 5.35 -11.54 4.885
      vertex 3.575 -11.54 -2.885
      vertex 3.575 -11.54 4.885
    endloop
  endfacet
  facet normal 0 1 0
    outer loop
      vertex 3.575 -11.54 -2.885
      vertex 5.35 -11.54 -3.085
      vertex -3.575 -11.54 -2.885
    endloop
  endfacet
  facet normal 0 1 -0
    outer loop
      vertex 5.35 -11.54 -3.085
      vertex 3.575 -11.54 -2.885
      vertex 5.35 -11.54 4.885
    endloop
  endfacet
  facet normal 0 1 -0
    outer loop
      vertex -3.575 -11.54 -2.885
      vertex -5.35 -11.54 4.885
      vertex -3.575 -11.54 4.885
    endloop
  endfacet
  facet normal 0 1 0
    outer loop
      vertex -3.575 -11.54 -2.885
      vertex -5.35 -11.54 -3.085
      vertex -5.35 -11.54 4.885
    endloop
  endfacet
  facet normal 0 1 0
    outer loop
      vertex -5.35 -11.54 -3.085
      vertex -3.575 -11.54 -2.885
      vertex 5.35 -11.54 -3.085
    endloop
  endfacet
  facet normal 1 -0 0
    outer loop
      vertex -3.575 11.54 4.885
      vertex -3.575 12.19 -2.885
      vertex -3.575 12.19 4.885
    endloop
  endfacet
  facet normal 1 0 0
    outer loop
      vertex -3.575 12.19 -2.885
      vertex -3.575 11.54 4.885
      vertex -3.575 11.54 -2.885
    endloop
  endfacet
  facet normal -1 0 0
    outer loop
      vertex 3.575 11.54 -2.885
      vertex 3.575 12.19 4.885
      vertex 3.575 12.19 -2.885
    endloop
  endfacet
  facet normal -1 -0 0
    outer loop
      vertex 3.575 12.19 4.885
      vertex 3.575 11.54 -2.885
      vertex 3.575 11.54 4.885
    endloop
  endfacet
  facet normal -0 0 1
    outer loop
      vertex -3.575 12.19 -2.885
      vertex 3.575 11.54 -2.885
      vertex 3.575 12.19 -2.885
    endloop
  endfacet
  facet normal 0 0 1
    outer loop
      vertex 3.575 11.54 -2.885
      vertex -3.575 12.19 -2.885
      vertex -3.575 11.54 -2.885
    endloop
  endfacet
  facet normal 1 -0 0
    outer loop
      vertex -3.575 -12.19 4.885
      vertex -3.575 -11.54 -2.885
      vertex -3.575 -11.54 4.885
    endloop
  endfacet
  facet normal 1 0 0
    outer loop
      vertex -3.575 -11.54 -2.885
      vertex -3.575 -12.19 4.885
      vertex -3.575 -12.19 -2.885
    endloop
  endfacet
  facet normal -1 0 0
    outer loop
      vertex 3.575 -12.19 -2.885
      vertex 3.575 -11.54 4.885
      vertex 3.575 -11.54 -2.885
    endloop
  endfacet
  facet normal -1 -0 0
    outer loop
      vertex 3.575 -11.54 4.885
      vertex 3.575 -12.19 -2.885
      vertex 3.575 -12.19 4.885
    endloop
  endfacet
  facet normal -0 0 1
    outer loop
      vertex -3.575 -11.54 -2.885
      vertex 3.575 -12.19 -2.885
      vertex 3.575 -11.54 -2.885
    endloop
  endfacet
  facet normal 0 0 1
    outer loop
      vertex 3.575 -12.19 -2.885
      vertex -3.575 -11.54 -2.885
      vertex -3.575 -12.19 -2.885
    endloop
  endfacet
endsolid OpenSCAD_Model
