solid OpenSCAD_Model
  facet normal -1 0 0
    outer loop
      vertex -10.65 7.57 -3.96
      vertex -10.65 6.42 -2.66
      vertex -10.65 7.57 3.96
    endloop
  endfacet
  facet normal -1 0 0
    outer loop
      vertex -10.65 7.57 -3.96
      vertex -10.65 -6.42 -2.66
      vertex -10.65 6.42 -2.66
    endloop
  endfacet
  facet normal -1 0 0
    outer loop
      vertex -10.65 -7.57 -3.96
      vertex -10.65 -6.42 -2.66
      vertex -10.65 7.57 -3.96
    endloop
  endfacet
  facet normal -1 0 0
    outer loop
      vertex -10.65 -7.57 3.96
      vertex -10.65 -6.42 -2.66
      vertex -10.65 -7.57 -3.96
    endloop
  endfacet
  facet normal -1 0 0
    outer loop
      vertex -10.65 -6.42 -2.66
      vertex -10.65 -7.57 3.96
      vertex -10.65 -6.42 3.96
    endloop
  endfacet
  facet normal -1 -0 0
    outer loop
      vertex -10.65 7.57 3.96
      vertex -10.65 6.42 -2.66
      vertex -10.65 6.42 3.96
    endloop
  endfacet
  facet normal -0 0 1
    outer loop
      vertex -10.65 -6.42 3.96
      vertex 10.65 -7.57 3.96
      vertex 10.65 -6.42 3.96
    endloop
  endfacet
  facet normal 0 0 1
    outer loop
      vertex 10.65 -7.57 3.96
      vertex -10.65 -6.42 3.96
      vertex -10.65 -7.57 3.96
    endloop
  endfacet
  facet normal -0 0 1
    outer loop
      vertex -10.65 7.57 3.96
      vertex 10.65 6.42 3.96
      vertex 10.65 7.57 3.96
    endloop
  endfacet
  facet normal 0 0 1
    outer loop
      vertex 10.65 6.42 3.96
      vertex -10.65 7.57 3.96
      vertex -10.65 6.42 3.96
    endloop
  endfacet
  facet normal 1 0 0
    outer loop
      vertex 10.65 -6.42 3.96
      vertex 10.65 -7.57 3.96
      vertex 10.65 -6.42 -2.66
    endloop
  endfacet
  facet normal 1 0 0
    outer loop
      vertex 10.65 6.42 -2.66
      vertex 10.65 7.57 3.96
      vertex 10.65 6.42 3.96
    endloop
  endfacet
  facet normal 1 0 0
    outer loop
      vertex 10.65 7.57 3.96
      vertex 10.65 6.42 -2.66
      vertex 10.65 7.57 -3.96
    endloop
  endfacet
  facet normal 1 -0 0
    outer loop
      vertex 10.65 -6.42 -2.66
      vertex 10.65 7.57 -3.96
      vertex 10.65 6.42 -2.66
    endloop
  endfacet
  facet normal 1 0 0
    outer loop
      vertex 10.65 -6.42 -2.66
      vertex 10.65 -7.57 -3.96
      vertex 10.65 7.57 -3.96
    endloop
  endfacet
  facet normal 1 0 0
    outer loop
      vertex 10.65 -7.57 -3.96
      vertex 10.65 -6.42 -2.66
      vertex 10.65 -7.57 3.96
    endloop
  endfacet
  facet normal 0 0 -1
    outer loop
      vertex -10.65 -7.57 -3.96
      vertex 10.65 7.57 -3.96
      vertex 10.65 -7.57 -3.96
    endloop
  endfacet
  facet normal -0 0 -1
    outer loop
      vertex 10.65 7.57 -3.96
      vertex -10.65 -7.57 -3.96
      vertex -10.65 7.57 -3.96
    endloop
  endfacet
  facet normal 0 -1 0
    outer loop
      vertex -10.65 -7.57 -3.96
      vertex 10.65 -7.57 3.96
      vertex -10.65 -7.57 3.96
    endloop
  endfacet
  facet normal 0 -1 -0
    outer loop
      vertex 10.65 -7.57 3.96
      vertex -10.65 -7.57 -3.96
      vertex 10.65 -7.57 -3.96
    endloop
  endfacet
  facet normal 0 1 -0
    outer loop
      vertex 10.65 7.57 -3.96
      vertex -10.65 7.57 3.96
      vertex 10.65 7.57 3.96
    endloop
  endfacet
  facet normal 0 1 0
    outer loop
      vertex -10.65 7.57 3.96
      vertex 10.65 7.57 -3.96
      vertex -10.65 7.57 -3.96
    endloop
  endfacet
  facet normal 1 -0 0
    outer loop
      vertex -9.5 -6.42 -2.66
      vertex -9.5 6.42 -2.76
      vertex -9.5 6.42 -2.66
    endloop
  endfacet
  facet normal 1 0 0
    outer loop
      vertex -9.5 6.42 -2.76
      vertex -9.5 -6.42 -2.66
      vertex -9.5 -6.42 -2.76
    endloop
  endfacet
  facet normal -1 0 0
    outer loop
      vertex 9.5 -6.42 -2.76
      vertex 9.5 6.42 -2.66
      vertex 9.5 6.42 -2.76
    endloop
  endfacet
  facet normal -1 -0 0
    outer loop
      vertex 9.5 6.42 -2.66
      vertex 9.5 -6.42 -2.76
      vertex 9.5 -6.42 -2.66
    endloop
  endfacet
  facet normal -0 0 1
    outer loop
      vertex -9.5 6.42 -2.76
      vertex 9.5 -6.42 -2.76
      vertex 9.5 6.42 -2.76
    endloop
  endfacet
  facet normal 0 0 1
    outer loop
      vertex 9.5 -6.42 -2.76
      vertex -9.5 6.42 -2.76
      vertex -9.5 -6.42 -2.76
    endloop
  endfacet
  facet normal 0 1 -0
    outer loop
      vertex 9.5 -6.42 -2.76
      vertex -9.5 -6.42 -2.66
      vertex 9.5 -6.42 -2.66
    endloop
  endfacet
  facet normal 0 1 0
    outer loop
      vertex -9.5 -6.42 -2.66
      vertex 9.5 -6.42 -2.76
      vertex -9.5 -6.42 -2.76
    endloop
  endfacet
  facet normal 0 1 0
    outer loop
      vertex 9.5 -6.42 -2.66
      vertex 10.65 -6.42 3.96
      vertex 10.65 -6.42 -2.66
    endloop
  endfacet
  facet normal 0 1 0
    outer loop
      vertex 10.65 -6.42 3.96
      vertex 9.5 -6.42 -2.66
      vertex -10.65 -6.42 3.96
    endloop
  endfacet
  facet normal 0 1 -0
    outer loop
      vertex -9.5 -6.42 -2.66
      vertex -10.65 -6.42 3.96
      vertex 9.5 -6.42 -2.66
    endloop
  endfacet
  facet normal 0 1 0
    outer loop
      vertex -10.65 -6.42 3.96
      vertex -9.5 -6.42 -2.66
      vertex -10.65 -6.42 -2.66
    endloop
  endfacet
  facet normal 0 -1 0
    outer loop
      vertex -9.5 6.42 -2.76
      vertex 9.5 6.42 -2.66
      vertex -9.5 6.42 -2.66
    endloop
  endfacet
  facet normal 0 -1 -0
    outer loop
      vertex 9.5 6.42 -2.66
      vertex -9.5 6.42 -2.76
      vertex 9.5 6.42 -2.76
    endloop
  endfacet
  facet normal 0 -1 0
    outer loop
      vertex -9.5 6.42 -2.66
      vertex -10.65 6.42 3.96
      vertex -10.65 6.42 -2.66
    endloop
  endfacet
  facet normal 0 -1 0
    outer loop
      vertex -10.65 6.42 3.96
      vertex -9.5 6.42 -2.66
      vertex 10.65 6.42 3.96
    endloop
  endfacet
  facet normal 0 -1 0
    outer loop
      vertex 9.5 6.42 -2.66
      vertex 10.65 6.42 3.96
      vertex -9.5 6.42 -2.66
    endloop
  endfacet
  facet normal 0 -1 -0
    outer loop
      vertex 10.65 6.42 3.96
      vertex 9.5 6.42 -2.66
      vertex 10.65 6.42 -2.66
    endloop
  endfacet
  facet normal -0 0 1
    outer loop
      vertex 9.5 6.42 -2.66
      vertex 10.65 -6.42 -2.66
      vertex 10.65 6.42 -2.66
    endloop
  endfacet
  facet normal 0 0 1
    outer loop
      vertex 10.65 -6.42 -2.66
      vertex 9.5 6.42 -2.66
      vertex 9.5 -6.42 -2.66
    endloop
  endfacet
  facet normal -0 0 1
    outer loop
      vertex -10.65 6.42 -2.66
      vertex -9.5 -6.42 -2.66
      vertex -9.5 6.42 -2.66
    endloop
  endfacet
  facet normal 0 0 1
    outer loop
      vertex -9.5 -6.42 -2.66
      vertex -10.65 6.42 -2.66
      vertex -10.65 -6.42 -2.66
    endloop
  endfacet
endsolid OpenSCAD_Model
